<mxfile host="app.diagrams.net" modified="2023-10-10T12:32:07.717Z" agent="Mozilla/5.0 (Windows NT 10.0; Win64; x64) AppleWebKit/537.36 (KHTML, like Gecko) Chrome/117.0.0.0 Safari/537.36" etag="FiLyLYhNL5QPljcW1ZUf" version="22.0.4" type="github" pages="4">
  <diagram id="R2lEEEUBdFMjLlhIrx00" name="ER">
    <mxGraphModel dx="1050" dy="1634" grid="1" gridSize="10" guides="1" tooltips="1" connect="1" arrows="1" fold="1" page="1" pageScale="1" pageWidth="850" pageHeight="1100" math="0" shadow="0" extFonts="Permanent Marker^https://fonts.googleapis.com/css?family=Permanent+Marker">
      <root>
        <mxCell id="0" />
        <mxCell id="1" parent="0" />
        <mxCell id="DzM86ADXMEr3smT-KP6B-1" value="CUSTOMER" style="whiteSpace=wrap;html=1;aspect=fixed;fillColor=#FFD966;" parent="1" vertex="1">
          <mxGeometry x="70" y="60" width="90" height="90" as="geometry" />
        </mxCell>
        <mxCell id="DzM86ADXMEr3smT-KP6B-22" value="STORE" style="whiteSpace=wrap;html=1;aspect=fixed;fillColor=#FFD966;" parent="1" vertex="1">
          <mxGeometry x="620" y="70" width="90" height="90" as="geometry" />
        </mxCell>
        <mxCell id="DzM86ADXMEr3smT-KP6B-23" value="ORDER" style="whiteSpace=wrap;html=1;aspect=fixed;fillColor=#FFD966;" parent="1" vertex="1">
          <mxGeometry x="340" y="70" width="90" height="90" as="geometry" />
        </mxCell>
        <mxCell id="DzM86ADXMEr3smT-KP6B-24" value="PRODUCT" style="whiteSpace=wrap;html=1;aspect=fixed;fillColor=#FFD966;" parent="1" vertex="1">
          <mxGeometry x="340" y="290" width="90" height="90" as="geometry" />
        </mxCell>
        <mxCell id="DzM86ADXMEr3smT-KP6B-25" value="CATEGORY" style="whiteSpace=wrap;html=1;aspect=fixed;fillColor=#FFD966;" parent="1" vertex="1">
          <mxGeometry x="340" y="510" width="90" height="90" as="geometry" />
        </mxCell>
        <mxCell id="DzM86ADXMEr3smT-KP6B-26" value="Places" style="rhombus;whiteSpace=wrap;html=1;fillColor=#F19C99;" parent="1" vertex="1">
          <mxGeometry x="210" y="90" width="80" height="50" as="geometry" />
        </mxCell>
        <mxCell id="DzM86ADXMEr3smT-KP6B-27" value="" style="endArrow=none;html=1;rounded=0;entryX=0;entryY=0.5;entryDx=0;entryDy=0;exitX=1;exitY=0.633;exitDx=0;exitDy=0;exitPerimeter=0;" parent="1" source="DzM86ADXMEr3smT-KP6B-1" target="DzM86ADXMEr3smT-KP6B-26" edge="1">
          <mxGeometry width="50" height="50" relative="1" as="geometry">
            <mxPoint x="160" y="110" as="sourcePoint" />
            <mxPoint x="210" y="60" as="targetPoint" />
          </mxGeometry>
        </mxCell>
        <mxCell id="DzM86ADXMEr3smT-KP6B-28" value="" style="endArrow=none;html=1;rounded=0;entryX=0;entryY=0.5;entryDx=0;entryDy=0;exitX=1;exitY=0.5;exitDx=0;exitDy=0;" parent="1" source="DzM86ADXMEr3smT-KP6B-26" target="DzM86ADXMEr3smT-KP6B-23" edge="1">
          <mxGeometry width="50" height="50" relative="1" as="geometry">
            <mxPoint x="290" y="80" as="sourcePoint" />
            <mxPoint x="340" y="30" as="targetPoint" />
          </mxGeometry>
        </mxCell>
        <mxCell id="DzM86ADXMEr3smT-KP6B-33" value="Occur" style="rhombus;whiteSpace=wrap;html=1;fillColor=#F19C99;" parent="1" vertex="1">
          <mxGeometry x="470" y="90" width="80" height="50" as="geometry" />
        </mxCell>
        <mxCell id="DzM86ADXMEr3smT-KP6B-34" value="" style="endArrow=none;html=1;rounded=0;entryX=0;entryY=0.5;entryDx=0;entryDy=0;exitX=1;exitY=0.5;exitDx=0;exitDy=0;" parent="1" source="DzM86ADXMEr3smT-KP6B-23" target="DzM86ADXMEr3smT-KP6B-33" edge="1">
          <mxGeometry width="50" height="50" relative="1" as="geometry">
            <mxPoint x="450" y="70" as="sourcePoint" />
            <mxPoint x="500" y="20" as="targetPoint" />
          </mxGeometry>
        </mxCell>
        <mxCell id="DzM86ADXMEr3smT-KP6B-35" value="1" style="text;strokeColor=none;align=center;fillColor=none;html=1;verticalAlign=middle;whiteSpace=wrap;rounded=0;" parent="1" vertex="1">
          <mxGeometry x="150" y="80" width="60" height="30" as="geometry" />
        </mxCell>
        <mxCell id="DzM86ADXMEr3smT-KP6B-37" value="m" style="text;strokeColor=none;align=center;fillColor=none;html=1;verticalAlign=middle;whiteSpace=wrap;rounded=0;" parent="1" vertex="1">
          <mxGeometry x="280" y="90" width="60" height="30" as="geometry" />
        </mxCell>
        <mxCell id="DzM86ADXMEr3smT-KP6B-39" value="n" style="text;strokeColor=none;align=center;fillColor=none;html=1;verticalAlign=middle;whiteSpace=wrap;rounded=0;" parent="1" vertex="1">
          <mxGeometry x="425" y="80" width="60" height="30" as="geometry" />
        </mxCell>
        <mxCell id="DzM86ADXMEr3smT-KP6B-42" value="1" style="text;strokeColor=none;align=center;fillColor=none;html=1;verticalAlign=middle;whiteSpace=wrap;rounded=0;" parent="1" vertex="1">
          <mxGeometry x="550" y="80" width="60" height="30" as="geometry" />
        </mxCell>
        <mxCell id="DzM86ADXMEr3smT-KP6B-43" value="" style="endArrow=none;html=1;rounded=0;exitX=1;exitY=0.5;exitDx=0;exitDy=0;entryX=0;entryY=0.5;entryDx=0;entryDy=0;" parent="1" source="DzM86ADXMEr3smT-KP6B-33" target="DzM86ADXMEr3smT-KP6B-22" edge="1">
          <mxGeometry width="50" height="50" relative="1" as="geometry">
            <mxPoint x="570" y="90" as="sourcePoint" />
            <mxPoint x="620" y="40" as="targetPoint" />
          </mxGeometry>
        </mxCell>
        <mxCell id="DzM86ADXMEr3smT-KP6B-44" value="Places" style="rhombus;whiteSpace=wrap;html=1;fillColor=#F19C99;" parent="1" vertex="1">
          <mxGeometry x="350" y="200" width="80" height="50" as="geometry" />
        </mxCell>
        <mxCell id="DzM86ADXMEr3smT-KP6B-45" value="" style="endArrow=none;html=1;rounded=0;exitX=0.5;exitY=0;exitDx=0;exitDy=0;entryX=0.556;entryY=1;entryDx=0;entryDy=0;entryPerimeter=0;" parent="1" source="DzM86ADXMEr3smT-KP6B-44" target="DzM86ADXMEr3smT-KP6B-23" edge="1">
          <mxGeometry width="50" height="50" relative="1" as="geometry">
            <mxPoint x="470" y="240" as="sourcePoint" />
            <mxPoint x="390" y="170" as="targetPoint" />
          </mxGeometry>
        </mxCell>
        <mxCell id="DzM86ADXMEr3smT-KP6B-46" value="m" style="text;strokeColor=none;align=center;fillColor=none;html=1;verticalAlign=middle;whiteSpace=wrap;rounded=0;" parent="1" vertex="1">
          <mxGeometry x="380" y="250" width="60" height="30" as="geometry" />
        </mxCell>
        <mxCell id="DzM86ADXMEr3smT-KP6B-47" value="n" style="text;strokeColor=none;align=center;fillColor=none;html=1;verticalAlign=middle;whiteSpace=wrap;rounded=0;" parent="1" vertex="1">
          <mxGeometry x="380" y="160" width="60" height="30" as="geometry" />
        </mxCell>
        <mxCell id="DzM86ADXMEr3smT-KP6B-48" value="" style="endArrow=none;html=1;rounded=0;entryX=0.5;entryY=1;entryDx=0;entryDy=0;exitX=0.578;exitY=0;exitDx=0;exitDy=0;exitPerimeter=0;" parent="1" source="DzM86ADXMEr3smT-KP6B-24" target="DzM86ADXMEr3smT-KP6B-44" edge="1">
          <mxGeometry width="50" height="50" relative="1" as="geometry">
            <mxPoint x="390" y="300" as="sourcePoint" />
            <mxPoint x="310" y="260" as="targetPoint" />
          </mxGeometry>
        </mxCell>
        <mxCell id="DzM86ADXMEr3smT-KP6B-50" value="Belongs" style="rhombus;whiteSpace=wrap;html=1;fillColor=#F19C99;" parent="1" vertex="1">
          <mxGeometry x="345" y="420" width="80" height="50" as="geometry" />
        </mxCell>
        <mxCell id="DzM86ADXMEr3smT-KP6B-52" value="" style="endArrow=none;html=1;rounded=0;exitX=0.5;exitY=0;exitDx=0;exitDy=0;entryX=0.5;entryY=1;entryDx=0;entryDy=0;" parent="1" source="DzM86ADXMEr3smT-KP6B-50" target="DzM86ADXMEr3smT-KP6B-24" edge="1">
          <mxGeometry width="50" height="50" relative="1" as="geometry">
            <mxPoint x="410" y="440" as="sourcePoint" />
            <mxPoint x="460" y="390" as="targetPoint" />
          </mxGeometry>
        </mxCell>
        <mxCell id="DzM86ADXMEr3smT-KP6B-54" value="" style="endArrow=none;html=1;rounded=0;exitX=0.5;exitY=0;exitDx=0;exitDy=0;entryX=0.5;entryY=1;entryDx=0;entryDy=0;" parent="1" source="DzM86ADXMEr3smT-KP6B-25" target="DzM86ADXMEr3smT-KP6B-50" edge="1">
          <mxGeometry width="50" height="50" relative="1" as="geometry">
            <mxPoint x="405" y="440" as="sourcePoint" />
            <mxPoint x="405" y="400" as="targetPoint" />
          </mxGeometry>
        </mxCell>
        <mxCell id="DzM86ADXMEr3smT-KP6B-55" value="n" style="text;strokeColor=none;align=center;fillColor=none;html=1;verticalAlign=middle;whiteSpace=wrap;rounded=0;" parent="1" vertex="1">
          <mxGeometry x="370" y="380" width="60" height="30" as="geometry" />
        </mxCell>
        <mxCell id="DzM86ADXMEr3smT-KP6B-56" value="m" style="text;strokeColor=none;align=center;fillColor=none;html=1;verticalAlign=middle;whiteSpace=wrap;rounded=0;" parent="1" vertex="1">
          <mxGeometry x="365" y="480" width="60" height="30" as="geometry" />
        </mxCell>
        <mxCell id="DzM86ADXMEr3smT-KP6B-57" value="Email" style="ellipse;whiteSpace=wrap;html=1;fillColor=#D5E8D4;" parent="1" vertex="1">
          <mxGeometry x="220" y="-30" width="100" height="50" as="geometry" />
        </mxCell>
        <mxCell id="DzM86ADXMEr3smT-KP6B-58" value="Name" style="ellipse;whiteSpace=wrap;html=1;fillColor=#D5E8D4;" parent="1" vertex="1">
          <mxGeometry x="110" y="-80" width="100" height="50" as="geometry" />
        </mxCell>
        <mxCell id="DzM86ADXMEr3smT-KP6B-59" value="CustomerID" style="ellipse;whiteSpace=wrap;html=1;fillColor=#D5E8D4;" parent="1" vertex="1">
          <mxGeometry y="-30" width="100" height="50" as="geometry" />
        </mxCell>
        <mxCell id="DzM86ADXMEr3smT-KP6B-60" value="StoreID" style="ellipse;whiteSpace=wrap;html=1;fillColor=#D5E8D4;" parent="1" vertex="1">
          <mxGeometry x="570" y="-60" width="100" height="50" as="geometry" />
        </mxCell>
        <mxCell id="DzM86ADXMEr3smT-KP6B-61" value="StoreName" style="ellipse;whiteSpace=wrap;html=1;fillColor=#D5E8D4;" parent="1" vertex="1">
          <mxGeometry x="700" y="-50" width="100" height="50" as="geometry" />
        </mxCell>
        <mxCell id="DzM86ADXMEr3smT-KP6B-62" value="ProductID" style="ellipse;whiteSpace=wrap;html=1;fillColor=#D5E8D4;" parent="1" vertex="1">
          <mxGeometry x="470" y="280" width="100" height="50" as="geometry" />
        </mxCell>
        <mxCell id="DzM86ADXMEr3smT-KP6B-63" value="ProductName" style="ellipse;whiteSpace=wrap;html=1;fillColor=#D5E8D4;" parent="1" vertex="1">
          <mxGeometry x="460" y="350" width="100" height="50" as="geometry" />
        </mxCell>
        <mxCell id="DzM86ADXMEr3smT-KP6B-64" value="CateID" style="ellipse;whiteSpace=wrap;html=1;fillColor=#D5E8D4;" parent="1" vertex="1">
          <mxGeometry x="390" y="630" width="100" height="50" as="geometry" />
        </mxCell>
        <mxCell id="DzM86ADXMEr3smT-KP6B-65" value="CategName" style="ellipse;whiteSpace=wrap;html=1;fillColor=#D5E8D4;" parent="1" vertex="1">
          <mxGeometry x="270" y="630" width="100" height="50" as="geometry" />
        </mxCell>
        <mxCell id="DzM86ADXMEr3smT-KP6B-66" value="FirstName" style="ellipse;whiteSpace=wrap;html=1;fillColor=#D5E8D4;" parent="1" vertex="1">
          <mxGeometry x="65" y="-170" width="100" height="50" as="geometry" />
        </mxCell>
        <mxCell id="DzM86ADXMEr3smT-KP6B-67" value="LastName" style="ellipse;whiteSpace=wrap;html=1;fillColor=#D5E8D4;" parent="1" vertex="1">
          <mxGeometry x="190" y="-170" width="100" height="50" as="geometry" />
        </mxCell>
        <mxCell id="DzM86ADXMEr3smT-KP6B-68" value="Adress" style="ellipse;whiteSpace=wrap;html=1;fillColor=#D5E8D4;" parent="1" vertex="1">
          <mxGeometry x="70" y="210" width="100" height="50" as="geometry" />
        </mxCell>
        <mxCell id="DzM86ADXMEr3smT-KP6B-69" value="StoreID" style="ellipse;whiteSpace=wrap;html=1;fillColor=#D5E8D4;" parent="1" vertex="1">
          <mxGeometry x="20" y="280" width="100" height="50" as="geometry" />
        </mxCell>
        <mxCell id="DzM86ADXMEr3smT-KP6B-70" value="StoreID" style="ellipse;whiteSpace=wrap;html=1;fillColor=#D5E8D4;" parent="1" vertex="1">
          <mxGeometry x="140" y="280" width="100" height="50" as="geometry" />
        </mxCell>
        <mxCell id="DzM86ADXMEr3smT-KP6B-71" value="" style="endArrow=none;html=1;rounded=0;exitX=0.5;exitY=0;exitDx=0;exitDy=0;entryX=0.5;entryY=1;entryDx=0;entryDy=0;" parent="1" source="DzM86ADXMEr3smT-KP6B-1" target="DzM86ADXMEr3smT-KP6B-59" edge="1">
          <mxGeometry width="50" height="50" relative="1" as="geometry">
            <mxPoint x="115" y="39.289321881345245" as="sourcePoint" />
            <mxPoint x="115" y="-10.710678118654755" as="targetPoint" />
          </mxGeometry>
        </mxCell>
        <mxCell id="DzM86ADXMEr3smT-KP6B-72" value="" style="endArrow=none;html=1;rounded=0;exitX=0.5;exitY=1;exitDx=0;exitDy=0;entryX=0.5;entryY=0;entryDx=0;entryDy=0;" parent="1" source="DzM86ADXMEr3smT-KP6B-58" target="DzM86ADXMEr3smT-KP6B-1" edge="1">
          <mxGeometry width="50" height="50" relative="1" as="geometry">
            <mxPoint x="125" y="70" as="sourcePoint" />
            <mxPoint x="60" y="30" as="targetPoint" />
          </mxGeometry>
        </mxCell>
        <mxCell id="DzM86ADXMEr3smT-KP6B-73" value="" style="endArrow=none;html=1;rounded=0;exitX=0.5;exitY=1;exitDx=0;exitDy=0;entryX=0.5;entryY=0;entryDx=0;entryDy=0;" parent="1" source="DzM86ADXMEr3smT-KP6B-57" target="DzM86ADXMEr3smT-KP6B-1" edge="1">
          <mxGeometry width="50" height="50" relative="1" as="geometry">
            <mxPoint x="170" y="-20" as="sourcePoint" />
            <mxPoint x="125" y="70" as="targetPoint" />
          </mxGeometry>
        </mxCell>
        <mxCell id="DzM86ADXMEr3smT-KP6B-74" value="" style="endArrow=none;html=1;rounded=0;exitX=0.5;exitY=1;exitDx=0;exitDy=0;entryX=0.5;entryY=0;entryDx=0;entryDy=0;" parent="1" source="DzM86ADXMEr3smT-KP6B-66" target="DzM86ADXMEr3smT-KP6B-58" edge="1">
          <mxGeometry width="50" height="50" relative="1" as="geometry">
            <mxPoint x="280" y="30" as="sourcePoint" />
            <mxPoint x="125" y="70" as="targetPoint" />
          </mxGeometry>
        </mxCell>
        <mxCell id="DzM86ADXMEr3smT-KP6B-75" value="" style="endArrow=none;html=1;rounded=0;exitX=0.59;exitY=0.04;exitDx=0;exitDy=0;entryX=0.5;entryY=1;entryDx=0;entryDy=0;exitPerimeter=0;" parent="1" source="DzM86ADXMEr3smT-KP6B-58" target="DzM86ADXMEr3smT-KP6B-67" edge="1">
          <mxGeometry width="50" height="50" relative="1" as="geometry">
            <mxPoint x="125" y="-110" as="sourcePoint" />
            <mxPoint x="170" y="-70" as="targetPoint" />
          </mxGeometry>
        </mxCell>
        <mxCell id="DzM86ADXMEr3smT-KP6B-76" value="" style="endArrow=none;html=1;rounded=0;exitX=0.5;exitY=1;exitDx=0;exitDy=0;entryX=0.5;entryY=0;entryDx=0;entryDy=0;" parent="1" source="DzM86ADXMEr3smT-KP6B-1" target="DzM86ADXMEr3smT-KP6B-68" edge="1">
          <mxGeometry width="50" height="50" relative="1" as="geometry">
            <mxPoint x="75" y="370" as="sourcePoint" />
            <mxPoint x="120" y="410" as="targetPoint" />
          </mxGeometry>
        </mxCell>
        <mxCell id="DzM86ADXMEr3smT-KP6B-78" value="" style="endArrow=none;html=1;rounded=0;exitX=0.5;exitY=1;exitDx=0;exitDy=0;entryX=0.5;entryY=0;entryDx=0;entryDy=0;" parent="1" source="DzM86ADXMEr3smT-KP6B-68" target="DzM86ADXMEr3smT-KP6B-70" edge="1">
          <mxGeometry width="50" height="50" relative="1" as="geometry">
            <mxPoint x="125" y="160" as="sourcePoint" />
            <mxPoint x="130" y="220" as="targetPoint" />
          </mxGeometry>
        </mxCell>
        <mxCell id="DzM86ADXMEr3smT-KP6B-79" value="" style="endArrow=none;html=1;rounded=0;exitX=0.5;exitY=1;exitDx=0;exitDy=0;entryX=0.5;entryY=0;entryDx=0;entryDy=0;" parent="1" source="DzM86ADXMEr3smT-KP6B-68" target="DzM86ADXMEr3smT-KP6B-69" edge="1">
          <mxGeometry width="50" height="50" relative="1" as="geometry">
            <mxPoint x="130" y="270" as="sourcePoint" />
            <mxPoint x="200" y="290" as="targetPoint" />
          </mxGeometry>
        </mxCell>
        <mxCell id="DzM86ADXMEr3smT-KP6B-80" value="" style="endArrow=none;html=1;rounded=0;entryX=1;entryY=0.5;entryDx=0;entryDy=0;exitX=0;exitY=0.5;exitDx=0;exitDy=0;" parent="1" source="DzM86ADXMEr3smT-KP6B-62" target="DzM86ADXMEr3smT-KP6B-24" edge="1">
          <mxGeometry width="50" height="50" relative="1" as="geometry">
            <mxPoint x="610" y="295" as="sourcePoint" />
            <mxPoint x="680" y="315" as="targetPoint" />
          </mxGeometry>
        </mxCell>
        <mxCell id="DzM86ADXMEr3smT-KP6B-81" value="" style="endArrow=none;html=1;rounded=0;entryX=1;entryY=0.5;entryDx=0;entryDy=0;exitX=0.02;exitY=0.32;exitDx=0;exitDy=0;exitPerimeter=0;" parent="1" source="DzM86ADXMEr3smT-KP6B-63" target="DzM86ADXMEr3smT-KP6B-24" edge="1">
          <mxGeometry width="50" height="50" relative="1" as="geometry">
            <mxPoint x="480" y="315" as="sourcePoint" />
            <mxPoint x="440" y="345" as="targetPoint" />
          </mxGeometry>
        </mxCell>
        <mxCell id="DzM86ADXMEr3smT-KP6B-82" value="" style="endArrow=none;html=1;rounded=0;entryX=0.5;entryY=0;entryDx=0;entryDy=0;exitX=0.5;exitY=1;exitDx=0;exitDy=0;" parent="1" source="DzM86ADXMEr3smT-KP6B-61" target="DzM86ADXMEr3smT-KP6B-22" edge="1">
          <mxGeometry width="50" height="50" relative="1" as="geometry">
            <mxPoint x="690" y="40" as="sourcePoint" />
            <mxPoint x="650" y="70" as="targetPoint" />
          </mxGeometry>
        </mxCell>
        <mxCell id="DzM86ADXMEr3smT-KP6B-83" value="" style="endArrow=none;html=1;rounded=0;entryX=0.5;entryY=0;entryDx=0;entryDy=0;exitX=0.5;exitY=1;exitDx=0;exitDy=0;" parent="1" source="DzM86ADXMEr3smT-KP6B-60" target="DzM86ADXMEr3smT-KP6B-22" edge="1">
          <mxGeometry width="50" height="50" relative="1" as="geometry">
            <mxPoint x="760" y="10" as="sourcePoint" />
            <mxPoint x="675" y="80" as="targetPoint" />
          </mxGeometry>
        </mxCell>
        <mxCell id="DzM86ADXMEr3smT-KP6B-84" value="" style="endArrow=none;html=1;rounded=0;exitX=0.5;exitY=1;exitDx=0;exitDy=0;entryX=0.5;entryY=0;entryDx=0;entryDy=0;" parent="1" source="DzM86ADXMEr3smT-KP6B-25" target="DzM86ADXMEr3smT-KP6B-64" edge="1">
          <mxGeometry width="50" height="50" relative="1" as="geometry">
            <mxPoint x="555" y="540" as="sourcePoint" />
            <mxPoint x="450" y="620" as="targetPoint" />
          </mxGeometry>
        </mxCell>
        <mxCell id="DzM86ADXMEr3smT-KP6B-85" value="" style="endArrow=none;html=1;rounded=0;exitX=0.5;exitY=1;exitDx=0;exitDy=0;entryX=0.5;entryY=0;entryDx=0;entryDy=0;" parent="1" source="DzM86ADXMEr3smT-KP6B-25" target="DzM86ADXMEr3smT-KP6B-65" edge="1">
          <mxGeometry width="50" height="50" relative="1" as="geometry">
            <mxPoint x="395" y="610" as="sourcePoint" />
            <mxPoint x="450" y="640" as="targetPoint" />
          </mxGeometry>
        </mxCell>
        <mxCell id="DzM86ADXMEr3smT-KP6B-86" value="OrderId" style="ellipse;whiteSpace=wrap;html=1;fillColor=#D5E8D4;" parent="1" vertex="1">
          <mxGeometry x="335" y="-20" width="100" height="50" as="geometry" />
        </mxCell>
        <mxCell id="DzM86ADXMEr3smT-KP6B-87" value="OrderDate" style="ellipse;whiteSpace=wrap;html=1;fillColor=#D5E8D4;" parent="1" vertex="1">
          <mxGeometry x="440" y="-20" width="100" height="50" as="geometry" />
        </mxCell>
        <mxCell id="DzM86ADXMEr3smT-KP6B-88" value="" style="endArrow=none;html=1;rounded=0;entryX=0.5;entryY=0;entryDx=0;entryDy=0;exitX=0.5;exitY=1;exitDx=0;exitDy=0;" parent="1" source="DzM86ADXMEr3smT-KP6B-86" target="DzM86ADXMEr3smT-KP6B-23" edge="1">
          <mxGeometry width="50" height="50" relative="1" as="geometry">
            <mxPoint x="417.5" y="10" as="sourcePoint" />
            <mxPoint x="462.5" y="90" as="targetPoint" />
          </mxGeometry>
        </mxCell>
        <mxCell id="DzM86ADXMEr3smT-KP6B-90" value="" style="endArrow=none;html=1;rounded=0;entryX=0.5;entryY=0;entryDx=0;entryDy=0;exitX=0.5;exitY=1;exitDx=0;exitDy=0;" parent="1" source="DzM86ADXMEr3smT-KP6B-87" target="DzM86ADXMEr3smT-KP6B-23" edge="1">
          <mxGeometry width="50" height="50" relative="1" as="geometry">
            <mxPoint x="395" y="40" as="sourcePoint" />
            <mxPoint x="395" y="80" as="targetPoint" />
          </mxGeometry>
        </mxCell>
      </root>
    </mxGraphModel>
  </diagram>
  <diagram name="3NF" id="uwDpcqIO3_95Chy8BVyL">
    <mxGraphModel dx="1050" dy="534" grid="1" gridSize="10" guides="1" tooltips="1" connect="1" arrows="1" fold="1" page="1" pageScale="1" pageWidth="827" pageHeight="1169" math="0" shadow="0">
      <root>
        <mxCell id="j6H9N_P0zfszmaV8D0wm-0" />
        <mxCell id="j6H9N_P0zfszmaV8D0wm-1" parent="j6H9N_P0zfszmaV8D0wm-0" />
        <mxCell id="j6H9N_P0zfszmaV8D0wm-2" value="Customer" style="shape=table;startSize=30;container=1;collapsible=1;childLayout=tableLayout;fixedRows=1;rowLines=0;fontStyle=1;align=center;resizeLast=1;fillColor=#D5E8D4;" parent="j6H9N_P0zfszmaV8D0wm-1" vertex="1">
          <mxGeometry x="50" y="70" width="180" height="180" as="geometry" />
        </mxCell>
        <mxCell id="j6H9N_P0zfszmaV8D0wm-3" value="" style="shape=tableRow;horizontal=0;startSize=0;swimlaneHead=0;swimlaneBody=0;fillColor=none;collapsible=0;dropTarget=0;points=[[0,0.5],[1,0.5]];portConstraint=eastwest;top=0;left=0;right=0;bottom=1;" parent="j6H9N_P0zfszmaV8D0wm-2" vertex="1">
          <mxGeometry y="30" width="180" height="30" as="geometry" />
        </mxCell>
        <mxCell id="j6H9N_P0zfszmaV8D0wm-4" value="PK" style="shape=partialRectangle;connectable=0;fillColor=none;top=0;left=0;bottom=0;right=0;fontStyle=1;overflow=hidden;" parent="j6H9N_P0zfszmaV8D0wm-3" vertex="1">
          <mxGeometry width="30" height="30" as="geometry">
            <mxRectangle width="30" height="30" as="alternateBounds" />
          </mxGeometry>
        </mxCell>
        <mxCell id="j6H9N_P0zfszmaV8D0wm-5" value="Customer_ID" style="shape=partialRectangle;connectable=0;fillColor=none;top=0;left=0;bottom=0;right=0;align=left;spacingLeft=6;fontStyle=5;overflow=hidden;" parent="j6H9N_P0zfszmaV8D0wm-3" vertex="1">
          <mxGeometry x="30" width="150" height="30" as="geometry">
            <mxRectangle width="150" height="30" as="alternateBounds" />
          </mxGeometry>
        </mxCell>
        <mxCell id="j6H9N_P0zfszmaV8D0wm-6" value="" style="shape=tableRow;horizontal=0;startSize=0;swimlaneHead=0;swimlaneBody=0;fillColor=none;collapsible=0;dropTarget=0;points=[[0,0.5],[1,0.5]];portConstraint=eastwest;top=0;left=0;right=0;bottom=0;" parent="j6H9N_P0zfszmaV8D0wm-2" vertex="1">
          <mxGeometry y="60" width="180" height="30" as="geometry" />
        </mxCell>
        <mxCell id="j6H9N_P0zfszmaV8D0wm-7" value="" style="shape=partialRectangle;connectable=0;fillColor=none;top=0;left=0;bottom=0;right=0;editable=1;overflow=hidden;" parent="j6H9N_P0zfszmaV8D0wm-6" vertex="1">
          <mxGeometry width="30" height="30" as="geometry">
            <mxRectangle width="30" height="30" as="alternateBounds" />
          </mxGeometry>
        </mxCell>
        <mxCell id="j6H9N_P0zfszmaV8D0wm-8" value="First_Name" style="shape=partialRectangle;connectable=0;fillColor=none;top=0;left=0;bottom=0;right=0;align=left;spacingLeft=6;overflow=hidden;" parent="j6H9N_P0zfszmaV8D0wm-6" vertex="1">
          <mxGeometry x="30" width="150" height="30" as="geometry">
            <mxRectangle width="150" height="30" as="alternateBounds" />
          </mxGeometry>
        </mxCell>
        <mxCell id="j6H9N_P0zfszmaV8D0wm-9" value="" style="shape=tableRow;horizontal=0;startSize=0;swimlaneHead=0;swimlaneBody=0;fillColor=none;collapsible=0;dropTarget=0;points=[[0,0.5],[1,0.5]];portConstraint=eastwest;top=0;left=0;right=0;bottom=0;" parent="j6H9N_P0zfszmaV8D0wm-2" vertex="1">
          <mxGeometry y="90" width="180" height="30" as="geometry" />
        </mxCell>
        <mxCell id="j6H9N_P0zfszmaV8D0wm-10" value="" style="shape=partialRectangle;connectable=0;fillColor=none;top=0;left=0;bottom=0;right=0;editable=1;overflow=hidden;" parent="j6H9N_P0zfszmaV8D0wm-9" vertex="1">
          <mxGeometry width="30" height="30" as="geometry">
            <mxRectangle width="30" height="30" as="alternateBounds" />
          </mxGeometry>
        </mxCell>
        <mxCell id="j6H9N_P0zfszmaV8D0wm-11" value="Last_Name" style="shape=partialRectangle;connectable=0;fillColor=none;top=0;left=0;bottom=0;right=0;align=left;spacingLeft=6;overflow=hidden;" parent="j6H9N_P0zfszmaV8D0wm-9" vertex="1">
          <mxGeometry x="30" width="150" height="30" as="geometry">
            <mxRectangle width="150" height="30" as="alternateBounds" />
          </mxGeometry>
        </mxCell>
        <mxCell id="j6H9N_P0zfszmaV8D0wm-12" style="shape=tableRow;horizontal=0;startSize=0;swimlaneHead=0;swimlaneBody=0;fillColor=none;collapsible=0;dropTarget=0;points=[[0,0.5],[1,0.5]];portConstraint=eastwest;top=0;left=0;right=0;bottom=0;" parent="j6H9N_P0zfszmaV8D0wm-2" vertex="1">
          <mxGeometry y="120" width="180" height="30" as="geometry" />
        </mxCell>
        <mxCell id="j6H9N_P0zfszmaV8D0wm-13" style="shape=partialRectangle;connectable=0;fillColor=none;top=0;left=0;bottom=0;right=0;editable=1;overflow=hidden;" parent="j6H9N_P0zfszmaV8D0wm-12" vertex="1">
          <mxGeometry width="30" height="30" as="geometry">
            <mxRectangle width="30" height="30" as="alternateBounds" />
          </mxGeometry>
        </mxCell>
        <mxCell id="j6H9N_P0zfszmaV8D0wm-14" value="Email" style="shape=partialRectangle;connectable=0;fillColor=none;top=0;left=0;bottom=0;right=0;align=left;spacingLeft=6;overflow=hidden;" parent="j6H9N_P0zfszmaV8D0wm-12" vertex="1">
          <mxGeometry x="30" width="150" height="30" as="geometry">
            <mxRectangle width="150" height="30" as="alternateBounds" />
          </mxGeometry>
        </mxCell>
        <mxCell id="WMtKu51X-b9GjpP5P0ar-14" style="shape=tableRow;horizontal=0;startSize=0;swimlaneHead=0;swimlaneBody=0;fillColor=none;collapsible=0;dropTarget=0;points=[[0,0.5],[1,0.5]];portConstraint=eastwest;top=0;left=0;right=0;bottom=0;" parent="j6H9N_P0zfszmaV8D0wm-2" vertex="1">
          <mxGeometry y="150" width="180" height="30" as="geometry" />
        </mxCell>
        <mxCell id="WMtKu51X-b9GjpP5P0ar-15" value="FK" style="shape=partialRectangle;connectable=0;fillColor=none;top=0;left=0;bottom=0;right=0;editable=1;overflow=hidden;" parent="WMtKu51X-b9GjpP5P0ar-14" vertex="1">
          <mxGeometry width="30" height="30" as="geometry">
            <mxRectangle width="30" height="30" as="alternateBounds" />
          </mxGeometry>
        </mxCell>
        <mxCell id="WMtKu51X-b9GjpP5P0ar-16" value="Postal_Code" style="shape=partialRectangle;connectable=0;fillColor=none;top=0;left=0;bottom=0;right=0;align=left;spacingLeft=6;overflow=hidden;" parent="WMtKu51X-b9GjpP5P0ar-14" vertex="1">
          <mxGeometry x="30" width="150" height="30" as="geometry">
            <mxRectangle width="150" height="30" as="alternateBounds" />
          </mxGeometry>
        </mxCell>
        <mxCell id="j6H9N_P0zfszmaV8D0wm-21" value="Store" style="shape=table;startSize=30;container=1;collapsible=1;childLayout=tableLayout;fixedRows=1;rowLines=0;fontStyle=1;align=center;resizeLast=1;fillColor=#D5E8D4;" parent="j6H9N_P0zfszmaV8D0wm-1" vertex="1">
          <mxGeometry x="600" y="70" width="180" height="90" as="geometry" />
        </mxCell>
        <mxCell id="j6H9N_P0zfszmaV8D0wm-22" value="" style="shape=tableRow;horizontal=0;startSize=0;swimlaneHead=0;swimlaneBody=0;fillColor=none;collapsible=0;dropTarget=0;points=[[0,0.5],[1,0.5]];portConstraint=eastwest;top=0;left=0;right=0;bottom=1;" parent="j6H9N_P0zfszmaV8D0wm-21" vertex="1">
          <mxGeometry y="30" width="180" height="30" as="geometry" />
        </mxCell>
        <mxCell id="j6H9N_P0zfszmaV8D0wm-23" value="PK" style="shape=partialRectangle;connectable=0;fillColor=none;top=0;left=0;bottom=0;right=0;fontStyle=1;overflow=hidden;" parent="j6H9N_P0zfszmaV8D0wm-22" vertex="1">
          <mxGeometry width="30" height="30" as="geometry">
            <mxRectangle width="30" height="30" as="alternateBounds" />
          </mxGeometry>
        </mxCell>
        <mxCell id="j6H9N_P0zfszmaV8D0wm-24" value="Store_ID" style="shape=partialRectangle;connectable=0;fillColor=none;top=0;left=0;bottom=0;right=0;align=left;spacingLeft=6;fontStyle=5;overflow=hidden;" parent="j6H9N_P0zfszmaV8D0wm-22" vertex="1">
          <mxGeometry x="30" width="150" height="30" as="geometry">
            <mxRectangle width="150" height="30" as="alternateBounds" />
          </mxGeometry>
        </mxCell>
        <mxCell id="j6H9N_P0zfszmaV8D0wm-25" value="" style="shape=tableRow;horizontal=0;startSize=0;swimlaneHead=0;swimlaneBody=0;fillColor=none;collapsible=0;dropTarget=0;points=[[0,0.5],[1,0.5]];portConstraint=eastwest;top=0;left=0;right=0;bottom=0;" parent="j6H9N_P0zfszmaV8D0wm-21" vertex="1">
          <mxGeometry y="60" width="180" height="30" as="geometry" />
        </mxCell>
        <mxCell id="j6H9N_P0zfszmaV8D0wm-26" value="" style="shape=partialRectangle;connectable=0;fillColor=none;top=0;left=0;bottom=0;right=0;editable=1;overflow=hidden;" parent="j6H9N_P0zfszmaV8D0wm-25" vertex="1">
          <mxGeometry width="30" height="30" as="geometry">
            <mxRectangle width="30" height="30" as="alternateBounds" />
          </mxGeometry>
        </mxCell>
        <mxCell id="j6H9N_P0zfszmaV8D0wm-27" value="Store_Name" style="shape=partialRectangle;connectable=0;fillColor=none;top=0;left=0;bottom=0;right=0;align=left;spacingLeft=6;overflow=hidden;" parent="j6H9N_P0zfszmaV8D0wm-25" vertex="1">
          <mxGeometry x="30" width="150" height="30" as="geometry">
            <mxRectangle width="150" height="30" as="alternateBounds" />
          </mxGeometry>
        </mxCell>
        <mxCell id="j6H9N_P0zfszmaV8D0wm-28" value="Product" style="shape=table;startSize=30;container=1;collapsible=1;childLayout=tableLayout;fixedRows=1;rowLines=0;fontStyle=1;align=center;resizeLast=1;fillColor=#D5E8D4;" parent="j6H9N_P0zfszmaV8D0wm-1" vertex="1">
          <mxGeometry x="340" y="540" width="180" height="120" as="geometry" />
        </mxCell>
        <mxCell id="j6H9N_P0zfszmaV8D0wm-29" value="" style="shape=tableRow;horizontal=0;startSize=0;swimlaneHead=0;swimlaneBody=0;fillColor=none;collapsible=0;dropTarget=0;points=[[0,0.5],[1,0.5]];portConstraint=eastwest;top=0;left=0;right=0;bottom=1;" parent="j6H9N_P0zfszmaV8D0wm-28" vertex="1">
          <mxGeometry y="30" width="180" height="30" as="geometry" />
        </mxCell>
        <mxCell id="j6H9N_P0zfszmaV8D0wm-30" value="PK" style="shape=partialRectangle;connectable=0;fillColor=none;top=0;left=0;bottom=0;right=0;fontStyle=1;overflow=hidden;" parent="j6H9N_P0zfszmaV8D0wm-29" vertex="1">
          <mxGeometry width="30" height="30" as="geometry">
            <mxRectangle width="30" height="30" as="alternateBounds" />
          </mxGeometry>
        </mxCell>
        <mxCell id="j6H9N_P0zfszmaV8D0wm-31" value="Product_ID" style="shape=partialRectangle;connectable=0;fillColor=none;top=0;left=0;bottom=0;right=0;align=left;spacingLeft=6;fontStyle=5;overflow=hidden;" parent="j6H9N_P0zfszmaV8D0wm-29" vertex="1">
          <mxGeometry x="30" width="150" height="30" as="geometry">
            <mxRectangle width="150" height="30" as="alternateBounds" />
          </mxGeometry>
        </mxCell>
        <mxCell id="j6H9N_P0zfszmaV8D0wm-32" value="" style="shape=tableRow;horizontal=0;startSize=0;swimlaneHead=0;swimlaneBody=0;fillColor=none;collapsible=0;dropTarget=0;points=[[0,0.5],[1,0.5]];portConstraint=eastwest;top=0;left=0;right=0;bottom=0;" parent="j6H9N_P0zfszmaV8D0wm-28" vertex="1">
          <mxGeometry y="60" width="180" height="30" as="geometry" />
        </mxCell>
        <mxCell id="j6H9N_P0zfszmaV8D0wm-33" value="" style="shape=partialRectangle;connectable=0;fillColor=none;top=0;left=0;bottom=0;right=0;editable=1;overflow=hidden;" parent="j6H9N_P0zfszmaV8D0wm-32" vertex="1">
          <mxGeometry width="30" height="30" as="geometry">
            <mxRectangle width="30" height="30" as="alternateBounds" />
          </mxGeometry>
        </mxCell>
        <mxCell id="j6H9N_P0zfszmaV8D0wm-34" value="Product_Name" style="shape=partialRectangle;connectable=0;fillColor=none;top=0;left=0;bottom=0;right=0;align=left;spacingLeft=6;overflow=hidden;" parent="j6H9N_P0zfszmaV8D0wm-32" vertex="1">
          <mxGeometry x="30" width="150" height="30" as="geometry">
            <mxRectangle width="150" height="30" as="alternateBounds" />
          </mxGeometry>
        </mxCell>
        <mxCell id="j6H9N_P0zfszmaV8D0wm-35" style="shape=tableRow;horizontal=0;startSize=0;swimlaneHead=0;swimlaneBody=0;fillColor=none;collapsible=0;dropTarget=0;points=[[0,0.5],[1,0.5]];portConstraint=eastwest;top=0;left=0;right=0;bottom=0;" parent="j6H9N_P0zfszmaV8D0wm-28" vertex="1">
          <mxGeometry y="90" width="180" height="30" as="geometry" />
        </mxCell>
        <mxCell id="j6H9N_P0zfszmaV8D0wm-36" value="FK" style="shape=partialRectangle;connectable=0;fillColor=none;top=0;left=0;bottom=0;right=0;editable=1;overflow=hidden;" parent="j6H9N_P0zfszmaV8D0wm-35" vertex="1">
          <mxGeometry width="30" height="30" as="geometry">
            <mxRectangle width="30" height="30" as="alternateBounds" />
          </mxGeometry>
        </mxCell>
        <mxCell id="j6H9N_P0zfszmaV8D0wm-37" value="Category_ID" style="shape=partialRectangle;connectable=0;fillColor=none;top=0;left=0;bottom=0;right=0;align=left;spacingLeft=6;overflow=hidden;" parent="j6H9N_P0zfszmaV8D0wm-35" vertex="1">
          <mxGeometry x="30" width="150" height="30" as="geometry">
            <mxRectangle width="150" height="30" as="alternateBounds" />
          </mxGeometry>
        </mxCell>
        <mxCell id="j6H9N_P0zfszmaV8D0wm-38" value="Category" style="shape=table;startSize=30;container=1;collapsible=1;childLayout=tableLayout;fixedRows=1;rowLines=0;fontStyle=1;align=center;resizeLast=1;fillColor=#D5E8D4;" parent="j6H9N_P0zfszmaV8D0wm-1" vertex="1">
          <mxGeometry x="60" y="580" width="180" height="90" as="geometry" />
        </mxCell>
        <mxCell id="j6H9N_P0zfszmaV8D0wm-39" value="" style="shape=tableRow;horizontal=0;startSize=0;swimlaneHead=0;swimlaneBody=0;fillColor=none;collapsible=0;dropTarget=0;points=[[0,0.5],[1,0.5]];portConstraint=eastwest;top=0;left=0;right=0;bottom=1;" parent="j6H9N_P0zfszmaV8D0wm-38" vertex="1">
          <mxGeometry y="30" width="180" height="30" as="geometry" />
        </mxCell>
        <mxCell id="j6H9N_P0zfszmaV8D0wm-40" value="PK" style="shape=partialRectangle;connectable=0;fillColor=none;top=0;left=0;bottom=0;right=0;fontStyle=1;overflow=hidden;" parent="j6H9N_P0zfszmaV8D0wm-39" vertex="1">
          <mxGeometry width="30" height="30" as="geometry">
            <mxRectangle width="30" height="30" as="alternateBounds" />
          </mxGeometry>
        </mxCell>
        <mxCell id="j6H9N_P0zfszmaV8D0wm-41" value="Category_ID" style="shape=partialRectangle;connectable=0;fillColor=none;top=0;left=0;bottom=0;right=0;align=left;spacingLeft=6;fontStyle=5;overflow=hidden;" parent="j6H9N_P0zfszmaV8D0wm-39" vertex="1">
          <mxGeometry x="30" width="150" height="30" as="geometry">
            <mxRectangle width="150" height="30" as="alternateBounds" />
          </mxGeometry>
        </mxCell>
        <mxCell id="j6H9N_P0zfszmaV8D0wm-42" value="" style="shape=tableRow;horizontal=0;startSize=0;swimlaneHead=0;swimlaneBody=0;fillColor=none;collapsible=0;dropTarget=0;points=[[0,0.5],[1,0.5]];portConstraint=eastwest;top=0;left=0;right=0;bottom=0;" parent="j6H9N_P0zfszmaV8D0wm-38" vertex="1">
          <mxGeometry y="60" width="180" height="30" as="geometry" />
        </mxCell>
        <mxCell id="j6H9N_P0zfszmaV8D0wm-43" value="" style="shape=partialRectangle;connectable=0;fillColor=none;top=0;left=0;bottom=0;right=0;editable=1;overflow=hidden;" parent="j6H9N_P0zfszmaV8D0wm-42" vertex="1">
          <mxGeometry width="30" height="30" as="geometry">
            <mxRectangle width="30" height="30" as="alternateBounds" />
          </mxGeometry>
        </mxCell>
        <mxCell id="j6H9N_P0zfszmaV8D0wm-44" value="Category_Name" style="shape=partialRectangle;connectable=0;fillColor=none;top=0;left=0;bottom=0;right=0;align=left;spacingLeft=6;overflow=hidden;" parent="j6H9N_P0zfszmaV8D0wm-42" vertex="1">
          <mxGeometry x="30" width="150" height="30" as="geometry">
            <mxRectangle width="150" height="30" as="alternateBounds" />
          </mxGeometry>
        </mxCell>
        <mxCell id="j6H9N_P0zfszmaV8D0wm-45" value="Order" style="shape=table;startSize=30;container=1;collapsible=1;childLayout=tableLayout;fixedRows=1;rowLines=0;fontStyle=1;align=center;resizeLast=1;fillColor=#D5E8D4;" parent="j6H9N_P0zfszmaV8D0wm-1" vertex="1">
          <mxGeometry x="340" y="70" width="180" height="150" as="geometry" />
        </mxCell>
        <mxCell id="j6H9N_P0zfszmaV8D0wm-46" value="" style="shape=tableRow;horizontal=0;startSize=0;swimlaneHead=0;swimlaneBody=0;fillColor=none;collapsible=0;dropTarget=0;points=[[0,0.5],[1,0.5]];portConstraint=eastwest;top=0;left=0;right=0;bottom=1;" parent="j6H9N_P0zfszmaV8D0wm-45" vertex="1">
          <mxGeometry y="30" width="180" height="30" as="geometry" />
        </mxCell>
        <mxCell id="j6H9N_P0zfszmaV8D0wm-47" value="PK" style="shape=partialRectangle;connectable=0;fillColor=none;top=0;left=0;bottom=0;right=0;fontStyle=1;overflow=hidden;" parent="j6H9N_P0zfszmaV8D0wm-46" vertex="1">
          <mxGeometry width="30" height="30" as="geometry">
            <mxRectangle width="30" height="30" as="alternateBounds" />
          </mxGeometry>
        </mxCell>
        <mxCell id="j6H9N_P0zfszmaV8D0wm-48" value="Order_ID" style="shape=partialRectangle;connectable=0;fillColor=none;top=0;left=0;bottom=0;right=0;align=left;spacingLeft=6;fontStyle=5;overflow=hidden;" parent="j6H9N_P0zfszmaV8D0wm-46" vertex="1">
          <mxGeometry x="30" width="150" height="30" as="geometry">
            <mxRectangle width="150" height="30" as="alternateBounds" />
          </mxGeometry>
        </mxCell>
        <mxCell id="j6H9N_P0zfszmaV8D0wm-49" value="" style="shape=tableRow;horizontal=0;startSize=0;swimlaneHead=0;swimlaneBody=0;fillColor=none;collapsible=0;dropTarget=0;points=[[0,0.5],[1,0.5]];portConstraint=eastwest;top=0;left=0;right=0;bottom=0;" parent="j6H9N_P0zfszmaV8D0wm-45" vertex="1">
          <mxGeometry y="60" width="180" height="30" as="geometry" />
        </mxCell>
        <mxCell id="j6H9N_P0zfszmaV8D0wm-50" value="" style="shape=partialRectangle;connectable=0;fillColor=none;top=0;left=0;bottom=0;right=0;editable=1;overflow=hidden;" parent="j6H9N_P0zfszmaV8D0wm-49" vertex="1">
          <mxGeometry width="30" height="30" as="geometry">
            <mxRectangle width="30" height="30" as="alternateBounds" />
          </mxGeometry>
        </mxCell>
        <mxCell id="j6H9N_P0zfszmaV8D0wm-51" value="Order_Date" style="shape=partialRectangle;connectable=0;fillColor=none;top=0;left=0;bottom=0;right=0;align=left;spacingLeft=6;overflow=hidden;" parent="j6H9N_P0zfszmaV8D0wm-49" vertex="1">
          <mxGeometry x="30" width="150" height="30" as="geometry">
            <mxRectangle width="150" height="30" as="alternateBounds" />
          </mxGeometry>
        </mxCell>
        <mxCell id="j6H9N_P0zfszmaV8D0wm-52" style="shape=tableRow;horizontal=0;startSize=0;swimlaneHead=0;swimlaneBody=0;fillColor=none;collapsible=0;dropTarget=0;points=[[0,0.5],[1,0.5]];portConstraint=eastwest;top=0;left=0;right=0;bottom=0;" parent="j6H9N_P0zfszmaV8D0wm-45" vertex="1">
          <mxGeometry y="90" width="180" height="30" as="geometry" />
        </mxCell>
        <mxCell id="j6H9N_P0zfszmaV8D0wm-53" value="FK" style="shape=partialRectangle;connectable=0;fillColor=none;top=0;left=0;bottom=0;right=0;editable=1;overflow=hidden;" parent="j6H9N_P0zfszmaV8D0wm-52" vertex="1">
          <mxGeometry width="30" height="30" as="geometry">
            <mxRectangle width="30" height="30" as="alternateBounds" />
          </mxGeometry>
        </mxCell>
        <mxCell id="j6H9N_P0zfszmaV8D0wm-54" value="Customer_ID" style="shape=partialRectangle;connectable=0;fillColor=none;top=0;left=0;bottom=0;right=0;align=left;spacingLeft=6;overflow=hidden;" parent="j6H9N_P0zfszmaV8D0wm-52" vertex="1">
          <mxGeometry x="30" width="150" height="30" as="geometry">
            <mxRectangle width="150" height="30" as="alternateBounds" />
          </mxGeometry>
        </mxCell>
        <mxCell id="j6H9N_P0zfszmaV8D0wm-55" style="shape=tableRow;horizontal=0;startSize=0;swimlaneHead=0;swimlaneBody=0;fillColor=none;collapsible=0;dropTarget=0;points=[[0,0.5],[1,0.5]];portConstraint=eastwest;top=0;left=0;right=0;bottom=0;" parent="j6H9N_P0zfszmaV8D0wm-45" vertex="1">
          <mxGeometry y="120" width="180" height="30" as="geometry" />
        </mxCell>
        <mxCell id="j6H9N_P0zfszmaV8D0wm-56" value="FK" style="shape=partialRectangle;connectable=0;fillColor=none;top=0;left=0;bottom=0;right=0;editable=1;overflow=hidden;" parent="j6H9N_P0zfszmaV8D0wm-55" vertex="1">
          <mxGeometry width="30" height="30" as="geometry">
            <mxRectangle width="30" height="30" as="alternateBounds" />
          </mxGeometry>
        </mxCell>
        <mxCell id="j6H9N_P0zfszmaV8D0wm-57" value="Store_ID" style="shape=partialRectangle;connectable=0;fillColor=none;top=0;left=0;bottom=0;right=0;align=left;spacingLeft=6;overflow=hidden;" parent="j6H9N_P0zfszmaV8D0wm-55" vertex="1">
          <mxGeometry x="30" width="150" height="30" as="geometry">
            <mxRectangle width="150" height="30" as="alternateBounds" />
          </mxGeometry>
        </mxCell>
        <mxCell id="j6H9N_P0zfszmaV8D0wm-58" value="Order_Detail" style="shape=table;startSize=30;container=1;collapsible=1;childLayout=tableLayout;fixedRows=1;rowLines=0;fontStyle=1;align=center;resizeLast=1;fillColor=#D5E8D4;" parent="j6H9N_P0zfszmaV8D0wm-1" vertex="1">
          <mxGeometry x="336" y="280" width="180" height="180" as="geometry" />
        </mxCell>
        <mxCell id="j6H9N_P0zfszmaV8D0wm-59" value="" style="shape=tableRow;horizontal=0;startSize=0;swimlaneHead=0;swimlaneBody=0;fillColor=none;collapsible=0;dropTarget=0;points=[[0,0.5],[1,0.5]];portConstraint=eastwest;top=0;left=0;right=0;bottom=1;" parent="j6H9N_P0zfszmaV8D0wm-58" vertex="1">
          <mxGeometry y="30" width="180" height="30" as="geometry" />
        </mxCell>
        <mxCell id="j6H9N_P0zfszmaV8D0wm-60" value="PK" style="shape=partialRectangle;connectable=0;fillColor=none;top=0;left=0;bottom=0;right=0;fontStyle=1;overflow=hidden;" parent="j6H9N_P0zfszmaV8D0wm-59" vertex="1">
          <mxGeometry width="30" height="30" as="geometry">
            <mxRectangle width="30" height="30" as="alternateBounds" />
          </mxGeometry>
        </mxCell>
        <mxCell id="j6H9N_P0zfszmaV8D0wm-61" value="OrderItem_ID" style="shape=partialRectangle;connectable=0;fillColor=none;top=0;left=0;bottom=0;right=0;align=left;spacingLeft=6;fontStyle=5;overflow=hidden;" parent="j6H9N_P0zfszmaV8D0wm-59" vertex="1">
          <mxGeometry x="30" width="150" height="30" as="geometry">
            <mxRectangle width="150" height="30" as="alternateBounds" />
          </mxGeometry>
        </mxCell>
        <mxCell id="j6H9N_P0zfszmaV8D0wm-62" value="" style="shape=tableRow;horizontal=0;startSize=0;swimlaneHead=0;swimlaneBody=0;fillColor=none;collapsible=0;dropTarget=0;points=[[0,0.5],[1,0.5]];portConstraint=eastwest;top=0;left=0;right=0;bottom=0;" parent="j6H9N_P0zfszmaV8D0wm-58" vertex="1">
          <mxGeometry y="60" width="180" height="30" as="geometry" />
        </mxCell>
        <mxCell id="j6H9N_P0zfszmaV8D0wm-63" value="FK" style="shape=partialRectangle;connectable=0;fillColor=none;top=0;left=0;bottom=0;right=0;editable=1;overflow=hidden;" parent="j6H9N_P0zfszmaV8D0wm-62" vertex="1">
          <mxGeometry width="30" height="30" as="geometry">
            <mxRectangle width="30" height="30" as="alternateBounds" />
          </mxGeometry>
        </mxCell>
        <mxCell id="j6H9N_P0zfszmaV8D0wm-64" value="Order_ID" style="shape=partialRectangle;connectable=0;fillColor=none;top=0;left=0;bottom=0;right=0;align=left;spacingLeft=6;overflow=hidden;" parent="j6H9N_P0zfszmaV8D0wm-62" vertex="1">
          <mxGeometry x="30" width="150" height="30" as="geometry">
            <mxRectangle width="150" height="30" as="alternateBounds" />
          </mxGeometry>
        </mxCell>
        <mxCell id="j6H9N_P0zfszmaV8D0wm-65" value="" style="shape=tableRow;horizontal=0;startSize=0;swimlaneHead=0;swimlaneBody=0;fillColor=none;collapsible=0;dropTarget=0;points=[[0,0.5],[1,0.5]];portConstraint=eastwest;top=0;left=0;right=0;bottom=0;" parent="j6H9N_P0zfszmaV8D0wm-58" vertex="1">
          <mxGeometry y="90" width="180" height="30" as="geometry" />
        </mxCell>
        <mxCell id="j6H9N_P0zfszmaV8D0wm-66" value="FK" style="shape=partialRectangle;connectable=0;fillColor=none;top=0;left=0;bottom=0;right=0;editable=1;overflow=hidden;" parent="j6H9N_P0zfszmaV8D0wm-65" vertex="1">
          <mxGeometry width="30" height="30" as="geometry">
            <mxRectangle width="30" height="30" as="alternateBounds" />
          </mxGeometry>
        </mxCell>
        <mxCell id="j6H9N_P0zfszmaV8D0wm-67" value="Product_ID" style="shape=partialRectangle;connectable=0;fillColor=none;top=0;left=0;bottom=0;right=0;align=left;spacingLeft=6;overflow=hidden;" parent="j6H9N_P0zfszmaV8D0wm-65" vertex="1">
          <mxGeometry x="30" width="150" height="30" as="geometry">
            <mxRectangle width="150" height="30" as="alternateBounds" />
          </mxGeometry>
        </mxCell>
        <mxCell id="j6H9N_P0zfszmaV8D0wm-68" value="" style="shape=tableRow;horizontal=0;startSize=0;swimlaneHead=0;swimlaneBody=0;fillColor=none;collapsible=0;dropTarget=0;points=[[0,0.5],[1,0.5]];portConstraint=eastwest;top=0;left=0;right=0;bottom=0;" parent="j6H9N_P0zfszmaV8D0wm-58" vertex="1">
          <mxGeometry y="120" width="180" height="30" as="geometry" />
        </mxCell>
        <mxCell id="j6H9N_P0zfszmaV8D0wm-69" value="" style="shape=partialRectangle;connectable=0;fillColor=none;top=0;left=0;bottom=0;right=0;editable=1;overflow=hidden;" parent="j6H9N_P0zfszmaV8D0wm-68" vertex="1">
          <mxGeometry width="30" height="30" as="geometry">
            <mxRectangle width="30" height="30" as="alternateBounds" />
          </mxGeometry>
        </mxCell>
        <mxCell id="j6H9N_P0zfszmaV8D0wm-70" value="Unit_Price" style="shape=partialRectangle;connectable=0;fillColor=none;top=0;left=0;bottom=0;right=0;align=left;spacingLeft=6;overflow=hidden;" parent="j6H9N_P0zfszmaV8D0wm-68" vertex="1">
          <mxGeometry x="30" width="150" height="30" as="geometry">
            <mxRectangle width="150" height="30" as="alternateBounds" />
          </mxGeometry>
        </mxCell>
        <mxCell id="j6H9N_P0zfszmaV8D0wm-71" style="shape=tableRow;horizontal=0;startSize=0;swimlaneHead=0;swimlaneBody=0;fillColor=none;collapsible=0;dropTarget=0;points=[[0,0.5],[1,0.5]];portConstraint=eastwest;top=0;left=0;right=0;bottom=0;" parent="j6H9N_P0zfszmaV8D0wm-58" vertex="1">
          <mxGeometry y="150" width="180" height="30" as="geometry" />
        </mxCell>
        <mxCell id="j6H9N_P0zfszmaV8D0wm-72" style="shape=partialRectangle;connectable=0;fillColor=none;top=0;left=0;bottom=0;right=0;editable=1;overflow=hidden;" parent="j6H9N_P0zfszmaV8D0wm-71" vertex="1">
          <mxGeometry width="30" height="30" as="geometry">
            <mxRectangle width="30" height="30" as="alternateBounds" />
          </mxGeometry>
        </mxCell>
        <mxCell id="j6H9N_P0zfszmaV8D0wm-73" value="Quantity" style="shape=partialRectangle;connectable=0;fillColor=none;top=0;left=0;bottom=0;right=0;align=left;spacingLeft=6;overflow=hidden;" parent="j6H9N_P0zfszmaV8D0wm-71" vertex="1">
          <mxGeometry x="30" width="150" height="30" as="geometry">
            <mxRectangle width="150" height="30" as="alternateBounds" />
          </mxGeometry>
        </mxCell>
        <mxCell id="j6H9N_P0zfszmaV8D0wm-74" value="" style="edgeStyle=entityRelationEdgeStyle;fontSize=12;html=1;endArrow=ERoneToMany;rounded=0;exitX=1;exitY=0.5;exitDx=0;exitDy=0;entryX=0;entryY=0.5;entryDx=0;entryDy=0;" parent="j6H9N_P0zfszmaV8D0wm-1" source="j6H9N_P0zfszmaV8D0wm-3" target="j6H9N_P0zfszmaV8D0wm-52" edge="1">
          <mxGeometry width="100" height="100" relative="1" as="geometry">
            <mxPoint x="270" y="170" as="sourcePoint" />
            <mxPoint x="370" y="70" as="targetPoint" />
          </mxGeometry>
        </mxCell>
        <mxCell id="j6H9N_P0zfszmaV8D0wm-75" value="" style="edgeStyle=entityRelationEdgeStyle;fontSize=12;html=1;endArrow=ERoneToMany;rounded=0;exitX=1;exitY=0.5;exitDx=0;exitDy=0;entryX=0;entryY=0.5;entryDx=0;entryDy=0;" parent="j6H9N_P0zfszmaV8D0wm-1" source="j6H9N_P0zfszmaV8D0wm-55" target="j6H9N_P0zfszmaV8D0wm-22" edge="1">
          <mxGeometry width="100" height="100" relative="1" as="geometry">
            <mxPoint x="640" y="180" as="sourcePoint" />
            <mxPoint x="750" y="239.9999999999999" as="targetPoint" />
          </mxGeometry>
        </mxCell>
        <mxCell id="j6H9N_P0zfszmaV8D0wm-76" value="" style="edgeStyle=entityRelationEdgeStyle;fontSize=12;html=1;endArrow=ERmany;startArrow=ERmany;rounded=0;exitX=1;exitY=0.5;exitDx=0;exitDy=0;" parent="j6H9N_P0zfszmaV8D0wm-1" source="j6H9N_P0zfszmaV8D0wm-62" target="j6H9N_P0zfszmaV8D0wm-46" edge="1">
          <mxGeometry width="100" height="100" relative="1" as="geometry">
            <mxPoint x="340" y="440" as="sourcePoint" />
            <mxPoint x="440" y="340" as="targetPoint" />
          </mxGeometry>
        </mxCell>
        <mxCell id="j6H9N_P0zfszmaV8D0wm-77" value="" style="edgeStyle=entityRelationEdgeStyle;fontSize=12;html=1;endArrow=ERoneToMany;rounded=0;exitX=1;exitY=0.5;exitDx=0;exitDy=0;entryX=0;entryY=0.5;entryDx=0;entryDy=0;" parent="j6H9N_P0zfszmaV8D0wm-1" source="j6H9N_P0zfszmaV8D0wm-39" target="j6H9N_P0zfszmaV8D0wm-35" edge="1">
          <mxGeometry width="100" height="100" relative="1" as="geometry">
            <mxPoint x="250" y="450" as="sourcePoint" />
            <mxPoint x="360" y="509.9999999999999" as="targetPoint" />
          </mxGeometry>
        </mxCell>
        <mxCell id="j6H9N_P0zfszmaV8D0wm-78" value="" style="edgeStyle=entityRelationEdgeStyle;fontSize=12;html=1;endArrow=ERmany;startArrow=ERmany;rounded=0;exitX=1;exitY=0.5;exitDx=0;exitDy=0;entryX=1;entryY=0.5;entryDx=0;entryDy=0;" parent="j6H9N_P0zfszmaV8D0wm-1" source="j6H9N_P0zfszmaV8D0wm-65" target="j6H9N_P0zfszmaV8D0wm-29" edge="1">
          <mxGeometry width="100" height="100" relative="1" as="geometry">
            <mxPoint x="604" y="585" as="sourcePoint" />
            <mxPoint x="600" y="385" as="targetPoint" />
          </mxGeometry>
        </mxCell>
        <mxCell id="WMtKu51X-b9GjpP5P0ar-0" value="Postal" style="shape=table;startSize=30;container=1;collapsible=1;childLayout=tableLayout;fixedRows=1;rowLines=0;fontStyle=1;align=center;resizeLast=1;fillColor=#D5E8D4;" parent="j6H9N_P0zfszmaV8D0wm-1" vertex="1">
          <mxGeometry x="60" y="330" width="180" height="90" as="geometry" />
        </mxCell>
        <mxCell id="WMtKu51X-b9GjpP5P0ar-1" value="" style="shape=tableRow;horizontal=0;startSize=0;swimlaneHead=0;swimlaneBody=0;fillColor=none;collapsible=0;dropTarget=0;points=[[0,0.5],[1,0.5]];portConstraint=eastwest;top=0;left=0;right=0;bottom=1;" parent="WMtKu51X-b9GjpP5P0ar-0" vertex="1">
          <mxGeometry y="30" width="180" height="30" as="geometry" />
        </mxCell>
        <mxCell id="WMtKu51X-b9GjpP5P0ar-2" value="PK" style="shape=partialRectangle;connectable=0;fillColor=none;top=0;left=0;bottom=0;right=0;fontStyle=1;overflow=hidden;" parent="WMtKu51X-b9GjpP5P0ar-1" vertex="1">
          <mxGeometry width="30" height="30" as="geometry">
            <mxRectangle width="30" height="30" as="alternateBounds" />
          </mxGeometry>
        </mxCell>
        <mxCell id="WMtKu51X-b9GjpP5P0ar-3" value="Postal_Code" style="shape=partialRectangle;connectable=0;fillColor=none;top=0;left=0;bottom=0;right=0;align=left;spacingLeft=6;fontStyle=5;overflow=hidden;" parent="WMtKu51X-b9GjpP5P0ar-1" vertex="1">
          <mxGeometry x="30" width="150" height="30" as="geometry">
            <mxRectangle width="150" height="30" as="alternateBounds" />
          </mxGeometry>
        </mxCell>
        <mxCell id="WMtKu51X-b9GjpP5P0ar-4" value="" style="shape=tableRow;horizontal=0;startSize=0;swimlaneHead=0;swimlaneBody=0;fillColor=none;collapsible=0;dropTarget=0;points=[[0,0.5],[1,0.5]];portConstraint=eastwest;top=0;left=0;right=0;bottom=0;" parent="WMtKu51X-b9GjpP5P0ar-0" vertex="1">
          <mxGeometry y="60" width="180" height="30" as="geometry" />
        </mxCell>
        <mxCell id="WMtKu51X-b9GjpP5P0ar-5" value="" style="shape=partialRectangle;connectable=0;fillColor=none;top=0;left=0;bottom=0;right=0;editable=1;overflow=hidden;" parent="WMtKu51X-b9GjpP5P0ar-4" vertex="1">
          <mxGeometry width="30" height="30" as="geometry">
            <mxRectangle width="30" height="30" as="alternateBounds" />
          </mxGeometry>
        </mxCell>
        <mxCell id="WMtKu51X-b9GjpP5P0ar-6" value="City" style="shape=partialRectangle;connectable=0;fillColor=none;top=0;left=0;bottom=0;right=0;align=left;spacingLeft=6;overflow=hidden;" parent="WMtKu51X-b9GjpP5P0ar-4" vertex="1">
          <mxGeometry x="30" width="150" height="30" as="geometry">
            <mxRectangle width="150" height="30" as="alternateBounds" />
          </mxGeometry>
        </mxCell>
        <mxCell id="WMtKu51X-b9GjpP5P0ar-13" value="" style="edgeStyle=entityRelationEdgeStyle;fontSize=12;html=1;endArrow=ERoneToMany;rounded=0;exitX=1;exitY=0.5;exitDx=0;exitDy=0;" parent="j6H9N_P0zfszmaV8D0wm-1" source="WMtKu51X-b9GjpP5P0ar-1" target="WMtKu51X-b9GjpP5P0ar-14" edge="1">
          <mxGeometry width="100" height="100" relative="1" as="geometry">
            <mxPoint x="360" y="500" as="sourcePoint" />
            <mxPoint x="300" y="230" as="targetPoint" />
          </mxGeometry>
        </mxCell>
      </root>
    </mxGraphModel>
  </diagram>
  <diagram name="Dimensional" id="U1tSoyKFl2J56HqI7Xmi">
    <mxGraphModel dx="1050" dy="534" grid="1" gridSize="10" guides="1" tooltips="1" connect="1" arrows="1" fold="1" page="1" pageScale="1" pageWidth="827" pageHeight="1169" math="0" shadow="0">
      <root>
        <mxCell id="-CDOmEHhUnPB2WInKov6-0" />
        <mxCell id="-CDOmEHhUnPB2WInKov6-1" parent="-CDOmEHhUnPB2WInKov6-0" />
        <mxCell id="-CDOmEHhUnPB2WInKov6-2" value="DIM_Customer" style="shape=table;startSize=30;container=1;collapsible=1;childLayout=tableLayout;fixedRows=1;rowLines=0;fontStyle=1;align=center;resizeLast=1;fillColor=#fad7ac;strokeColor=#b46504;" parent="-CDOmEHhUnPB2WInKov6-1" vertex="1">
          <mxGeometry x="30" y="130" width="180" height="210" as="geometry" />
        </mxCell>
        <mxCell id="-CDOmEHhUnPB2WInKov6-3" value="" style="shape=tableRow;horizontal=0;startSize=0;swimlaneHead=0;swimlaneBody=0;fillColor=none;collapsible=0;dropTarget=0;points=[[0,0.5],[1,0.5]];portConstraint=eastwest;top=0;left=0;right=0;bottom=1;" parent="-CDOmEHhUnPB2WInKov6-2" vertex="1">
          <mxGeometry y="30" width="180" height="30" as="geometry" />
        </mxCell>
        <mxCell id="-CDOmEHhUnPB2WInKov6-4" value="PK" style="shape=partialRectangle;connectable=0;fillColor=none;top=0;left=0;bottom=0;right=0;fontStyle=1;overflow=hidden;" parent="-CDOmEHhUnPB2WInKov6-3" vertex="1">
          <mxGeometry width="30" height="30" as="geometry">
            <mxRectangle width="30" height="30" as="alternateBounds" />
          </mxGeometry>
        </mxCell>
        <mxCell id="-CDOmEHhUnPB2WInKov6-5" value="Customer_ID" style="shape=partialRectangle;connectable=0;fillColor=none;top=0;left=0;bottom=0;right=0;align=left;spacingLeft=6;fontStyle=5;overflow=hidden;" parent="-CDOmEHhUnPB2WInKov6-3" vertex="1">
          <mxGeometry x="30" width="150" height="30" as="geometry">
            <mxRectangle width="150" height="30" as="alternateBounds" />
          </mxGeometry>
        </mxCell>
        <mxCell id="-CDOmEHhUnPB2WInKov6-6" value="" style="shape=tableRow;horizontal=0;startSize=0;swimlaneHead=0;swimlaneBody=0;fillColor=none;collapsible=0;dropTarget=0;points=[[0,0.5],[1,0.5]];portConstraint=eastwest;top=0;left=0;right=0;bottom=0;" parent="-CDOmEHhUnPB2WInKov6-2" vertex="1">
          <mxGeometry y="60" width="180" height="30" as="geometry" />
        </mxCell>
        <mxCell id="-CDOmEHhUnPB2WInKov6-7" value="" style="shape=partialRectangle;connectable=0;fillColor=none;top=0;left=0;bottom=0;right=0;editable=1;overflow=hidden;" parent="-CDOmEHhUnPB2WInKov6-6" vertex="1">
          <mxGeometry width="30" height="30" as="geometry">
            <mxRectangle width="30" height="30" as="alternateBounds" />
          </mxGeometry>
        </mxCell>
        <mxCell id="-CDOmEHhUnPB2WInKov6-8" value="First_Name" style="shape=partialRectangle;connectable=0;fillColor=none;top=0;left=0;bottom=0;right=0;align=left;spacingLeft=6;overflow=hidden;" parent="-CDOmEHhUnPB2WInKov6-6" vertex="1">
          <mxGeometry x="30" width="150" height="30" as="geometry">
            <mxRectangle width="150" height="30" as="alternateBounds" />
          </mxGeometry>
        </mxCell>
        <mxCell id="-CDOmEHhUnPB2WInKov6-9" value="" style="shape=tableRow;horizontal=0;startSize=0;swimlaneHead=0;swimlaneBody=0;fillColor=none;collapsible=0;dropTarget=0;points=[[0,0.5],[1,0.5]];portConstraint=eastwest;top=0;left=0;right=0;bottom=0;" parent="-CDOmEHhUnPB2WInKov6-2" vertex="1">
          <mxGeometry y="90" width="180" height="30" as="geometry" />
        </mxCell>
        <mxCell id="-CDOmEHhUnPB2WInKov6-10" value="" style="shape=partialRectangle;connectable=0;fillColor=none;top=0;left=0;bottom=0;right=0;editable=1;overflow=hidden;" parent="-CDOmEHhUnPB2WInKov6-9" vertex="1">
          <mxGeometry width="30" height="30" as="geometry">
            <mxRectangle width="30" height="30" as="alternateBounds" />
          </mxGeometry>
        </mxCell>
        <mxCell id="-CDOmEHhUnPB2WInKov6-11" value="Last_Name" style="shape=partialRectangle;connectable=0;fillColor=none;top=0;left=0;bottom=0;right=0;align=left;spacingLeft=6;overflow=hidden;" parent="-CDOmEHhUnPB2WInKov6-9" vertex="1">
          <mxGeometry x="30" width="150" height="30" as="geometry">
            <mxRectangle width="150" height="30" as="alternateBounds" />
          </mxGeometry>
        </mxCell>
        <mxCell id="-CDOmEHhUnPB2WInKov6-12" style="shape=tableRow;horizontal=0;startSize=0;swimlaneHead=0;swimlaneBody=0;fillColor=none;collapsible=0;dropTarget=0;points=[[0,0.5],[1,0.5]];portConstraint=eastwest;top=0;left=0;right=0;bottom=0;" parent="-CDOmEHhUnPB2WInKov6-2" vertex="1">
          <mxGeometry y="120" width="180" height="30" as="geometry" />
        </mxCell>
        <mxCell id="-CDOmEHhUnPB2WInKov6-13" style="shape=partialRectangle;connectable=0;fillColor=none;top=0;left=0;bottom=0;right=0;editable=1;overflow=hidden;" parent="-CDOmEHhUnPB2WInKov6-12" vertex="1">
          <mxGeometry width="30" height="30" as="geometry">
            <mxRectangle width="30" height="30" as="alternateBounds" />
          </mxGeometry>
        </mxCell>
        <mxCell id="-CDOmEHhUnPB2WInKov6-14" value="Email" style="shape=partialRectangle;connectable=0;fillColor=none;top=0;left=0;bottom=0;right=0;align=left;spacingLeft=6;overflow=hidden;" parent="-CDOmEHhUnPB2WInKov6-12" vertex="1">
          <mxGeometry x="30" width="150" height="30" as="geometry">
            <mxRectangle width="150" height="30" as="alternateBounds" />
          </mxGeometry>
        </mxCell>
        <mxCell id="-CDOmEHhUnPB2WInKov6-15" style="shape=tableRow;horizontal=0;startSize=0;swimlaneHead=0;swimlaneBody=0;fillColor=none;collapsible=0;dropTarget=0;points=[[0,0.5],[1,0.5]];portConstraint=eastwest;top=0;left=0;right=0;bottom=0;" parent="-CDOmEHhUnPB2WInKov6-2" vertex="1">
          <mxGeometry y="150" width="180" height="30" as="geometry" />
        </mxCell>
        <mxCell id="-CDOmEHhUnPB2WInKov6-16" value="" style="shape=partialRectangle;connectable=0;fillColor=none;top=0;left=0;bottom=0;right=0;editable=1;overflow=hidden;" parent="-CDOmEHhUnPB2WInKov6-15" vertex="1">
          <mxGeometry width="30" height="30" as="geometry">
            <mxRectangle width="30" height="30" as="alternateBounds" />
          </mxGeometry>
        </mxCell>
        <mxCell id="-CDOmEHhUnPB2WInKov6-17" value="Postal_Code" style="shape=partialRectangle;connectable=0;fillColor=none;top=0;left=0;bottom=0;right=0;align=left;spacingLeft=6;overflow=hidden;" parent="-CDOmEHhUnPB2WInKov6-15" vertex="1">
          <mxGeometry x="30" width="150" height="30" as="geometry">
            <mxRectangle width="150" height="30" as="alternateBounds" />
          </mxGeometry>
        </mxCell>
        <mxCell id="-SHLaQUeQKTX5j-ZEiYH-1" style="shape=tableRow;horizontal=0;startSize=0;swimlaneHead=0;swimlaneBody=0;fillColor=none;collapsible=0;dropTarget=0;points=[[0,0.5],[1,0.5]];portConstraint=eastwest;top=0;left=0;right=0;bottom=0;" parent="-CDOmEHhUnPB2WInKov6-2" vertex="1">
          <mxGeometry y="180" width="180" height="30" as="geometry" />
        </mxCell>
        <mxCell id="-SHLaQUeQKTX5j-ZEiYH-2" style="shape=partialRectangle;connectable=0;fillColor=none;top=0;left=0;bottom=0;right=0;editable=1;overflow=hidden;" parent="-SHLaQUeQKTX5j-ZEiYH-1" vertex="1">
          <mxGeometry width="30" height="30" as="geometry">
            <mxRectangle width="30" height="30" as="alternateBounds" />
          </mxGeometry>
        </mxCell>
        <mxCell id="-SHLaQUeQKTX5j-ZEiYH-3" value="City" style="shape=partialRectangle;connectable=0;fillColor=none;top=0;left=0;bottom=0;right=0;align=left;spacingLeft=6;overflow=hidden;" parent="-SHLaQUeQKTX5j-ZEiYH-1" vertex="1">
          <mxGeometry x="30" width="150" height="30" as="geometry">
            <mxRectangle width="150" height="30" as="alternateBounds" />
          </mxGeometry>
        </mxCell>
        <mxCell id="-CDOmEHhUnPB2WInKov6-18" value="DIM_Store" style="shape=table;startSize=30;container=1;collapsible=1;childLayout=tableLayout;fixedRows=1;rowLines=0;fontStyle=1;align=center;resizeLast=1;fillColor=#fad7ac;strokeColor=#b46504;" parent="-CDOmEHhUnPB2WInKov6-1" vertex="1">
          <mxGeometry x="30" y="420" width="180" height="90" as="geometry" />
        </mxCell>
        <mxCell id="-CDOmEHhUnPB2WInKov6-19" value="" style="shape=tableRow;horizontal=0;startSize=0;swimlaneHead=0;swimlaneBody=0;fillColor=none;collapsible=0;dropTarget=0;points=[[0,0.5],[1,0.5]];portConstraint=eastwest;top=0;left=0;right=0;bottom=1;" parent="-CDOmEHhUnPB2WInKov6-18" vertex="1">
          <mxGeometry y="30" width="180" height="30" as="geometry" />
        </mxCell>
        <mxCell id="-CDOmEHhUnPB2WInKov6-20" value="PK" style="shape=partialRectangle;connectable=0;fillColor=none;top=0;left=0;bottom=0;right=0;fontStyle=1;overflow=hidden;" parent="-CDOmEHhUnPB2WInKov6-19" vertex="1">
          <mxGeometry width="30" height="30" as="geometry">
            <mxRectangle width="30" height="30" as="alternateBounds" />
          </mxGeometry>
        </mxCell>
        <mxCell id="-CDOmEHhUnPB2WInKov6-21" value="Store_ID" style="shape=partialRectangle;connectable=0;fillColor=none;top=0;left=0;bottom=0;right=0;align=left;spacingLeft=6;fontStyle=5;overflow=hidden;" parent="-CDOmEHhUnPB2WInKov6-19" vertex="1">
          <mxGeometry x="30" width="150" height="30" as="geometry">
            <mxRectangle width="150" height="30" as="alternateBounds" />
          </mxGeometry>
        </mxCell>
        <mxCell id="-CDOmEHhUnPB2WInKov6-22" value="" style="shape=tableRow;horizontal=0;startSize=0;swimlaneHead=0;swimlaneBody=0;fillColor=none;collapsible=0;dropTarget=0;points=[[0,0.5],[1,0.5]];portConstraint=eastwest;top=0;left=0;right=0;bottom=0;" parent="-CDOmEHhUnPB2WInKov6-18" vertex="1">
          <mxGeometry y="60" width="180" height="30" as="geometry" />
        </mxCell>
        <mxCell id="-CDOmEHhUnPB2WInKov6-23" value="" style="shape=partialRectangle;connectable=0;fillColor=none;top=0;left=0;bottom=0;right=0;editable=1;overflow=hidden;" parent="-CDOmEHhUnPB2WInKov6-22" vertex="1">
          <mxGeometry width="30" height="30" as="geometry">
            <mxRectangle width="30" height="30" as="alternateBounds" />
          </mxGeometry>
        </mxCell>
        <mxCell id="-CDOmEHhUnPB2WInKov6-24" value="Store_Name" style="shape=partialRectangle;connectable=0;fillColor=none;top=0;left=0;bottom=0;right=0;align=left;spacingLeft=6;overflow=hidden;" parent="-CDOmEHhUnPB2WInKov6-22" vertex="1">
          <mxGeometry x="30" width="150" height="30" as="geometry">
            <mxRectangle width="150" height="30" as="alternateBounds" />
          </mxGeometry>
        </mxCell>
        <mxCell id="-CDOmEHhUnPB2WInKov6-25" value="DIM_Product" style="shape=table;startSize=30;container=1;collapsible=1;childLayout=tableLayout;fixedRows=1;rowLines=0;fontStyle=1;align=center;resizeLast=1;fillColor=#fad7ac;strokeColor=#b46504;" parent="-CDOmEHhUnPB2WInKov6-1" vertex="1">
          <mxGeometry x="580" y="90" width="180" height="120" as="geometry" />
        </mxCell>
        <mxCell id="-CDOmEHhUnPB2WInKov6-26" value="" style="shape=tableRow;horizontal=0;startSize=0;swimlaneHead=0;swimlaneBody=0;fillColor=none;collapsible=0;dropTarget=0;points=[[0,0.5],[1,0.5]];portConstraint=eastwest;top=0;left=0;right=0;bottom=1;" parent="-CDOmEHhUnPB2WInKov6-25" vertex="1">
          <mxGeometry y="30" width="180" height="30" as="geometry" />
        </mxCell>
        <mxCell id="-CDOmEHhUnPB2WInKov6-27" value="PK" style="shape=partialRectangle;connectable=0;fillColor=none;top=0;left=0;bottom=0;right=0;fontStyle=1;overflow=hidden;" parent="-CDOmEHhUnPB2WInKov6-26" vertex="1">
          <mxGeometry width="30" height="30" as="geometry">
            <mxRectangle width="30" height="30" as="alternateBounds" />
          </mxGeometry>
        </mxCell>
        <mxCell id="-CDOmEHhUnPB2WInKov6-28" value="Product_ID" style="shape=partialRectangle;connectable=0;fillColor=none;top=0;left=0;bottom=0;right=0;align=left;spacingLeft=6;fontStyle=5;overflow=hidden;" parent="-CDOmEHhUnPB2WInKov6-26" vertex="1">
          <mxGeometry x="30" width="150" height="30" as="geometry">
            <mxRectangle width="150" height="30" as="alternateBounds" />
          </mxGeometry>
        </mxCell>
        <mxCell id="-CDOmEHhUnPB2WInKov6-29" value="" style="shape=tableRow;horizontal=0;startSize=0;swimlaneHead=0;swimlaneBody=0;fillColor=none;collapsible=0;dropTarget=0;points=[[0,0.5],[1,0.5]];portConstraint=eastwest;top=0;left=0;right=0;bottom=0;" parent="-CDOmEHhUnPB2WInKov6-25" vertex="1">
          <mxGeometry y="60" width="180" height="30" as="geometry" />
        </mxCell>
        <mxCell id="-CDOmEHhUnPB2WInKov6-30" value="" style="shape=partialRectangle;connectable=0;fillColor=none;top=0;left=0;bottom=0;right=0;editable=1;overflow=hidden;" parent="-CDOmEHhUnPB2WInKov6-29" vertex="1">
          <mxGeometry width="30" height="30" as="geometry">
            <mxRectangle width="30" height="30" as="alternateBounds" />
          </mxGeometry>
        </mxCell>
        <mxCell id="-CDOmEHhUnPB2WInKov6-31" value="Product_Name" style="shape=partialRectangle;connectable=0;fillColor=none;top=0;left=0;bottom=0;right=0;align=left;spacingLeft=6;overflow=hidden;" parent="-CDOmEHhUnPB2WInKov6-29" vertex="1">
          <mxGeometry x="30" width="150" height="30" as="geometry">
            <mxRectangle width="150" height="30" as="alternateBounds" />
          </mxGeometry>
        </mxCell>
        <mxCell id="-CDOmEHhUnPB2WInKov6-32" style="shape=tableRow;horizontal=0;startSize=0;swimlaneHead=0;swimlaneBody=0;fillColor=none;collapsible=0;dropTarget=0;points=[[0,0.5],[1,0.5]];portConstraint=eastwest;top=0;left=0;right=0;bottom=0;" parent="-CDOmEHhUnPB2WInKov6-25" vertex="1">
          <mxGeometry y="90" width="180" height="30" as="geometry" />
        </mxCell>
        <mxCell id="-CDOmEHhUnPB2WInKov6-33" value="" style="shape=partialRectangle;connectable=0;fillColor=none;top=0;left=0;bottom=0;right=0;editable=1;overflow=hidden;" parent="-CDOmEHhUnPB2WInKov6-32" vertex="1">
          <mxGeometry width="30" height="30" as="geometry">
            <mxRectangle width="30" height="30" as="alternateBounds" />
          </mxGeometry>
        </mxCell>
        <mxCell id="-CDOmEHhUnPB2WInKov6-34" value="Category_Name" style="shape=partialRectangle;connectable=0;fillColor=none;top=0;left=0;bottom=0;right=0;align=left;spacingLeft=6;overflow=hidden;" parent="-CDOmEHhUnPB2WInKov6-32" vertex="1">
          <mxGeometry x="30" width="150" height="30" as="geometry">
            <mxRectangle width="150" height="30" as="alternateBounds" />
          </mxGeometry>
        </mxCell>
        <mxCell id="-CDOmEHhUnPB2WInKov6-42" value="FACT_Sales" style="shape=table;startSize=30;container=1;collapsible=1;childLayout=tableLayout;fixedRows=1;rowLines=0;fontStyle=1;align=center;resizeLast=1;fillColor=#b1ddf0;strokeColor=#10739e;" parent="-CDOmEHhUnPB2WInKov6-1" vertex="1">
          <mxGeometry x="290" y="170" width="180" height="240" as="geometry" />
        </mxCell>
        <mxCell id="-CDOmEHhUnPB2WInKov6-43" value="" style="shape=tableRow;horizontal=0;startSize=0;swimlaneHead=0;swimlaneBody=0;fillColor=none;collapsible=0;dropTarget=0;points=[[0,0.5],[1,0.5]];portConstraint=eastwest;top=0;left=0;right=0;bottom=1;" parent="-CDOmEHhUnPB2WInKov6-42" vertex="1">
          <mxGeometry y="30" width="180" height="30" as="geometry" />
        </mxCell>
        <mxCell id="-CDOmEHhUnPB2WInKov6-44" value="PK" style="shape=partialRectangle;connectable=0;fillColor=none;top=0;left=0;bottom=0;right=0;fontStyle=1;overflow=hidden;" parent="-CDOmEHhUnPB2WInKov6-43" vertex="1">
          <mxGeometry width="30" height="30" as="geometry">
            <mxRectangle width="30" height="30" as="alternateBounds" />
          </mxGeometry>
        </mxCell>
        <mxCell id="-CDOmEHhUnPB2WInKov6-45" value="Sales_ID" style="shape=partialRectangle;connectable=0;fillColor=none;top=0;left=0;bottom=0;right=0;align=left;spacingLeft=6;fontStyle=5;overflow=hidden;" parent="-CDOmEHhUnPB2WInKov6-43" vertex="1">
          <mxGeometry x="30" width="150" height="30" as="geometry">
            <mxRectangle width="150" height="30" as="alternateBounds" />
          </mxGeometry>
        </mxCell>
        <mxCell id="-CDOmEHhUnPB2WInKov6-46" value="" style="shape=tableRow;horizontal=0;startSize=0;swimlaneHead=0;swimlaneBody=0;fillColor=none;collapsible=0;dropTarget=0;points=[[0,0.5],[1,0.5]];portConstraint=eastwest;top=0;left=0;right=0;bottom=0;" parent="-CDOmEHhUnPB2WInKov6-42" vertex="1">
          <mxGeometry y="60" width="180" height="30" as="geometry" />
        </mxCell>
        <mxCell id="-CDOmEHhUnPB2WInKov6-47" value="FK" style="shape=partialRectangle;connectable=0;fillColor=none;top=0;left=0;bottom=0;right=0;editable=1;overflow=hidden;" parent="-CDOmEHhUnPB2WInKov6-46" vertex="1">
          <mxGeometry width="30" height="30" as="geometry">
            <mxRectangle width="30" height="30" as="alternateBounds" />
          </mxGeometry>
        </mxCell>
        <mxCell id="-CDOmEHhUnPB2WInKov6-48" value="Customer_ID" style="shape=partialRectangle;connectable=0;fillColor=none;top=0;left=0;bottom=0;right=0;align=left;spacingLeft=6;overflow=hidden;" parent="-CDOmEHhUnPB2WInKov6-46" vertex="1">
          <mxGeometry x="30" width="150" height="30" as="geometry">
            <mxRectangle width="150" height="30" as="alternateBounds" />
          </mxGeometry>
        </mxCell>
        <mxCell id="-CDOmEHhUnPB2WInKov6-49" style="shape=tableRow;horizontal=0;startSize=0;swimlaneHead=0;swimlaneBody=0;fillColor=none;collapsible=0;dropTarget=0;points=[[0,0.5],[1,0.5]];portConstraint=eastwest;top=0;left=0;right=0;bottom=0;" parent="-CDOmEHhUnPB2WInKov6-42" vertex="1">
          <mxGeometry y="90" width="180" height="30" as="geometry" />
        </mxCell>
        <mxCell id="-CDOmEHhUnPB2WInKov6-50" value="FK" style="shape=partialRectangle;connectable=0;fillColor=none;top=0;left=0;bottom=0;right=0;editable=1;overflow=hidden;" parent="-CDOmEHhUnPB2WInKov6-49" vertex="1">
          <mxGeometry width="30" height="30" as="geometry">
            <mxRectangle width="30" height="30" as="alternateBounds" />
          </mxGeometry>
        </mxCell>
        <mxCell id="-CDOmEHhUnPB2WInKov6-51" value="Store_ID" style="shape=partialRectangle;connectable=0;fillColor=none;top=0;left=0;bottom=0;right=0;align=left;spacingLeft=6;overflow=hidden;" parent="-CDOmEHhUnPB2WInKov6-49" vertex="1">
          <mxGeometry x="30" width="150" height="30" as="geometry">
            <mxRectangle width="150" height="30" as="alternateBounds" />
          </mxGeometry>
        </mxCell>
        <mxCell id="-CDOmEHhUnPB2WInKov6-52" style="shape=tableRow;horizontal=0;startSize=0;swimlaneHead=0;swimlaneBody=0;fillColor=none;collapsible=0;dropTarget=0;points=[[0,0.5],[1,0.5]];portConstraint=eastwest;top=0;left=0;right=0;bottom=0;" parent="-CDOmEHhUnPB2WInKov6-42" vertex="1">
          <mxGeometry y="120" width="180" height="30" as="geometry" />
        </mxCell>
        <mxCell id="-CDOmEHhUnPB2WInKov6-53" value="FK" style="shape=partialRectangle;connectable=0;fillColor=none;top=0;left=0;bottom=0;right=0;editable=1;overflow=hidden;" parent="-CDOmEHhUnPB2WInKov6-52" vertex="1">
          <mxGeometry width="30" height="30" as="geometry">
            <mxRectangle width="30" height="30" as="alternateBounds" />
          </mxGeometry>
        </mxCell>
        <mxCell id="-CDOmEHhUnPB2WInKov6-54" value="Product_ID" style="shape=partialRectangle;connectable=0;fillColor=none;top=0;left=0;bottom=0;right=0;align=left;spacingLeft=6;overflow=hidden;" parent="-CDOmEHhUnPB2WInKov6-52" vertex="1">
          <mxGeometry x="30" width="150" height="30" as="geometry">
            <mxRectangle width="150" height="30" as="alternateBounds" />
          </mxGeometry>
        </mxCell>
        <mxCell id="-SHLaQUeQKTX5j-ZEiYH-10" style="shape=tableRow;horizontal=0;startSize=0;swimlaneHead=0;swimlaneBody=0;fillColor=none;collapsible=0;dropTarget=0;points=[[0,0.5],[1,0.5]];portConstraint=eastwest;top=0;left=0;right=0;bottom=0;" parent="-CDOmEHhUnPB2WInKov6-42" vertex="1">
          <mxGeometry y="150" width="180" height="30" as="geometry" />
        </mxCell>
        <mxCell id="-SHLaQUeQKTX5j-ZEiYH-11" value="FK" style="shape=partialRectangle;connectable=0;fillColor=none;top=0;left=0;bottom=0;right=0;editable=1;overflow=hidden;" parent="-SHLaQUeQKTX5j-ZEiYH-10" vertex="1">
          <mxGeometry width="30" height="30" as="geometry">
            <mxRectangle width="30" height="30" as="alternateBounds" />
          </mxGeometry>
        </mxCell>
        <mxCell id="-SHLaQUeQKTX5j-ZEiYH-12" value="Date_ID" style="shape=partialRectangle;connectable=0;fillColor=none;top=0;left=0;bottom=0;right=0;align=left;spacingLeft=6;overflow=hidden;" parent="-SHLaQUeQKTX5j-ZEiYH-10" vertex="1">
          <mxGeometry x="30" width="150" height="30" as="geometry">
            <mxRectangle width="150" height="30" as="alternateBounds" />
          </mxGeometry>
        </mxCell>
        <mxCell id="-SHLaQUeQKTX5j-ZEiYH-7" style="shape=tableRow;horizontal=0;startSize=0;swimlaneHead=0;swimlaneBody=0;fillColor=none;collapsible=0;dropTarget=0;points=[[0,0.5],[1,0.5]];portConstraint=eastwest;top=0;left=0;right=0;bottom=0;" parent="-CDOmEHhUnPB2WInKov6-42" vertex="1">
          <mxGeometry y="180" width="180" height="30" as="geometry" />
        </mxCell>
        <mxCell id="-SHLaQUeQKTX5j-ZEiYH-8" style="shape=partialRectangle;connectable=0;fillColor=none;top=0;left=0;bottom=0;right=0;editable=1;overflow=hidden;" parent="-SHLaQUeQKTX5j-ZEiYH-7" vertex="1">
          <mxGeometry width="30" height="30" as="geometry">
            <mxRectangle width="30" height="30" as="alternateBounds" />
          </mxGeometry>
        </mxCell>
        <mxCell id="-SHLaQUeQKTX5j-ZEiYH-9" value="Unit_Price" style="shape=partialRectangle;connectable=0;fillColor=none;top=0;left=0;bottom=0;right=0;align=left;spacingLeft=6;overflow=hidden;" parent="-SHLaQUeQKTX5j-ZEiYH-7" vertex="1">
          <mxGeometry x="30" width="150" height="30" as="geometry">
            <mxRectangle width="150" height="30" as="alternateBounds" />
          </mxGeometry>
        </mxCell>
        <mxCell id="-SHLaQUeQKTX5j-ZEiYH-4" style="shape=tableRow;horizontal=0;startSize=0;swimlaneHead=0;swimlaneBody=0;fillColor=none;collapsible=0;dropTarget=0;points=[[0,0.5],[1,0.5]];portConstraint=eastwest;top=0;left=0;right=0;bottom=0;" parent="-CDOmEHhUnPB2WInKov6-42" vertex="1">
          <mxGeometry y="210" width="180" height="30" as="geometry" />
        </mxCell>
        <mxCell id="-SHLaQUeQKTX5j-ZEiYH-5" style="shape=partialRectangle;connectable=0;fillColor=none;top=0;left=0;bottom=0;right=0;editable=1;overflow=hidden;" parent="-SHLaQUeQKTX5j-ZEiYH-4" vertex="1">
          <mxGeometry width="30" height="30" as="geometry">
            <mxRectangle width="30" height="30" as="alternateBounds" />
          </mxGeometry>
        </mxCell>
        <mxCell id="-SHLaQUeQKTX5j-ZEiYH-6" value="Quantity" style="shape=partialRectangle;connectable=0;fillColor=none;top=0;left=0;bottom=0;right=0;align=left;spacingLeft=6;overflow=hidden;" parent="-SHLaQUeQKTX5j-ZEiYH-4" vertex="1">
          <mxGeometry x="30" width="150" height="30" as="geometry">
            <mxRectangle width="150" height="30" as="alternateBounds" />
          </mxGeometry>
        </mxCell>
        <mxCell id="-SHLaQUeQKTX5j-ZEiYH-13" value="DIM_Date" style="shape=table;startSize=30;container=1;collapsible=1;childLayout=tableLayout;fixedRows=1;rowLines=0;fontStyle=1;align=center;resizeLast=1;fillColor=#fad7ac;strokeColor=#b46504;" parent="-CDOmEHhUnPB2WInKov6-1" vertex="1">
          <mxGeometry x="560" y="330" width="180" height="210" as="geometry" />
        </mxCell>
        <mxCell id="-SHLaQUeQKTX5j-ZEiYH-14" value="" style="shape=tableRow;horizontal=0;startSize=0;swimlaneHead=0;swimlaneBody=0;fillColor=none;collapsible=0;dropTarget=0;points=[[0,0.5],[1,0.5]];portConstraint=eastwest;top=0;left=0;right=0;bottom=1;" parent="-SHLaQUeQKTX5j-ZEiYH-13" vertex="1">
          <mxGeometry y="30" width="180" height="30" as="geometry" />
        </mxCell>
        <mxCell id="-SHLaQUeQKTX5j-ZEiYH-15" value="PK" style="shape=partialRectangle;connectable=0;fillColor=none;top=0;left=0;bottom=0;right=0;fontStyle=1;overflow=hidden;" parent="-SHLaQUeQKTX5j-ZEiYH-14" vertex="1">
          <mxGeometry width="30" height="30" as="geometry">
            <mxRectangle width="30" height="30" as="alternateBounds" />
          </mxGeometry>
        </mxCell>
        <mxCell id="-SHLaQUeQKTX5j-ZEiYH-16" value="Date_Id" style="shape=partialRectangle;connectable=0;fillColor=none;top=0;left=0;bottom=0;right=0;align=left;spacingLeft=6;fontStyle=5;overflow=hidden;" parent="-SHLaQUeQKTX5j-ZEiYH-14" vertex="1">
          <mxGeometry x="30" width="150" height="30" as="geometry">
            <mxRectangle width="150" height="30" as="alternateBounds" />
          </mxGeometry>
        </mxCell>
        <mxCell id="-SHLaQUeQKTX5j-ZEiYH-17" value="" style="shape=tableRow;horizontal=0;startSize=0;swimlaneHead=0;swimlaneBody=0;fillColor=none;collapsible=0;dropTarget=0;points=[[0,0.5],[1,0.5]];portConstraint=eastwest;top=0;left=0;right=0;bottom=0;" parent="-SHLaQUeQKTX5j-ZEiYH-13" vertex="1">
          <mxGeometry y="60" width="180" height="30" as="geometry" />
        </mxCell>
        <mxCell id="-SHLaQUeQKTX5j-ZEiYH-18" value="" style="shape=partialRectangle;connectable=0;fillColor=none;top=0;left=0;bottom=0;right=0;editable=1;overflow=hidden;" parent="-SHLaQUeQKTX5j-ZEiYH-17" vertex="1">
          <mxGeometry width="30" height="30" as="geometry">
            <mxRectangle width="30" height="30" as="alternateBounds" />
          </mxGeometry>
        </mxCell>
        <mxCell id="-SHLaQUeQKTX5j-ZEiYH-19" value="Day" style="shape=partialRectangle;connectable=0;fillColor=none;top=0;left=0;bottom=0;right=0;align=left;spacingLeft=6;overflow=hidden;" parent="-SHLaQUeQKTX5j-ZEiYH-17" vertex="1">
          <mxGeometry x="30" width="150" height="30" as="geometry">
            <mxRectangle width="150" height="30" as="alternateBounds" />
          </mxGeometry>
        </mxCell>
        <mxCell id="-SHLaQUeQKTX5j-ZEiYH-20" value="" style="shape=tableRow;horizontal=0;startSize=0;swimlaneHead=0;swimlaneBody=0;fillColor=none;collapsible=0;dropTarget=0;points=[[0,0.5],[1,0.5]];portConstraint=eastwest;top=0;left=0;right=0;bottom=0;" parent="-SHLaQUeQKTX5j-ZEiYH-13" vertex="1">
          <mxGeometry y="90" width="180" height="30" as="geometry" />
        </mxCell>
        <mxCell id="-SHLaQUeQKTX5j-ZEiYH-21" value="" style="shape=partialRectangle;connectable=0;fillColor=none;top=0;left=0;bottom=0;right=0;editable=1;overflow=hidden;" parent="-SHLaQUeQKTX5j-ZEiYH-20" vertex="1">
          <mxGeometry width="30" height="30" as="geometry">
            <mxRectangle width="30" height="30" as="alternateBounds" />
          </mxGeometry>
        </mxCell>
        <mxCell id="-SHLaQUeQKTX5j-ZEiYH-22" value="Month" style="shape=partialRectangle;connectable=0;fillColor=none;top=0;left=0;bottom=0;right=0;align=left;spacingLeft=6;overflow=hidden;" parent="-SHLaQUeQKTX5j-ZEiYH-20" vertex="1">
          <mxGeometry x="30" width="150" height="30" as="geometry">
            <mxRectangle width="150" height="30" as="alternateBounds" />
          </mxGeometry>
        </mxCell>
        <mxCell id="-SHLaQUeQKTX5j-ZEiYH-23" style="shape=tableRow;horizontal=0;startSize=0;swimlaneHead=0;swimlaneBody=0;fillColor=none;collapsible=0;dropTarget=0;points=[[0,0.5],[1,0.5]];portConstraint=eastwest;top=0;left=0;right=0;bottom=0;" parent="-SHLaQUeQKTX5j-ZEiYH-13" vertex="1">
          <mxGeometry y="120" width="180" height="30" as="geometry" />
        </mxCell>
        <mxCell id="-SHLaQUeQKTX5j-ZEiYH-24" style="shape=partialRectangle;connectable=0;fillColor=none;top=0;left=0;bottom=0;right=0;editable=1;overflow=hidden;" parent="-SHLaQUeQKTX5j-ZEiYH-23" vertex="1">
          <mxGeometry width="30" height="30" as="geometry">
            <mxRectangle width="30" height="30" as="alternateBounds" />
          </mxGeometry>
        </mxCell>
        <mxCell id="-SHLaQUeQKTX5j-ZEiYH-25" value="Year" style="shape=partialRectangle;connectable=0;fillColor=none;top=0;left=0;bottom=0;right=0;align=left;spacingLeft=6;overflow=hidden;" parent="-SHLaQUeQKTX5j-ZEiYH-23" vertex="1">
          <mxGeometry x="30" width="150" height="30" as="geometry">
            <mxRectangle width="150" height="30" as="alternateBounds" />
          </mxGeometry>
        </mxCell>
        <mxCell id="-SHLaQUeQKTX5j-ZEiYH-26" style="shape=tableRow;horizontal=0;startSize=0;swimlaneHead=0;swimlaneBody=0;fillColor=none;collapsible=0;dropTarget=0;points=[[0,0.5],[1,0.5]];portConstraint=eastwest;top=0;left=0;right=0;bottom=0;" parent="-SHLaQUeQKTX5j-ZEiYH-13" vertex="1">
          <mxGeometry y="150" width="180" height="30" as="geometry" />
        </mxCell>
        <mxCell id="-SHLaQUeQKTX5j-ZEiYH-27" value="" style="shape=partialRectangle;connectable=0;fillColor=none;top=0;left=0;bottom=0;right=0;editable=1;overflow=hidden;" parent="-SHLaQUeQKTX5j-ZEiYH-26" vertex="1">
          <mxGeometry width="30" height="30" as="geometry">
            <mxRectangle width="30" height="30" as="alternateBounds" />
          </mxGeometry>
        </mxCell>
        <mxCell id="-SHLaQUeQKTX5j-ZEiYH-28" value="Postal_Code" style="shape=partialRectangle;connectable=0;fillColor=none;top=0;left=0;bottom=0;right=0;align=left;spacingLeft=6;overflow=hidden;" parent="-SHLaQUeQKTX5j-ZEiYH-26" vertex="1">
          <mxGeometry x="30" width="150" height="30" as="geometry">
            <mxRectangle width="150" height="30" as="alternateBounds" />
          </mxGeometry>
        </mxCell>
        <mxCell id="-SHLaQUeQKTX5j-ZEiYH-29" style="shape=tableRow;horizontal=0;startSize=0;swimlaneHead=0;swimlaneBody=0;fillColor=none;collapsible=0;dropTarget=0;points=[[0,0.5],[1,0.5]];portConstraint=eastwest;top=0;left=0;right=0;bottom=0;" parent="-SHLaQUeQKTX5j-ZEiYH-13" vertex="1">
          <mxGeometry y="180" width="180" height="30" as="geometry" />
        </mxCell>
        <mxCell id="-SHLaQUeQKTX5j-ZEiYH-30" style="shape=partialRectangle;connectable=0;fillColor=none;top=0;left=0;bottom=0;right=0;editable=1;overflow=hidden;" parent="-SHLaQUeQKTX5j-ZEiYH-29" vertex="1">
          <mxGeometry width="30" height="30" as="geometry">
            <mxRectangle width="30" height="30" as="alternateBounds" />
          </mxGeometry>
        </mxCell>
        <mxCell id="-SHLaQUeQKTX5j-ZEiYH-31" value="City" style="shape=partialRectangle;connectable=0;fillColor=none;top=0;left=0;bottom=0;right=0;align=left;spacingLeft=6;overflow=hidden;" parent="-SHLaQUeQKTX5j-ZEiYH-29" vertex="1">
          <mxGeometry x="30" width="150" height="30" as="geometry">
            <mxRectangle width="150" height="30" as="alternateBounds" />
          </mxGeometry>
        </mxCell>
        <mxCell id="-SHLaQUeQKTX5j-ZEiYH-32" value="" style="edgeStyle=entityRelationEdgeStyle;fontSize=12;html=1;endArrow=ERoneToMany;rounded=0;exitX=1;exitY=0.5;exitDx=0;exitDy=0;entryX=0;entryY=0.5;entryDx=0;entryDy=0;" parent="-CDOmEHhUnPB2WInKov6-1" source="-CDOmEHhUnPB2WInKov6-19" target="-CDOmEHhUnPB2WInKov6-49" edge="1">
          <mxGeometry width="100" height="100" relative="1" as="geometry">
            <mxPoint x="230" y="190" as="sourcePoint" />
            <mxPoint x="330" y="90" as="targetPoint" />
          </mxGeometry>
        </mxCell>
        <mxCell id="-SHLaQUeQKTX5j-ZEiYH-33" value="" style="edgeStyle=entityRelationEdgeStyle;fontSize=12;html=1;endArrow=ERoneToMany;rounded=0;exitX=1;exitY=0.5;exitDx=0;exitDy=0;entryX=0;entryY=0.5;entryDx=0;entryDy=0;" parent="-CDOmEHhUnPB2WInKov6-1" source="-CDOmEHhUnPB2WInKov6-3" target="-CDOmEHhUnPB2WInKov6-46" edge="1">
          <mxGeometry width="100" height="100" relative="1" as="geometry">
            <mxPoint x="220" y="400" as="sourcePoint" />
            <mxPoint x="290" y="540" as="targetPoint" />
          </mxGeometry>
        </mxCell>
        <mxCell id="-SHLaQUeQKTX5j-ZEiYH-34" value="" style="edgeStyle=entityRelationEdgeStyle;fontSize=12;html=1;endArrow=ERoneToMany;rounded=0;exitX=1;exitY=0.5;exitDx=0;exitDy=0;entryX=0;entryY=0.5;entryDx=0;entryDy=0;" parent="-CDOmEHhUnPB2WInKov6-1" source="-SHLaQUeQKTX5j-ZEiYH-10" target="-SHLaQUeQKTX5j-ZEiYH-14" edge="1">
          <mxGeometry width="100" height="100" relative="1" as="geometry">
            <mxPoint x="310" y="500" as="sourcePoint" />
            <mxPoint x="380" y="640" as="targetPoint" />
          </mxGeometry>
        </mxCell>
        <mxCell id="-SHLaQUeQKTX5j-ZEiYH-35" value="" style="edgeStyle=entityRelationEdgeStyle;fontSize=12;html=1;endArrow=ERoneToMany;rounded=0;exitX=1;exitY=0.5;exitDx=0;exitDy=0;entryX=0;entryY=0.5;entryDx=0;entryDy=0;" parent="-CDOmEHhUnPB2WInKov6-1" source="-CDOmEHhUnPB2WInKov6-52" target="-CDOmEHhUnPB2WInKov6-26" edge="1">
          <mxGeometry width="100" height="100" relative="1" as="geometry">
            <mxPoint x="490" y="50" as="sourcePoint" />
            <mxPoint x="560" y="190" as="targetPoint" />
          </mxGeometry>
        </mxCell>
      </root>
    </mxGraphModel>
  </diagram>
  <diagram name="Data Vault 2.0" id="9Lz6Gl1uyU1XC9v6cxk7">
    <mxGraphModel dx="1877" dy="534" grid="1" gridSize="10" guides="1" tooltips="1" connect="1" arrows="1" fold="1" page="1" pageScale="1" pageWidth="827" pageHeight="1169" math="0" shadow="0">
      <root>
        <mxCell id="NiVuujKOUFBKynLG8kcs-0" />
        <mxCell id="NiVuujKOUFBKynLG8kcs-1" parent="NiVuujKOUFBKynLG8kcs-0" />
        <mxCell id="NiVuujKOUFBKynLG8kcs-42" value="HUB_Order" style="shape=table;startSize=30;container=1;collapsible=1;childLayout=tableLayout;fixedRows=1;rowLines=0;fontStyle=1;align=center;resizeLast=1;fillColor=#7EA6E0;" parent="NiVuujKOUFBKynLG8kcs-1" vertex="1">
          <mxGeometry x="60" y="500" width="180" height="150" as="geometry" />
        </mxCell>
        <mxCell id="NiVuujKOUFBKynLG8kcs-43" value="" style="shape=tableRow;horizontal=0;startSize=0;swimlaneHead=0;swimlaneBody=0;fillColor=none;collapsible=0;dropTarget=0;points=[[0,0.5],[1,0.5]];portConstraint=eastwest;top=0;left=0;right=0;bottom=1;" parent="NiVuujKOUFBKynLG8kcs-42" vertex="1">
          <mxGeometry y="30" width="180" height="30" as="geometry" />
        </mxCell>
        <mxCell id="NiVuujKOUFBKynLG8kcs-44" value="PK" style="shape=partialRectangle;connectable=0;fillColor=#A9C4EB;top=0;left=0;bottom=0;right=0;fontStyle=1;overflow=hidden;" parent="NiVuujKOUFBKynLG8kcs-43" vertex="1">
          <mxGeometry width="30" height="30" as="geometry">
            <mxRectangle width="30" height="30" as="alternateBounds" />
          </mxGeometry>
        </mxCell>
        <mxCell id="NiVuujKOUFBKynLG8kcs-45" value="HK_Order_ID" style="shape=partialRectangle;connectable=0;fillColor=#A9C4EB;top=0;left=0;bottom=0;right=0;align=left;spacingLeft=6;fontStyle=5;overflow=hidden;" parent="NiVuujKOUFBKynLG8kcs-43" vertex="1">
          <mxGeometry x="30" width="150" height="30" as="geometry">
            <mxRectangle width="150" height="30" as="alternateBounds" />
          </mxGeometry>
        </mxCell>
        <mxCell id="NiVuujKOUFBKynLG8kcs-46" value="" style="shape=tableRow;horizontal=0;startSize=0;swimlaneHead=0;swimlaneBody=0;fillColor=none;collapsible=0;dropTarget=0;points=[[0,0.5],[1,0.5]];portConstraint=eastwest;top=0;left=0;right=0;bottom=0;" parent="NiVuujKOUFBKynLG8kcs-42" vertex="1">
          <mxGeometry y="60" width="180" height="30" as="geometry" />
        </mxCell>
        <mxCell id="NiVuujKOUFBKynLG8kcs-47" value="" style="shape=partialRectangle;connectable=0;fillColor=#A9C4EB;top=0;left=0;bottom=0;right=0;editable=1;overflow=hidden;" parent="NiVuujKOUFBKynLG8kcs-46" vertex="1">
          <mxGeometry width="30" height="30" as="geometry">
            <mxRectangle width="30" height="30" as="alternateBounds" />
          </mxGeometry>
        </mxCell>
        <mxCell id="NiVuujKOUFBKynLG8kcs-48" value="Order_Date" style="shape=partialRectangle;connectable=0;fillColor=#A9C4EB;top=0;left=0;bottom=0;right=0;align=left;spacingLeft=6;overflow=hidden;" parent="NiVuujKOUFBKynLG8kcs-46" vertex="1">
          <mxGeometry x="30" width="150" height="30" as="geometry">
            <mxRectangle width="150" height="30" as="alternateBounds" />
          </mxGeometry>
        </mxCell>
        <mxCell id="NiVuujKOUFBKynLG8kcs-49" style="shape=tableRow;horizontal=0;startSize=0;swimlaneHead=0;swimlaneBody=0;fillColor=none;collapsible=0;dropTarget=0;points=[[0,0.5],[1,0.5]];portConstraint=eastwest;top=0;left=0;right=0;bottom=0;" parent="NiVuujKOUFBKynLG8kcs-42" vertex="1">
          <mxGeometry y="90" width="180" height="30" as="geometry" />
        </mxCell>
        <mxCell id="NiVuujKOUFBKynLG8kcs-50" value="" style="shape=partialRectangle;connectable=0;fillColor=#A9C4EB;top=0;left=0;bottom=0;right=0;editable=1;overflow=hidden;" parent="NiVuujKOUFBKynLG8kcs-49" vertex="1">
          <mxGeometry width="30" height="30" as="geometry">
            <mxRectangle width="30" height="30" as="alternateBounds" />
          </mxGeometry>
        </mxCell>
        <mxCell id="NiVuujKOUFBKynLG8kcs-51" value="LOAD_DTS" style="shape=partialRectangle;connectable=0;fillColor=#A9C4EB;top=0;left=0;bottom=0;right=0;align=left;spacingLeft=6;overflow=hidden;" parent="NiVuujKOUFBKynLG8kcs-49" vertex="1">
          <mxGeometry x="30" width="150" height="30" as="geometry">
            <mxRectangle width="150" height="30" as="alternateBounds" />
          </mxGeometry>
        </mxCell>
        <mxCell id="NiVuujKOUFBKynLG8kcs-52" style="shape=tableRow;horizontal=0;startSize=0;swimlaneHead=0;swimlaneBody=0;fillColor=none;collapsible=0;dropTarget=0;points=[[0,0.5],[1,0.5]];portConstraint=eastwest;top=0;left=0;right=0;bottom=0;" parent="NiVuujKOUFBKynLG8kcs-42" vertex="1">
          <mxGeometry y="120" width="180" height="30" as="geometry" />
        </mxCell>
        <mxCell id="NiVuujKOUFBKynLG8kcs-53" value="" style="shape=partialRectangle;connectable=0;fillColor=#A9C4EB;top=0;left=0;bottom=0;right=0;editable=1;overflow=hidden;" parent="NiVuujKOUFBKynLG8kcs-52" vertex="1">
          <mxGeometry width="30" height="30" as="geometry">
            <mxRectangle width="30" height="30" as="alternateBounds" />
          </mxGeometry>
        </mxCell>
        <mxCell id="NiVuujKOUFBKynLG8kcs-54" value="REC_SRC" style="shape=partialRectangle;connectable=0;fillColor=#A9C4EB;top=0;left=0;bottom=0;right=0;align=left;spacingLeft=6;overflow=hidden;" parent="NiVuujKOUFBKynLG8kcs-52" vertex="1">
          <mxGeometry x="30" width="150" height="30" as="geometry">
            <mxRectangle width="150" height="30" as="alternateBounds" />
          </mxGeometry>
        </mxCell>
        <mxCell id="NiVuujKOUFBKynLG8kcs-55" value="LINK_Order_Product" style="shape=table;startSize=30;container=1;collapsible=1;childLayout=tableLayout;fixedRows=1;rowLines=0;fontStyle=1;align=center;resizeLast=1;fillColor=#F19C99;" parent="NiVuujKOUFBKynLG8kcs-1" vertex="1">
          <mxGeometry x="325" y="500" width="180" height="180" as="geometry" />
        </mxCell>
        <mxCell id="NiVuujKOUFBKynLG8kcs-56" value="" style="shape=tableRow;horizontal=0;startSize=0;swimlaneHead=0;swimlaneBody=0;fillColor=none;collapsible=0;dropTarget=0;points=[[0,0.5],[1,0.5]];portConstraint=eastwest;top=0;left=0;right=0;bottom=1;" parent="NiVuujKOUFBKynLG8kcs-55" vertex="1">
          <mxGeometry y="30" width="180" height="30" as="geometry" />
        </mxCell>
        <mxCell id="NiVuujKOUFBKynLG8kcs-57" value="PK" style="shape=partialRectangle;connectable=0;fillColor=#F8CECC;top=0;left=0;bottom=0;right=0;fontStyle=1;overflow=hidden;" parent="NiVuujKOUFBKynLG8kcs-56" vertex="1">
          <mxGeometry width="30" height="30" as="geometry">
            <mxRectangle width="30" height="30" as="alternateBounds" />
          </mxGeometry>
        </mxCell>
        <mxCell id="NiVuujKOUFBKynLG8kcs-58" value="HK_L_Cust_Order" style="shape=partialRectangle;connectable=0;fillColor=#F8CECC;top=0;left=0;bottom=0;right=0;align=left;spacingLeft=6;fontStyle=5;overflow=hidden;" parent="NiVuujKOUFBKynLG8kcs-56" vertex="1">
          <mxGeometry x="30" width="150" height="30" as="geometry">
            <mxRectangle width="150" height="30" as="alternateBounds" />
          </mxGeometry>
        </mxCell>
        <mxCell id="NiVuujKOUFBKynLG8kcs-59" value="" style="shape=tableRow;horizontal=0;startSize=0;swimlaneHead=0;swimlaneBody=0;fillColor=none;collapsible=0;dropTarget=0;points=[[0,0.5],[1,0.5]];portConstraint=eastwest;top=0;left=0;right=0;bottom=0;" parent="NiVuujKOUFBKynLG8kcs-55" vertex="1">
          <mxGeometry y="60" width="180" height="30" as="geometry" />
        </mxCell>
        <mxCell id="NiVuujKOUFBKynLG8kcs-60" value="FK" style="shape=partialRectangle;connectable=0;fillColor=#F8CECC;top=0;left=0;bottom=0;right=0;editable=1;overflow=hidden;" parent="NiVuujKOUFBKynLG8kcs-59" vertex="1">
          <mxGeometry width="30" height="30" as="geometry">
            <mxRectangle width="30" height="30" as="alternateBounds" />
          </mxGeometry>
        </mxCell>
        <mxCell id="NiVuujKOUFBKynLG8kcs-61" value="Order_ID" style="shape=partialRectangle;connectable=0;fillColor=#F8CECC;top=0;left=0;bottom=0;right=0;align=left;spacingLeft=6;overflow=hidden;" parent="NiVuujKOUFBKynLG8kcs-59" vertex="1">
          <mxGeometry x="30" width="150" height="30" as="geometry">
            <mxRectangle width="150" height="30" as="alternateBounds" />
          </mxGeometry>
        </mxCell>
        <mxCell id="NiVuujKOUFBKynLG8kcs-62" value="" style="shape=tableRow;horizontal=0;startSize=0;swimlaneHead=0;swimlaneBody=0;fillColor=none;collapsible=0;dropTarget=0;points=[[0,0.5],[1,0.5]];portConstraint=eastwest;top=0;left=0;right=0;bottom=0;" parent="NiVuujKOUFBKynLG8kcs-55" vertex="1">
          <mxGeometry y="90" width="180" height="30" as="geometry" />
        </mxCell>
        <mxCell id="NiVuujKOUFBKynLG8kcs-63" value="FK" style="shape=partialRectangle;connectable=0;fillColor=#F8CECC;top=0;left=0;bottom=0;right=0;editable=1;overflow=hidden;" parent="NiVuujKOUFBKynLG8kcs-62" vertex="1">
          <mxGeometry width="30" height="30" as="geometry">
            <mxRectangle width="30" height="30" as="alternateBounds" />
          </mxGeometry>
        </mxCell>
        <mxCell id="NiVuujKOUFBKynLG8kcs-64" value="Product_ID" style="shape=partialRectangle;connectable=0;fillColor=#F8CECC;top=0;left=0;bottom=0;right=0;align=left;spacingLeft=6;overflow=hidden;" parent="NiVuujKOUFBKynLG8kcs-62" vertex="1">
          <mxGeometry x="30" width="150" height="30" as="geometry">
            <mxRectangle width="150" height="30" as="alternateBounds" />
          </mxGeometry>
        </mxCell>
        <mxCell id="NiVuujKOUFBKynLG8kcs-65" value="" style="shape=tableRow;horizontal=0;startSize=0;swimlaneHead=0;swimlaneBody=0;fillColor=none;collapsible=0;dropTarget=0;points=[[0,0.5],[1,0.5]];portConstraint=eastwest;top=0;left=0;right=0;bottom=0;" parent="NiVuujKOUFBKynLG8kcs-55" vertex="1">
          <mxGeometry y="120" width="180" height="30" as="geometry" />
        </mxCell>
        <mxCell id="NiVuujKOUFBKynLG8kcs-66" value="" style="shape=partialRectangle;connectable=0;fillColor=#F8CECC;top=0;left=0;bottom=0;right=0;editable=1;overflow=hidden;" parent="NiVuujKOUFBKynLG8kcs-65" vertex="1">
          <mxGeometry width="30" height="30" as="geometry">
            <mxRectangle width="30" height="30" as="alternateBounds" />
          </mxGeometry>
        </mxCell>
        <mxCell id="NiVuujKOUFBKynLG8kcs-67" value="LOAD_DTS" style="shape=partialRectangle;connectable=0;fillColor=#F8CECC;top=0;left=0;bottom=0;right=0;align=left;spacingLeft=6;overflow=hidden;" parent="NiVuujKOUFBKynLG8kcs-65" vertex="1">
          <mxGeometry x="30" width="150" height="30" as="geometry">
            <mxRectangle width="150" height="30" as="alternateBounds" />
          </mxGeometry>
        </mxCell>
        <mxCell id="NiVuujKOUFBKynLG8kcs-68" style="shape=tableRow;horizontal=0;startSize=0;swimlaneHead=0;swimlaneBody=0;fillColor=none;collapsible=0;dropTarget=0;points=[[0,0.5],[1,0.5]];portConstraint=eastwest;top=0;left=0;right=0;bottom=0;" parent="NiVuujKOUFBKynLG8kcs-55" vertex="1">
          <mxGeometry y="150" width="180" height="30" as="geometry" />
        </mxCell>
        <mxCell id="NiVuujKOUFBKynLG8kcs-69" style="shape=partialRectangle;connectable=0;fillColor=#F8CECC;top=0;left=0;bottom=0;right=0;editable=1;overflow=hidden;" parent="NiVuujKOUFBKynLG8kcs-68" vertex="1">
          <mxGeometry width="30" height="30" as="geometry">
            <mxRectangle width="30" height="30" as="alternateBounds" />
          </mxGeometry>
        </mxCell>
        <mxCell id="NiVuujKOUFBKynLG8kcs-70" value="REC_DTS" style="shape=partialRectangle;connectable=0;fillColor=#F8CECC;top=0;left=0;bottom=0;right=0;align=left;spacingLeft=6;overflow=hidden;" parent="NiVuujKOUFBKynLG8kcs-68" vertex="1">
          <mxGeometry x="30" width="150" height="30" as="geometry">
            <mxRectangle width="150" height="30" as="alternateBounds" />
          </mxGeometry>
        </mxCell>
        <mxCell id="xAKMeydSMWTqtz_utKmK-0" value="HUB_Customer" style="shape=table;startSize=30;container=1;collapsible=1;childLayout=tableLayout;fixedRows=1;rowLines=0;fontStyle=1;align=center;resizeLast=1;fillColor=#7EA6E0;" parent="NiVuujKOUFBKynLG8kcs-1" vertex="1">
          <mxGeometry x="60" y="80" width="180" height="150" as="geometry" />
        </mxCell>
        <mxCell id="xAKMeydSMWTqtz_utKmK-1" value="" style="shape=tableRow;horizontal=0;startSize=0;swimlaneHead=0;swimlaneBody=0;fillColor=none;collapsible=0;dropTarget=0;points=[[0,0.5],[1,0.5]];portConstraint=eastwest;top=0;left=0;right=0;bottom=1;" parent="xAKMeydSMWTqtz_utKmK-0" vertex="1">
          <mxGeometry y="30" width="180" height="30" as="geometry" />
        </mxCell>
        <mxCell id="xAKMeydSMWTqtz_utKmK-2" value="PK" style="shape=partialRectangle;connectable=0;fillColor=#A9C4EB;top=0;left=0;bottom=0;right=0;fontStyle=1;overflow=hidden;" parent="xAKMeydSMWTqtz_utKmK-1" vertex="1">
          <mxGeometry width="30" height="30" as="geometry">
            <mxRectangle width="30" height="30" as="alternateBounds" />
          </mxGeometry>
        </mxCell>
        <mxCell id="xAKMeydSMWTqtz_utKmK-3" value="HK_Customer_ID" style="shape=partialRectangle;connectable=0;fillColor=#A9C4EB;top=0;left=0;bottom=0;right=0;align=left;spacingLeft=6;fontStyle=5;overflow=hidden;" parent="xAKMeydSMWTqtz_utKmK-1" vertex="1">
          <mxGeometry x="30" width="150" height="30" as="geometry">
            <mxRectangle width="150" height="30" as="alternateBounds" />
          </mxGeometry>
        </mxCell>
        <mxCell id="xAKMeydSMWTqtz_utKmK-4" value="" style="shape=tableRow;horizontal=0;startSize=0;swimlaneHead=0;swimlaneBody=0;fillColor=none;collapsible=0;dropTarget=0;points=[[0,0.5],[1,0.5]];portConstraint=eastwest;top=0;left=0;right=0;bottom=0;" parent="xAKMeydSMWTqtz_utKmK-0" vertex="1">
          <mxGeometry y="60" width="180" height="30" as="geometry" />
        </mxCell>
        <mxCell id="xAKMeydSMWTqtz_utKmK-5" value="" style="shape=partialRectangle;connectable=0;fillColor=#A9C4EB;top=0;left=0;bottom=0;right=0;editable=1;overflow=hidden;" parent="xAKMeydSMWTqtz_utKmK-4" vertex="1">
          <mxGeometry width="30" height="30" as="geometry">
            <mxRectangle width="30" height="30" as="alternateBounds" />
          </mxGeometry>
        </mxCell>
        <mxCell id="xAKMeydSMWTqtz_utKmK-6" value="Customer_ID" style="shape=partialRectangle;connectable=0;fillColor=#A9C4EB;top=0;left=0;bottom=0;right=0;align=left;spacingLeft=6;overflow=hidden;" parent="xAKMeydSMWTqtz_utKmK-4" vertex="1">
          <mxGeometry x="30" width="150" height="30" as="geometry">
            <mxRectangle width="150" height="30" as="alternateBounds" />
          </mxGeometry>
        </mxCell>
        <mxCell id="xAKMeydSMWTqtz_utKmK-10" style="shape=tableRow;horizontal=0;startSize=0;swimlaneHead=0;swimlaneBody=0;fillColor=none;collapsible=0;dropTarget=0;points=[[0,0.5],[1,0.5]];portConstraint=eastwest;top=0;left=0;right=0;bottom=0;" parent="xAKMeydSMWTqtz_utKmK-0" vertex="1">
          <mxGeometry y="90" width="180" height="30" as="geometry" />
        </mxCell>
        <mxCell id="xAKMeydSMWTqtz_utKmK-11" style="shape=partialRectangle;connectable=0;fillColor=#A9C4EB;top=0;left=0;bottom=0;right=0;editable=1;overflow=hidden;" parent="xAKMeydSMWTqtz_utKmK-10" vertex="1">
          <mxGeometry width="30" height="30" as="geometry">
            <mxRectangle width="30" height="30" as="alternateBounds" />
          </mxGeometry>
        </mxCell>
        <mxCell id="xAKMeydSMWTqtz_utKmK-12" value="LOAD_DTS" style="shape=partialRectangle;connectable=0;fillColor=#A9C4EB;top=0;left=0;bottom=0;right=0;align=left;spacingLeft=6;overflow=hidden;" parent="xAKMeydSMWTqtz_utKmK-10" vertex="1">
          <mxGeometry x="30" width="150" height="30" as="geometry">
            <mxRectangle width="150" height="30" as="alternateBounds" />
          </mxGeometry>
        </mxCell>
        <mxCell id="xAKMeydSMWTqtz_utKmK-13" style="shape=tableRow;horizontal=0;startSize=0;swimlaneHead=0;swimlaneBody=0;fillColor=none;collapsible=0;dropTarget=0;points=[[0,0.5],[1,0.5]];portConstraint=eastwest;top=0;left=0;right=0;bottom=0;" parent="xAKMeydSMWTqtz_utKmK-0" vertex="1">
          <mxGeometry y="120" width="180" height="30" as="geometry" />
        </mxCell>
        <mxCell id="xAKMeydSMWTqtz_utKmK-14" value="" style="shape=partialRectangle;connectable=0;fillColor=#A9C4EB;top=0;left=0;bottom=0;right=0;editable=1;overflow=hidden;" parent="xAKMeydSMWTqtz_utKmK-13" vertex="1">
          <mxGeometry width="30" height="30" as="geometry">
            <mxRectangle width="30" height="30" as="alternateBounds" />
          </mxGeometry>
        </mxCell>
        <mxCell id="xAKMeydSMWTqtz_utKmK-15" value="REC_SRC" style="shape=partialRectangle;connectable=0;fillColor=#A9C4EB;top=0;left=0;bottom=0;right=0;align=left;spacingLeft=6;overflow=hidden;" parent="xAKMeydSMWTqtz_utKmK-13" vertex="1">
          <mxGeometry x="30" width="150" height="30" as="geometry">
            <mxRectangle width="150" height="30" as="alternateBounds" />
          </mxGeometry>
        </mxCell>
        <mxCell id="fLdI8By5PQ46cvxwp044-14" value="LINK_Cust_Order" style="shape=table;startSize=30;container=1;collapsible=1;childLayout=tableLayout;fixedRows=1;rowLines=0;fontStyle=1;align=center;resizeLast=1;fillColor=#F19C99;" parent="NiVuujKOUFBKynLG8kcs-1" vertex="1">
          <mxGeometry x="60" y="280" width="180" height="160" as="geometry" />
        </mxCell>
        <mxCell id="fLdI8By5PQ46cvxwp044-15" value="" style="shape=tableRow;horizontal=0;startSize=0;swimlaneHead=0;swimlaneBody=0;fillColor=none;collapsible=0;dropTarget=0;points=[[0,0.5],[1,0.5]];portConstraint=eastwest;top=0;left=0;right=0;bottom=1;" parent="fLdI8By5PQ46cvxwp044-14" vertex="1">
          <mxGeometry y="30" width="180" height="30" as="geometry" />
        </mxCell>
        <mxCell id="fLdI8By5PQ46cvxwp044-16" value="PK" style="shape=partialRectangle;connectable=0;fillColor=#F8CECC;top=0;left=0;bottom=0;right=0;fontStyle=1;overflow=hidden;" parent="fLdI8By5PQ46cvxwp044-15" vertex="1">
          <mxGeometry width="30" height="30" as="geometry">
            <mxRectangle width="30" height="30" as="alternateBounds" />
          </mxGeometry>
        </mxCell>
        <mxCell id="fLdI8By5PQ46cvxwp044-17" value="HK_L_Cust_Order" style="shape=partialRectangle;connectable=0;fillColor=#F8CECC;top=0;left=0;bottom=0;right=0;align=left;spacingLeft=6;fontStyle=5;overflow=hidden;" parent="fLdI8By5PQ46cvxwp044-15" vertex="1">
          <mxGeometry x="30" width="150" height="30" as="geometry">
            <mxRectangle width="150" height="30" as="alternateBounds" />
          </mxGeometry>
        </mxCell>
        <mxCell id="fLdI8By5PQ46cvxwp044-18" value="" style="shape=tableRow;horizontal=0;startSize=0;swimlaneHead=0;swimlaneBody=0;fillColor=none;collapsible=0;dropTarget=0;points=[[0,0.5],[1,0.5]];portConstraint=eastwest;top=0;left=0;right=0;bottom=0;" parent="fLdI8By5PQ46cvxwp044-14" vertex="1">
          <mxGeometry y="60" width="180" height="20" as="geometry" />
        </mxCell>
        <mxCell id="fLdI8By5PQ46cvxwp044-19" value="FK" style="shape=partialRectangle;connectable=0;fillColor=#F8CECC;top=0;left=0;bottom=0;right=0;editable=1;overflow=hidden;" parent="fLdI8By5PQ46cvxwp044-18" vertex="1">
          <mxGeometry width="30" height="20" as="geometry">
            <mxRectangle width="30" height="20" as="alternateBounds" />
          </mxGeometry>
        </mxCell>
        <mxCell id="fLdI8By5PQ46cvxwp044-20" value="HK_Customer_ID" style="shape=partialRectangle;connectable=0;fillColor=#F8CECC;top=0;left=0;bottom=0;right=0;align=left;spacingLeft=6;overflow=hidden;" parent="fLdI8By5PQ46cvxwp044-18" vertex="1">
          <mxGeometry x="30" width="150" height="20" as="geometry">
            <mxRectangle width="150" height="20" as="alternateBounds" />
          </mxGeometry>
        </mxCell>
        <mxCell id="fLdI8By5PQ46cvxwp044-21" value="" style="shape=tableRow;horizontal=0;startSize=0;swimlaneHead=0;swimlaneBody=0;fillColor=none;collapsible=0;dropTarget=0;points=[[0,0.5],[1,0.5]];portConstraint=eastwest;top=0;left=0;right=0;bottom=0;" parent="fLdI8By5PQ46cvxwp044-14" vertex="1">
          <mxGeometry y="80" width="180" height="30" as="geometry" />
        </mxCell>
        <mxCell id="fLdI8By5PQ46cvxwp044-22" value="FK" style="shape=partialRectangle;connectable=0;fillColor=#F8CECC;top=0;left=0;bottom=0;right=0;editable=1;overflow=hidden;" parent="fLdI8By5PQ46cvxwp044-21" vertex="1">
          <mxGeometry width="30" height="30" as="geometry">
            <mxRectangle width="30" height="30" as="alternateBounds" />
          </mxGeometry>
        </mxCell>
        <mxCell id="fLdI8By5PQ46cvxwp044-23" value="HK_Order_ID" style="shape=partialRectangle;connectable=0;fillColor=#F8CECC;top=0;left=0;bottom=0;right=0;align=left;spacingLeft=6;overflow=hidden;" parent="fLdI8By5PQ46cvxwp044-21" vertex="1">
          <mxGeometry x="30" width="150" height="30" as="geometry">
            <mxRectangle width="150" height="30" as="alternateBounds" />
          </mxGeometry>
        </mxCell>
        <mxCell id="fLdI8By5PQ46cvxwp044-24" style="shape=tableRow;horizontal=0;startSize=0;swimlaneHead=0;swimlaneBody=0;fillColor=none;collapsible=0;dropTarget=0;points=[[0,0.5],[1,0.5]];portConstraint=eastwest;top=0;left=0;right=0;bottom=0;" parent="fLdI8By5PQ46cvxwp044-14" vertex="1">
          <mxGeometry y="110" width="180" height="30" as="geometry" />
        </mxCell>
        <mxCell id="fLdI8By5PQ46cvxwp044-25" style="shape=partialRectangle;connectable=0;fillColor=#F8CECC;top=0;left=0;bottom=0;right=0;editable=1;overflow=hidden;" parent="fLdI8By5PQ46cvxwp044-24" vertex="1">
          <mxGeometry width="30" height="30" as="geometry">
            <mxRectangle width="30" height="30" as="alternateBounds" />
          </mxGeometry>
        </mxCell>
        <mxCell id="fLdI8By5PQ46cvxwp044-26" value="LOAD_DTS" style="shape=partialRectangle;connectable=0;fillColor=#F8CECC;top=0;left=0;bottom=0;right=0;align=left;spacingLeft=6;overflow=hidden;" parent="fLdI8By5PQ46cvxwp044-24" vertex="1">
          <mxGeometry x="30" width="150" height="30" as="geometry">
            <mxRectangle width="150" height="30" as="alternateBounds" />
          </mxGeometry>
        </mxCell>
        <mxCell id="fLdI8By5PQ46cvxwp044-27" style="shape=tableRow;horizontal=0;startSize=0;swimlaneHead=0;swimlaneBody=0;fillColor=none;collapsible=0;dropTarget=0;points=[[0,0.5],[1,0.5]];portConstraint=eastwest;top=0;left=0;right=0;bottom=0;" parent="fLdI8By5PQ46cvxwp044-14" vertex="1">
          <mxGeometry y="140" width="180" height="20" as="geometry" />
        </mxCell>
        <mxCell id="fLdI8By5PQ46cvxwp044-28" value="" style="shape=partialRectangle;connectable=0;fillColor=#F8CECC;top=0;left=0;bottom=0;right=0;editable=1;overflow=hidden;" parent="fLdI8By5PQ46cvxwp044-27" vertex="1">
          <mxGeometry width="30" height="20" as="geometry">
            <mxRectangle width="30" height="20" as="alternateBounds" />
          </mxGeometry>
        </mxCell>
        <mxCell id="fLdI8By5PQ46cvxwp044-29" value="REC_DTS" style="shape=partialRectangle;connectable=0;fillColor=#F8CECC;top=0;left=0;bottom=0;right=0;align=left;spacingLeft=6;overflow=hidden;" parent="fLdI8By5PQ46cvxwp044-27" vertex="1">
          <mxGeometry x="30" width="150" height="20" as="geometry">
            <mxRectangle width="150" height="20" as="alternateBounds" />
          </mxGeometry>
        </mxCell>
        <mxCell id="psH13lsi_rqc8E1vP_1m-0" value="LINK_Order_Store" style="shape=table;startSize=30;container=1;collapsible=1;childLayout=tableLayout;fixedRows=1;rowLines=0;fontStyle=1;align=center;resizeLast=1;fillColor=#F19C99;" parent="NiVuujKOUFBKynLG8kcs-1" vertex="1">
          <mxGeometry x="60" y="700" width="180" height="180" as="geometry" />
        </mxCell>
        <mxCell id="psH13lsi_rqc8E1vP_1m-1" value="" style="shape=tableRow;horizontal=0;startSize=0;swimlaneHead=0;swimlaneBody=0;fillColor=none;collapsible=0;dropTarget=0;points=[[0,0.5],[1,0.5]];portConstraint=eastwest;top=0;left=0;right=0;bottom=1;" parent="psH13lsi_rqc8E1vP_1m-0" vertex="1">
          <mxGeometry y="30" width="180" height="30" as="geometry" />
        </mxCell>
        <mxCell id="psH13lsi_rqc8E1vP_1m-2" value="PK" style="shape=partialRectangle;connectable=0;fillColor=#F8CECC;top=0;left=0;bottom=0;right=0;fontStyle=1;overflow=hidden;" parent="psH13lsi_rqc8E1vP_1m-1" vertex="1">
          <mxGeometry width="30" height="30" as="geometry">
            <mxRectangle width="30" height="30" as="alternateBounds" />
          </mxGeometry>
        </mxCell>
        <mxCell id="psH13lsi_rqc8E1vP_1m-3" value="HK_L_Order_Store" style="shape=partialRectangle;connectable=0;fillColor=#F8CECC;top=0;left=0;bottom=0;right=0;align=left;spacingLeft=6;fontStyle=5;overflow=hidden;" parent="psH13lsi_rqc8E1vP_1m-1" vertex="1">
          <mxGeometry x="30" width="150" height="30" as="geometry">
            <mxRectangle width="150" height="30" as="alternateBounds" />
          </mxGeometry>
        </mxCell>
        <mxCell id="psH13lsi_rqc8E1vP_1m-4" value="" style="shape=tableRow;horizontal=0;startSize=0;swimlaneHead=0;swimlaneBody=0;fillColor=none;collapsible=0;dropTarget=0;points=[[0,0.5],[1,0.5]];portConstraint=eastwest;top=0;left=0;right=0;bottom=0;" parent="psH13lsi_rqc8E1vP_1m-0" vertex="1">
          <mxGeometry y="60" width="180" height="30" as="geometry" />
        </mxCell>
        <mxCell id="psH13lsi_rqc8E1vP_1m-5" value="FK" style="shape=partialRectangle;connectable=0;fillColor=#F8CECC;top=0;left=0;bottom=0;right=0;editable=1;overflow=hidden;" parent="psH13lsi_rqc8E1vP_1m-4" vertex="1">
          <mxGeometry width="30" height="30" as="geometry">
            <mxRectangle width="30" height="30" as="alternateBounds" />
          </mxGeometry>
        </mxCell>
        <mxCell id="psH13lsi_rqc8E1vP_1m-6" value="HK_Order_ID" style="shape=partialRectangle;connectable=0;fillColor=#F8CECC;top=0;left=0;bottom=0;right=0;align=left;spacingLeft=6;overflow=hidden;" parent="psH13lsi_rqc8E1vP_1m-4" vertex="1">
          <mxGeometry x="30" width="150" height="30" as="geometry">
            <mxRectangle width="150" height="30" as="alternateBounds" />
          </mxGeometry>
        </mxCell>
        <mxCell id="psH13lsi_rqc8E1vP_1m-7" value="" style="shape=tableRow;horizontal=0;startSize=0;swimlaneHead=0;swimlaneBody=0;fillColor=none;collapsible=0;dropTarget=0;points=[[0,0.5],[1,0.5]];portConstraint=eastwest;top=0;left=0;right=0;bottom=0;" parent="psH13lsi_rqc8E1vP_1m-0" vertex="1">
          <mxGeometry y="90" width="180" height="30" as="geometry" />
        </mxCell>
        <mxCell id="psH13lsi_rqc8E1vP_1m-8" value="FK" style="shape=partialRectangle;connectable=0;fillColor=#F8CECC;top=0;left=0;bottom=0;right=0;editable=1;overflow=hidden;" parent="psH13lsi_rqc8E1vP_1m-7" vertex="1">
          <mxGeometry width="30" height="30" as="geometry">
            <mxRectangle width="30" height="30" as="alternateBounds" />
          </mxGeometry>
        </mxCell>
        <mxCell id="psH13lsi_rqc8E1vP_1m-9" value="HK_Store_ID" style="shape=partialRectangle;connectable=0;fillColor=#F8CECC;top=0;left=0;bottom=0;right=0;align=left;spacingLeft=6;overflow=hidden;" parent="psH13lsi_rqc8E1vP_1m-7" vertex="1">
          <mxGeometry x="30" width="150" height="30" as="geometry">
            <mxRectangle width="150" height="30" as="alternateBounds" />
          </mxGeometry>
        </mxCell>
        <mxCell id="psH13lsi_rqc8E1vP_1m-10" value="" style="shape=tableRow;horizontal=0;startSize=0;swimlaneHead=0;swimlaneBody=0;fillColor=none;collapsible=0;dropTarget=0;points=[[0,0.5],[1,0.5]];portConstraint=eastwest;top=0;left=0;right=0;bottom=0;" parent="psH13lsi_rqc8E1vP_1m-0" vertex="1">
          <mxGeometry y="120" width="180" height="30" as="geometry" />
        </mxCell>
        <mxCell id="psH13lsi_rqc8E1vP_1m-11" value="" style="shape=partialRectangle;connectable=0;fillColor=#F8CECC;top=0;left=0;bottom=0;right=0;editable=1;overflow=hidden;" parent="psH13lsi_rqc8E1vP_1m-10" vertex="1">
          <mxGeometry width="30" height="30" as="geometry">
            <mxRectangle width="30" height="30" as="alternateBounds" />
          </mxGeometry>
        </mxCell>
        <mxCell id="psH13lsi_rqc8E1vP_1m-12" value="LOAD_DTS" style="shape=partialRectangle;connectable=0;fillColor=#F8CECC;top=0;left=0;bottom=0;right=0;align=left;spacingLeft=6;overflow=hidden;" parent="psH13lsi_rqc8E1vP_1m-10" vertex="1">
          <mxGeometry x="30" width="150" height="30" as="geometry">
            <mxRectangle width="150" height="30" as="alternateBounds" />
          </mxGeometry>
        </mxCell>
        <mxCell id="psH13lsi_rqc8E1vP_1m-13" style="shape=tableRow;horizontal=0;startSize=0;swimlaneHead=0;swimlaneBody=0;fillColor=none;collapsible=0;dropTarget=0;points=[[0,0.5],[1,0.5]];portConstraint=eastwest;top=0;left=0;right=0;bottom=0;" parent="psH13lsi_rqc8E1vP_1m-0" vertex="1">
          <mxGeometry y="150" width="180" height="30" as="geometry" />
        </mxCell>
        <mxCell id="psH13lsi_rqc8E1vP_1m-14" style="shape=partialRectangle;connectable=0;fillColor=#F8CECC;top=0;left=0;bottom=0;right=0;editable=1;overflow=hidden;" parent="psH13lsi_rqc8E1vP_1m-13" vertex="1">
          <mxGeometry width="30" height="30" as="geometry">
            <mxRectangle width="30" height="30" as="alternateBounds" />
          </mxGeometry>
        </mxCell>
        <mxCell id="psH13lsi_rqc8E1vP_1m-15" value="REC_DTS" style="shape=partialRectangle;connectable=0;fillColor=#F8CECC;top=0;left=0;bottom=0;right=0;align=left;spacingLeft=6;overflow=hidden;" parent="psH13lsi_rqc8E1vP_1m-13" vertex="1">
          <mxGeometry x="30" width="150" height="30" as="geometry">
            <mxRectangle width="150" height="30" as="alternateBounds" />
          </mxGeometry>
        </mxCell>
        <mxCell id="psH13lsi_rqc8E1vP_1m-16" value="Customer" style="shape=table;startSize=30;container=1;collapsible=1;childLayout=tableLayout;fixedRows=1;rowLines=0;fontStyle=1;align=center;resizeLast=1;fillColor=#FFD966;" parent="NiVuujKOUFBKynLG8kcs-1" vertex="1">
          <mxGeometry x="-220" y="60" width="202" height="200" as="geometry" />
        </mxCell>
        <mxCell id="psH13lsi_rqc8E1vP_1m-17" value="" style="shape=tableRow;horizontal=0;startSize=0;swimlaneHead=0;swimlaneBody=0;fillColor=none;collapsible=0;dropTarget=0;points=[[0,0.5],[1,0.5]];portConstraint=eastwest;top=0;left=0;right=0;bottom=1;" parent="psH13lsi_rqc8E1vP_1m-16" vertex="1">
          <mxGeometry y="30" width="202" height="30" as="geometry" />
        </mxCell>
        <mxCell id="psH13lsi_rqc8E1vP_1m-18" value="PK, FK" style="shape=partialRectangle;connectable=0;fillColor=#FFF2CC;top=0;left=0;bottom=0;right=0;fontStyle=1;overflow=hidden;" parent="psH13lsi_rqc8E1vP_1m-17" vertex="1">
          <mxGeometry width="40.00000000000023" height="30" as="geometry">
            <mxRectangle width="40.00000000000023" height="30" as="alternateBounds" />
          </mxGeometry>
        </mxCell>
        <mxCell id="psH13lsi_rqc8E1vP_1m-19" value="HK_Customer_ID" style="shape=partialRectangle;connectable=0;fillColor=#FFF2CC;top=0;left=0;bottom=0;right=0;align=left;spacingLeft=6;fontStyle=5;overflow=hidden;" parent="psH13lsi_rqc8E1vP_1m-17" vertex="1">
          <mxGeometry x="40.00000000000023" width="161.99999999999977" height="30" as="geometry">
            <mxRectangle width="161.99999999999977" height="30" as="alternateBounds" />
          </mxGeometry>
        </mxCell>
        <mxCell id="HUqnpOogoAp_eHOxZS8E-0" style="shape=tableRow;horizontal=0;startSize=0;swimlaneHead=0;swimlaneBody=0;fillColor=none;collapsible=0;dropTarget=0;points=[[0,0.5],[1,0.5]];portConstraint=eastwest;top=0;left=0;right=0;bottom=1;" parent="psH13lsi_rqc8E1vP_1m-16" vertex="1">
          <mxGeometry y="60" width="202" height="30" as="geometry" />
        </mxCell>
        <mxCell id="HUqnpOogoAp_eHOxZS8E-1" value="PK" style="shape=partialRectangle;connectable=0;fillColor=#FFF2CC;top=0;left=0;bottom=0;right=0;fontStyle=1;overflow=hidden;" parent="HUqnpOogoAp_eHOxZS8E-0" vertex="1">
          <mxGeometry width="40.00000000000023" height="30" as="geometry">
            <mxRectangle width="40.00000000000023" height="30" as="alternateBounds" />
          </mxGeometry>
        </mxCell>
        <mxCell id="HUqnpOogoAp_eHOxZS8E-2" value="LOAD_DTS" style="shape=partialRectangle;connectable=0;fillColor=#FFF2CC;top=0;left=0;bottom=0;right=0;align=left;spacingLeft=6;fontStyle=5;overflow=hidden;" parent="HUqnpOogoAp_eHOxZS8E-0" vertex="1">
          <mxGeometry x="40.00000000000023" width="161.99999999999977" height="30" as="geometry">
            <mxRectangle width="161.99999999999977" height="30" as="alternateBounds" />
          </mxGeometry>
        </mxCell>
        <mxCell id="psH13lsi_rqc8E1vP_1m-20" value="" style="shape=tableRow;horizontal=0;startSize=0;swimlaneHead=0;swimlaneBody=0;fillColor=none;collapsible=0;dropTarget=0;points=[[0,0.5],[1,0.5]];portConstraint=eastwest;top=0;left=0;right=0;bottom=0;" parent="psH13lsi_rqc8E1vP_1m-16" vertex="1">
          <mxGeometry y="90" width="202" height="30" as="geometry" />
        </mxCell>
        <mxCell id="psH13lsi_rqc8E1vP_1m-21" value="" style="shape=partialRectangle;connectable=0;fillColor=#FFF2CC;top=0;left=0;bottom=0;right=0;editable=1;overflow=hidden;" parent="psH13lsi_rqc8E1vP_1m-20" vertex="1">
          <mxGeometry width="40.00000000000023" height="30" as="geometry">
            <mxRectangle width="40.00000000000023" height="30" as="alternateBounds" />
          </mxGeometry>
        </mxCell>
        <mxCell id="psH13lsi_rqc8E1vP_1m-22" value="First_Name" style="shape=partialRectangle;connectable=0;fillColor=#FFF2CC;top=0;left=0;bottom=0;right=0;align=left;spacingLeft=6;overflow=hidden;" parent="psH13lsi_rqc8E1vP_1m-20" vertex="1">
          <mxGeometry x="40.00000000000023" width="161.99999999999977" height="30" as="geometry">
            <mxRectangle width="161.99999999999977" height="30" as="alternateBounds" />
          </mxGeometry>
        </mxCell>
        <mxCell id="psH13lsi_rqc8E1vP_1m-23" value="" style="shape=tableRow;horizontal=0;startSize=0;swimlaneHead=0;swimlaneBody=0;fillColor=none;collapsible=0;dropTarget=0;points=[[0,0.5],[1,0.5]];portConstraint=eastwest;top=0;left=0;right=0;bottom=0;" parent="psH13lsi_rqc8E1vP_1m-16" vertex="1">
          <mxGeometry y="120" width="202" height="20" as="geometry" />
        </mxCell>
        <mxCell id="psH13lsi_rqc8E1vP_1m-24" value="" style="shape=partialRectangle;connectable=0;fillColor=#FFF2CC;top=0;left=0;bottom=0;right=0;editable=1;overflow=hidden;" parent="psH13lsi_rqc8E1vP_1m-23" vertex="1">
          <mxGeometry width="40.00000000000023" height="20" as="geometry">
            <mxRectangle width="40.00000000000023" height="20" as="alternateBounds" />
          </mxGeometry>
        </mxCell>
        <mxCell id="psH13lsi_rqc8E1vP_1m-25" value="Last_Name" style="shape=partialRectangle;connectable=0;fillColor=#FFF2CC;top=0;left=0;bottom=0;right=0;align=left;spacingLeft=6;overflow=hidden;" parent="psH13lsi_rqc8E1vP_1m-23" vertex="1">
          <mxGeometry x="40.00000000000023" width="161.99999999999977" height="20" as="geometry">
            <mxRectangle width="161.99999999999977" height="20" as="alternateBounds" />
          </mxGeometry>
        </mxCell>
        <mxCell id="psH13lsi_rqc8E1vP_1m-26" style="shape=tableRow;horizontal=0;startSize=0;swimlaneHead=0;swimlaneBody=0;fillColor=none;collapsible=0;dropTarget=0;points=[[0,0.5],[1,0.5]];portConstraint=eastwest;top=0;left=0;right=0;bottom=0;" parent="psH13lsi_rqc8E1vP_1m-16" vertex="1">
          <mxGeometry y="140" width="202" height="30" as="geometry" />
        </mxCell>
        <mxCell id="psH13lsi_rqc8E1vP_1m-27" style="shape=partialRectangle;connectable=0;fillColor=#FFF2CC;top=0;left=0;bottom=0;right=0;editable=1;overflow=hidden;" parent="psH13lsi_rqc8E1vP_1m-26" vertex="1">
          <mxGeometry width="40.00000000000023" height="30" as="geometry">
            <mxRectangle width="40.00000000000023" height="30" as="alternateBounds" />
          </mxGeometry>
        </mxCell>
        <mxCell id="psH13lsi_rqc8E1vP_1m-28" value="Email" style="shape=partialRectangle;connectable=0;fillColor=#FFF2CC;top=0;left=0;bottom=0;right=0;align=left;spacingLeft=6;overflow=hidden;" parent="psH13lsi_rqc8E1vP_1m-26" vertex="1">
          <mxGeometry x="40.00000000000023" width="161.99999999999977" height="30" as="geometry">
            <mxRectangle width="161.99999999999977" height="30" as="alternateBounds" />
          </mxGeometry>
        </mxCell>
        <mxCell id="HUqnpOogoAp_eHOxZS8E-22" style="shape=tableRow;horizontal=0;startSize=0;swimlaneHead=0;swimlaneBody=0;fillColor=none;collapsible=0;dropTarget=0;points=[[0,0.5],[1,0.5]];portConstraint=eastwest;top=0;left=0;right=0;bottom=0;" parent="psH13lsi_rqc8E1vP_1m-16" vertex="1">
          <mxGeometry y="170" width="202" height="30" as="geometry" />
        </mxCell>
        <mxCell id="HUqnpOogoAp_eHOxZS8E-23" style="shape=partialRectangle;connectable=0;fillColor=#FFF2CC;top=0;left=0;bottom=0;right=0;editable=1;overflow=hidden;" parent="HUqnpOogoAp_eHOxZS8E-22" vertex="1">
          <mxGeometry width="40.00000000000023" height="30" as="geometry">
            <mxRectangle width="40.00000000000023" height="30" as="alternateBounds" />
          </mxGeometry>
        </mxCell>
        <mxCell id="HUqnpOogoAp_eHOxZS8E-24" value="REC_SRC" style="shape=partialRectangle;connectable=0;fillColor=#FFF2CC;top=0;left=0;bottom=0;right=0;align=left;spacingLeft=6;overflow=hidden;" parent="HUqnpOogoAp_eHOxZS8E-22" vertex="1">
          <mxGeometry x="40.00000000000023" width="161.99999999999977" height="30" as="geometry">
            <mxRectangle width="161.99999999999977" height="30" as="alternateBounds" />
          </mxGeometry>
        </mxCell>
        <mxCell id="psH13lsi_rqc8E1vP_1m-64" value="HUB_Store" style="shape=table;startSize=30;container=1;collapsible=1;childLayout=tableLayout;fixedRows=1;rowLines=0;fontStyle=1;align=center;resizeLast=1;fillColor=#7EA6E0;" parent="NiVuujKOUFBKynLG8kcs-1" vertex="1">
          <mxGeometry x="60" y="920" width="180" height="120" as="geometry" />
        </mxCell>
        <mxCell id="psH13lsi_rqc8E1vP_1m-65" value="" style="shape=tableRow;horizontal=0;startSize=0;swimlaneHead=0;swimlaneBody=0;fillColor=none;collapsible=0;dropTarget=0;points=[[0,0.5],[1,0.5]];portConstraint=eastwest;top=0;left=0;right=0;bottom=1;" parent="psH13lsi_rqc8E1vP_1m-64" vertex="1">
          <mxGeometry y="30" width="180" height="30" as="geometry" />
        </mxCell>
        <mxCell id="psH13lsi_rqc8E1vP_1m-66" value="PK" style="shape=partialRectangle;connectable=0;fillColor=#A9C4EB;top=0;left=0;bottom=0;right=0;fontStyle=1;overflow=hidden;" parent="psH13lsi_rqc8E1vP_1m-65" vertex="1">
          <mxGeometry width="30" height="30" as="geometry">
            <mxRectangle width="30" height="30" as="alternateBounds" />
          </mxGeometry>
        </mxCell>
        <mxCell id="psH13lsi_rqc8E1vP_1m-67" value="HK_Store_ID" style="shape=partialRectangle;connectable=0;fillColor=#A9C4EB;top=0;left=0;bottom=0;right=0;align=left;spacingLeft=6;fontStyle=5;overflow=hidden;" parent="psH13lsi_rqc8E1vP_1m-65" vertex="1">
          <mxGeometry x="30" width="150" height="30" as="geometry">
            <mxRectangle width="150" height="30" as="alternateBounds" />
          </mxGeometry>
        </mxCell>
        <mxCell id="psH13lsi_rqc8E1vP_1m-71" style="shape=tableRow;horizontal=0;startSize=0;swimlaneHead=0;swimlaneBody=0;fillColor=none;collapsible=0;dropTarget=0;points=[[0,0.5],[1,0.5]];portConstraint=eastwest;top=0;left=0;right=0;bottom=0;" parent="psH13lsi_rqc8E1vP_1m-64" vertex="1">
          <mxGeometry y="60" width="180" height="30" as="geometry" />
        </mxCell>
        <mxCell id="psH13lsi_rqc8E1vP_1m-72" value="" style="shape=partialRectangle;connectable=0;fillColor=#A9C4EB;top=0;left=0;bottom=0;right=0;editable=1;overflow=hidden;" parent="psH13lsi_rqc8E1vP_1m-71" vertex="1">
          <mxGeometry width="30" height="30" as="geometry">
            <mxRectangle width="30" height="30" as="alternateBounds" />
          </mxGeometry>
        </mxCell>
        <mxCell id="psH13lsi_rqc8E1vP_1m-73" value="LOAD_DTS" style="shape=partialRectangle;connectable=0;fillColor=#A9C4EB;top=0;left=0;bottom=0;right=0;align=left;spacingLeft=6;overflow=hidden;" parent="psH13lsi_rqc8E1vP_1m-71" vertex="1">
          <mxGeometry x="30" width="150" height="30" as="geometry">
            <mxRectangle width="150" height="30" as="alternateBounds" />
          </mxGeometry>
        </mxCell>
        <mxCell id="psH13lsi_rqc8E1vP_1m-74" style="shape=tableRow;horizontal=0;startSize=0;swimlaneHead=0;swimlaneBody=0;fillColor=none;collapsible=0;dropTarget=0;points=[[0,0.5],[1,0.5]];portConstraint=eastwest;top=0;left=0;right=0;bottom=0;" parent="psH13lsi_rqc8E1vP_1m-64" vertex="1">
          <mxGeometry y="90" width="180" height="30" as="geometry" />
        </mxCell>
        <mxCell id="psH13lsi_rqc8E1vP_1m-75" value="" style="shape=partialRectangle;connectable=0;fillColor=#A9C4EB;top=0;left=0;bottom=0;right=0;editable=1;overflow=hidden;" parent="psH13lsi_rqc8E1vP_1m-74" vertex="1">
          <mxGeometry width="30" height="30" as="geometry">
            <mxRectangle width="30" height="30" as="alternateBounds" />
          </mxGeometry>
        </mxCell>
        <mxCell id="psH13lsi_rqc8E1vP_1m-76" value="REC_SRC" style="shape=partialRectangle;connectable=0;fillColor=#A9C4EB;top=0;left=0;bottom=0;right=0;align=left;spacingLeft=6;overflow=hidden;" parent="psH13lsi_rqc8E1vP_1m-74" vertex="1">
          <mxGeometry x="30" width="150" height="30" as="geometry">
            <mxRectangle width="150" height="30" as="alternateBounds" />
          </mxGeometry>
        </mxCell>
        <mxCell id="psH13lsi_rqc8E1vP_1m-93" value="HUB_Product" style="shape=table;startSize=30;container=1;collapsible=1;childLayout=tableLayout;fixedRows=1;rowLines=0;fontStyle=1;align=center;resizeLast=1;fillColor=#7EA6E0;" parent="NiVuujKOUFBKynLG8kcs-1" vertex="1">
          <mxGeometry x="580" y="500" width="180" height="150" as="geometry" />
        </mxCell>
        <mxCell id="psH13lsi_rqc8E1vP_1m-94" value="" style="shape=tableRow;horizontal=0;startSize=0;swimlaneHead=0;swimlaneBody=0;fillColor=none;collapsible=0;dropTarget=0;points=[[0,0.5],[1,0.5]];portConstraint=eastwest;top=0;left=0;right=0;bottom=1;" parent="psH13lsi_rqc8E1vP_1m-93" vertex="1">
          <mxGeometry y="30" width="180" height="30" as="geometry" />
        </mxCell>
        <mxCell id="psH13lsi_rqc8E1vP_1m-95" value="PK" style="shape=partialRectangle;connectable=0;fillColor=#A9C4EB;top=0;left=0;bottom=0;right=0;fontStyle=1;overflow=hidden;" parent="psH13lsi_rqc8E1vP_1m-94" vertex="1">
          <mxGeometry width="30" height="30" as="geometry">
            <mxRectangle width="30" height="30" as="alternateBounds" />
          </mxGeometry>
        </mxCell>
        <mxCell id="psH13lsi_rqc8E1vP_1m-96" value="HK_Prod_ID" style="shape=partialRectangle;connectable=0;fillColor=#A9C4EB;top=0;left=0;bottom=0;right=0;align=left;spacingLeft=6;fontStyle=5;overflow=hidden;" parent="psH13lsi_rqc8E1vP_1m-94" vertex="1">
          <mxGeometry x="30" width="150" height="30" as="geometry">
            <mxRectangle width="150" height="30" as="alternateBounds" />
          </mxGeometry>
        </mxCell>
        <mxCell id="psH13lsi_rqc8E1vP_1m-97" value="" style="shape=tableRow;horizontal=0;startSize=0;swimlaneHead=0;swimlaneBody=0;fillColor=none;collapsible=0;dropTarget=0;points=[[0,0.5],[1,0.5]];portConstraint=eastwest;top=0;left=0;right=0;bottom=0;" parent="psH13lsi_rqc8E1vP_1m-93" vertex="1">
          <mxGeometry y="60" width="180" height="30" as="geometry" />
        </mxCell>
        <mxCell id="psH13lsi_rqc8E1vP_1m-98" value="" style="shape=partialRectangle;connectable=0;fillColor=#A9C4EB;top=0;left=0;bottom=0;right=0;editable=1;overflow=hidden;" parent="psH13lsi_rqc8E1vP_1m-97" vertex="1">
          <mxGeometry width="30" height="30" as="geometry">
            <mxRectangle width="30" height="30" as="alternateBounds" />
          </mxGeometry>
        </mxCell>
        <mxCell id="psH13lsi_rqc8E1vP_1m-99" value="Order_Date" style="shape=partialRectangle;connectable=0;fillColor=#A9C4EB;top=0;left=0;bottom=0;right=0;align=left;spacingLeft=6;overflow=hidden;" parent="psH13lsi_rqc8E1vP_1m-97" vertex="1">
          <mxGeometry x="30" width="150" height="30" as="geometry">
            <mxRectangle width="150" height="30" as="alternateBounds" />
          </mxGeometry>
        </mxCell>
        <mxCell id="psH13lsi_rqc8E1vP_1m-100" style="shape=tableRow;horizontal=0;startSize=0;swimlaneHead=0;swimlaneBody=0;fillColor=none;collapsible=0;dropTarget=0;points=[[0,0.5],[1,0.5]];portConstraint=eastwest;top=0;left=0;right=0;bottom=0;" parent="psH13lsi_rqc8E1vP_1m-93" vertex="1">
          <mxGeometry y="90" width="180" height="30" as="geometry" />
        </mxCell>
        <mxCell id="psH13lsi_rqc8E1vP_1m-101" value="" style="shape=partialRectangle;connectable=0;fillColor=#A9C4EB;top=0;left=0;bottom=0;right=0;editable=1;overflow=hidden;" parent="psH13lsi_rqc8E1vP_1m-100" vertex="1">
          <mxGeometry width="30" height="30" as="geometry">
            <mxRectangle width="30" height="30" as="alternateBounds" />
          </mxGeometry>
        </mxCell>
        <mxCell id="psH13lsi_rqc8E1vP_1m-102" value="LOAD_DTS" style="shape=partialRectangle;connectable=0;fillColor=#A9C4EB;top=0;left=0;bottom=0;right=0;align=left;spacingLeft=6;overflow=hidden;" parent="psH13lsi_rqc8E1vP_1m-100" vertex="1">
          <mxGeometry x="30" width="150" height="30" as="geometry">
            <mxRectangle width="150" height="30" as="alternateBounds" />
          </mxGeometry>
        </mxCell>
        <mxCell id="psH13lsi_rqc8E1vP_1m-103" style="shape=tableRow;horizontal=0;startSize=0;swimlaneHead=0;swimlaneBody=0;fillColor=none;collapsible=0;dropTarget=0;points=[[0,0.5],[1,0.5]];portConstraint=eastwest;top=0;left=0;right=0;bottom=0;" parent="psH13lsi_rqc8E1vP_1m-93" vertex="1">
          <mxGeometry y="120" width="180" height="30" as="geometry" />
        </mxCell>
        <mxCell id="psH13lsi_rqc8E1vP_1m-104" value="" style="shape=partialRectangle;connectable=0;fillColor=#A9C4EB;top=0;left=0;bottom=0;right=0;editable=1;overflow=hidden;" parent="psH13lsi_rqc8E1vP_1m-103" vertex="1">
          <mxGeometry width="30" height="30" as="geometry">
            <mxRectangle width="30" height="30" as="alternateBounds" />
          </mxGeometry>
        </mxCell>
        <mxCell id="psH13lsi_rqc8E1vP_1m-105" value="REC_SRC" style="shape=partialRectangle;connectable=0;fillColor=#A9C4EB;top=0;left=0;bottom=0;right=0;align=left;spacingLeft=6;overflow=hidden;" parent="psH13lsi_rqc8E1vP_1m-103" vertex="1">
          <mxGeometry x="30" width="150" height="30" as="geometry">
            <mxRectangle width="150" height="30" as="alternateBounds" />
          </mxGeometry>
        </mxCell>
        <mxCell id="psH13lsi_rqc8E1vP_1m-106" value="SAT_Product" style="shape=table;startSize=30;container=1;collapsible=1;childLayout=tableLayout;fixedRows=1;rowLines=0;fontStyle=1;align=center;resizeLast=1;fillColor=#FFD966;" parent="NiVuujKOUFBKynLG8kcs-1" vertex="1">
          <mxGeometry x="827" y="360" width="190" height="150" as="geometry" />
        </mxCell>
        <mxCell id="psH13lsi_rqc8E1vP_1m-107" value="" style="shape=tableRow;horizontal=0;startSize=0;swimlaneHead=0;swimlaneBody=0;fillColor=none;collapsible=0;dropTarget=0;points=[[0,0.5],[1,0.5]];portConstraint=eastwest;top=0;left=0;right=0;bottom=1;" parent="psH13lsi_rqc8E1vP_1m-106" vertex="1">
          <mxGeometry y="30" width="190" height="30" as="geometry" />
        </mxCell>
        <mxCell id="psH13lsi_rqc8E1vP_1m-108" value="PK, FK" style="shape=partialRectangle;connectable=0;fillColor=#FFF2CC;top=0;left=0;bottom=0;right=0;fontStyle=1;overflow=hidden;" parent="psH13lsi_rqc8E1vP_1m-107" vertex="1">
          <mxGeometry width="50" height="30" as="geometry">
            <mxRectangle width="50" height="30" as="alternateBounds" />
          </mxGeometry>
        </mxCell>
        <mxCell id="psH13lsi_rqc8E1vP_1m-109" value="HK_Prod_ID" style="shape=partialRectangle;connectable=0;fillColor=#FFF2CC;top=0;left=0;bottom=0;right=0;align=left;spacingLeft=6;fontStyle=5;overflow=hidden;" parent="psH13lsi_rqc8E1vP_1m-107" vertex="1">
          <mxGeometry x="50" width="140" height="30" as="geometry">
            <mxRectangle width="140" height="30" as="alternateBounds" />
          </mxGeometry>
        </mxCell>
        <mxCell id="psH13lsi_rqc8E1vP_1m-122" style="shape=tableRow;horizontal=0;startSize=0;swimlaneHead=0;swimlaneBody=0;fillColor=none;collapsible=0;dropTarget=0;points=[[0,0.5],[1,0.5]];portConstraint=eastwest;top=0;left=0;right=0;bottom=1;" parent="psH13lsi_rqc8E1vP_1m-106" vertex="1">
          <mxGeometry y="60" width="190" height="30" as="geometry" />
        </mxCell>
        <mxCell id="psH13lsi_rqc8E1vP_1m-123" value="PK" style="shape=partialRectangle;connectable=0;fillColor=#FFF2CC;top=0;left=0;bottom=0;right=0;fontStyle=1;overflow=hidden;" parent="psH13lsi_rqc8E1vP_1m-122" vertex="1">
          <mxGeometry width="50" height="30" as="geometry">
            <mxRectangle width="50" height="30" as="alternateBounds" />
          </mxGeometry>
        </mxCell>
        <mxCell id="psH13lsi_rqc8E1vP_1m-124" value="LOAD_DTS" style="shape=partialRectangle;connectable=0;fillColor=#FFF2CC;top=0;left=0;bottom=0;right=0;align=left;spacingLeft=6;fontStyle=5;overflow=hidden;" parent="psH13lsi_rqc8E1vP_1m-122" vertex="1">
          <mxGeometry x="50" width="140" height="30" as="geometry">
            <mxRectangle width="140" height="30" as="alternateBounds" />
          </mxGeometry>
        </mxCell>
        <mxCell id="psH13lsi_rqc8E1vP_1m-119" style="shape=tableRow;horizontal=0;startSize=0;swimlaneHead=0;swimlaneBody=0;fillColor=none;collapsible=0;dropTarget=0;points=[[0,0.5],[1,0.5]];portConstraint=eastwest;top=0;left=0;right=0;bottom=0;" parent="psH13lsi_rqc8E1vP_1m-106" vertex="1">
          <mxGeometry y="90" width="190" height="30" as="geometry" />
        </mxCell>
        <mxCell id="psH13lsi_rqc8E1vP_1m-120" value="" style="shape=partialRectangle;connectable=0;fillColor=#FFF2CC;top=0;left=0;bottom=0;right=0;editable=1;overflow=hidden;" parent="psH13lsi_rqc8E1vP_1m-119" vertex="1">
          <mxGeometry width="50" height="30" as="geometry">
            <mxRectangle width="50" height="30" as="alternateBounds" />
          </mxGeometry>
        </mxCell>
        <mxCell id="psH13lsi_rqc8E1vP_1m-121" value="Product_Name" style="shape=partialRectangle;connectable=0;fillColor=#FFF2CC;top=0;left=0;bottom=0;right=0;align=left;spacingLeft=6;overflow=hidden;" parent="psH13lsi_rqc8E1vP_1m-119" vertex="1">
          <mxGeometry x="50" width="140" height="30" as="geometry">
            <mxRectangle width="140" height="30" as="alternateBounds" />
          </mxGeometry>
        </mxCell>
        <mxCell id="BHszQP2_QIjnQDcjIjeB-0" style="shape=tableRow;horizontal=0;startSize=0;swimlaneHead=0;swimlaneBody=0;fillColor=none;collapsible=0;dropTarget=0;points=[[0,0.5],[1,0.5]];portConstraint=eastwest;top=0;left=0;right=0;bottom=0;" parent="psH13lsi_rqc8E1vP_1m-106" vertex="1">
          <mxGeometry y="120" width="190" height="30" as="geometry" />
        </mxCell>
        <mxCell id="BHszQP2_QIjnQDcjIjeB-1" style="shape=partialRectangle;connectable=0;fillColor=#FFF2CC;top=0;left=0;bottom=0;right=0;editable=1;overflow=hidden;" parent="BHszQP2_QIjnQDcjIjeB-0" vertex="1">
          <mxGeometry width="50" height="30" as="geometry">
            <mxRectangle width="50" height="30" as="alternateBounds" />
          </mxGeometry>
        </mxCell>
        <mxCell id="BHszQP2_QIjnQDcjIjeB-2" value="REC_SRC" style="shape=partialRectangle;connectable=0;fillColor=#FFF2CC;top=0;left=0;bottom=0;right=0;align=left;spacingLeft=6;overflow=hidden;" parent="BHszQP2_QIjnQDcjIjeB-0" vertex="1">
          <mxGeometry x="50" width="140" height="30" as="geometry">
            <mxRectangle width="140" height="30" as="alternateBounds" />
          </mxGeometry>
        </mxCell>
        <mxCell id="BHszQP2_QIjnQDcjIjeB-3" value="SAT_Category" style="shape=table;startSize=30;container=1;collapsible=1;childLayout=tableLayout;fixedRows=1;rowLines=0;fontStyle=1;align=center;resizeLast=1;fillColor=#FFD966;" parent="NiVuujKOUFBKynLG8kcs-1" vertex="1">
          <mxGeometry x="827" y="550" width="190" height="150" as="geometry" />
        </mxCell>
        <mxCell id="BHszQP2_QIjnQDcjIjeB-4" value="" style="shape=tableRow;horizontal=0;startSize=0;swimlaneHead=0;swimlaneBody=0;fillColor=none;collapsible=0;dropTarget=0;points=[[0,0.5],[1,0.5]];portConstraint=eastwest;top=0;left=0;right=0;bottom=1;" parent="BHszQP2_QIjnQDcjIjeB-3" vertex="1">
          <mxGeometry y="30" width="190" height="30" as="geometry" />
        </mxCell>
        <mxCell id="BHszQP2_QIjnQDcjIjeB-5" value="PK, FK" style="shape=partialRectangle;connectable=0;fillColor=#FFF2CC;top=0;left=0;bottom=0;right=0;fontStyle=1;overflow=hidden;" parent="BHszQP2_QIjnQDcjIjeB-4" vertex="1">
          <mxGeometry width="50" height="30" as="geometry">
            <mxRectangle width="50" height="30" as="alternateBounds" />
          </mxGeometry>
        </mxCell>
        <mxCell id="BHszQP2_QIjnQDcjIjeB-6" value="HK_Pod_ID" style="shape=partialRectangle;connectable=0;fillColor=#FFF2CC;top=0;left=0;bottom=0;right=0;align=left;spacingLeft=6;fontStyle=5;overflow=hidden;" parent="BHszQP2_QIjnQDcjIjeB-4" vertex="1">
          <mxGeometry x="50" width="140" height="30" as="geometry">
            <mxRectangle width="140" height="30" as="alternateBounds" />
          </mxGeometry>
        </mxCell>
        <mxCell id="BHszQP2_QIjnQDcjIjeB-7" style="shape=tableRow;horizontal=0;startSize=0;swimlaneHead=0;swimlaneBody=0;fillColor=none;collapsible=0;dropTarget=0;points=[[0,0.5],[1,0.5]];portConstraint=eastwest;top=0;left=0;right=0;bottom=1;" parent="BHszQP2_QIjnQDcjIjeB-3" vertex="1">
          <mxGeometry y="60" width="190" height="30" as="geometry" />
        </mxCell>
        <mxCell id="BHszQP2_QIjnQDcjIjeB-8" value="PK" style="shape=partialRectangle;connectable=0;fillColor=#FFF2CC;top=0;left=0;bottom=0;right=0;fontStyle=1;overflow=hidden;" parent="BHszQP2_QIjnQDcjIjeB-7" vertex="1">
          <mxGeometry width="50" height="30" as="geometry">
            <mxRectangle width="50" height="30" as="alternateBounds" />
          </mxGeometry>
        </mxCell>
        <mxCell id="BHszQP2_QIjnQDcjIjeB-9" value="LOAD_DTS" style="shape=partialRectangle;connectable=0;fillColor=#FFF2CC;top=0;left=0;bottom=0;right=0;align=left;spacingLeft=6;fontStyle=5;overflow=hidden;" parent="BHszQP2_QIjnQDcjIjeB-7" vertex="1">
          <mxGeometry x="50" width="140" height="30" as="geometry">
            <mxRectangle width="140" height="30" as="alternateBounds" />
          </mxGeometry>
        </mxCell>
        <mxCell id="BHszQP2_QIjnQDcjIjeB-10" style="shape=tableRow;horizontal=0;startSize=0;swimlaneHead=0;swimlaneBody=0;fillColor=none;collapsible=0;dropTarget=0;points=[[0,0.5],[1,0.5]];portConstraint=eastwest;top=0;left=0;right=0;bottom=0;" parent="BHszQP2_QIjnQDcjIjeB-3" vertex="1">
          <mxGeometry y="90" width="190" height="30" as="geometry" />
        </mxCell>
        <mxCell id="BHszQP2_QIjnQDcjIjeB-11" value="" style="shape=partialRectangle;connectable=0;fillColor=#FFF2CC;top=0;left=0;bottom=0;right=0;editable=1;overflow=hidden;" parent="BHszQP2_QIjnQDcjIjeB-10" vertex="1">
          <mxGeometry width="50" height="30" as="geometry">
            <mxRectangle width="50" height="30" as="alternateBounds" />
          </mxGeometry>
        </mxCell>
        <mxCell id="BHszQP2_QIjnQDcjIjeB-12" value="Category_Name" style="shape=partialRectangle;connectable=0;fillColor=#FFF2CC;top=0;left=0;bottom=0;right=0;align=left;spacingLeft=6;overflow=hidden;" parent="BHszQP2_QIjnQDcjIjeB-10" vertex="1">
          <mxGeometry x="50" width="140" height="30" as="geometry">
            <mxRectangle width="140" height="30" as="alternateBounds" />
          </mxGeometry>
        </mxCell>
        <mxCell id="BHszQP2_QIjnQDcjIjeB-13" style="shape=tableRow;horizontal=0;startSize=0;swimlaneHead=0;swimlaneBody=0;fillColor=none;collapsible=0;dropTarget=0;points=[[0,0.5],[1,0.5]];portConstraint=eastwest;top=0;left=0;right=0;bottom=0;" parent="BHszQP2_QIjnQDcjIjeB-3" vertex="1">
          <mxGeometry y="120" width="190" height="30" as="geometry" />
        </mxCell>
        <mxCell id="BHszQP2_QIjnQDcjIjeB-14" style="shape=partialRectangle;connectable=0;fillColor=#FFF2CC;top=0;left=0;bottom=0;right=0;editable=1;overflow=hidden;" parent="BHszQP2_QIjnQDcjIjeB-13" vertex="1">
          <mxGeometry width="50" height="30" as="geometry">
            <mxRectangle width="50" height="30" as="alternateBounds" />
          </mxGeometry>
        </mxCell>
        <mxCell id="BHszQP2_QIjnQDcjIjeB-15" value="REC_SRC" style="shape=partialRectangle;connectable=0;fillColor=#FFF2CC;top=0;left=0;bottom=0;right=0;align=left;spacingLeft=6;overflow=hidden;" parent="BHszQP2_QIjnQDcjIjeB-13" vertex="1">
          <mxGeometry x="50" width="140" height="30" as="geometry">
            <mxRectangle width="140" height="30" as="alternateBounds" />
          </mxGeometry>
        </mxCell>
        <mxCell id="7hGFzMUL3lOppofJG11i-0" value="SAT_Store" style="shape=table;startSize=30;container=1;collapsible=1;childLayout=tableLayout;fixedRows=1;rowLines=0;fontStyle=1;align=center;resizeLast=1;fillColor=#FFD966;" parent="NiVuujKOUFBKynLG8kcs-1" vertex="1">
          <mxGeometry x="-50" y="1090" width="190" height="150" as="geometry" />
        </mxCell>
        <mxCell id="7hGFzMUL3lOppofJG11i-1" value="" style="shape=tableRow;horizontal=0;startSize=0;swimlaneHead=0;swimlaneBody=0;fillColor=none;collapsible=0;dropTarget=0;points=[[0,0.5],[1,0.5]];portConstraint=eastwest;top=0;left=0;right=0;bottom=1;" parent="7hGFzMUL3lOppofJG11i-0" vertex="1">
          <mxGeometry y="30" width="190" height="30" as="geometry" />
        </mxCell>
        <mxCell id="7hGFzMUL3lOppofJG11i-2" value="PK, FK" style="shape=partialRectangle;connectable=0;fillColor=#FFF2CC;top=0;left=0;bottom=0;right=0;fontStyle=1;overflow=hidden;" parent="7hGFzMUL3lOppofJG11i-1" vertex="1">
          <mxGeometry width="50" height="30" as="geometry">
            <mxRectangle width="50" height="30" as="alternateBounds" />
          </mxGeometry>
        </mxCell>
        <mxCell id="7hGFzMUL3lOppofJG11i-3" value="HK_Store_ID" style="shape=partialRectangle;connectable=0;fillColor=#FFF2CC;top=0;left=0;bottom=0;right=0;align=left;spacingLeft=6;fontStyle=5;overflow=hidden;" parent="7hGFzMUL3lOppofJG11i-1" vertex="1">
          <mxGeometry x="50" width="140" height="30" as="geometry">
            <mxRectangle width="140" height="30" as="alternateBounds" />
          </mxGeometry>
        </mxCell>
        <mxCell id="7hGFzMUL3lOppofJG11i-4" style="shape=tableRow;horizontal=0;startSize=0;swimlaneHead=0;swimlaneBody=0;fillColor=none;collapsible=0;dropTarget=0;points=[[0,0.5],[1,0.5]];portConstraint=eastwest;top=0;left=0;right=0;bottom=1;" parent="7hGFzMUL3lOppofJG11i-0" vertex="1">
          <mxGeometry y="60" width="190" height="30" as="geometry" />
        </mxCell>
        <mxCell id="7hGFzMUL3lOppofJG11i-5" value="PK" style="shape=partialRectangle;connectable=0;fillColor=#FFF2CC;top=0;left=0;bottom=0;right=0;fontStyle=1;overflow=hidden;" parent="7hGFzMUL3lOppofJG11i-4" vertex="1">
          <mxGeometry width="50" height="30" as="geometry">
            <mxRectangle width="50" height="30" as="alternateBounds" />
          </mxGeometry>
        </mxCell>
        <mxCell id="7hGFzMUL3lOppofJG11i-6" value="LOAD_DTS" style="shape=partialRectangle;connectable=0;fillColor=#FFF2CC;top=0;left=0;bottom=0;right=0;align=left;spacingLeft=6;fontStyle=5;overflow=hidden;" parent="7hGFzMUL3lOppofJG11i-4" vertex="1">
          <mxGeometry x="50" width="140" height="30" as="geometry">
            <mxRectangle width="140" height="30" as="alternateBounds" />
          </mxGeometry>
        </mxCell>
        <mxCell id="7hGFzMUL3lOppofJG11i-7" style="shape=tableRow;horizontal=0;startSize=0;swimlaneHead=0;swimlaneBody=0;fillColor=none;collapsible=0;dropTarget=0;points=[[0,0.5],[1,0.5]];portConstraint=eastwest;top=0;left=0;right=0;bottom=0;" parent="7hGFzMUL3lOppofJG11i-0" vertex="1">
          <mxGeometry y="90" width="190" height="30" as="geometry" />
        </mxCell>
        <mxCell id="7hGFzMUL3lOppofJG11i-8" value="" style="shape=partialRectangle;connectable=0;fillColor=#FFF2CC;top=0;left=0;bottom=0;right=0;editable=1;overflow=hidden;" parent="7hGFzMUL3lOppofJG11i-7" vertex="1">
          <mxGeometry width="50" height="30" as="geometry">
            <mxRectangle width="50" height="30" as="alternateBounds" />
          </mxGeometry>
        </mxCell>
        <mxCell id="7hGFzMUL3lOppofJG11i-9" value="Store_Name" style="shape=partialRectangle;connectable=0;fillColor=#FFF2CC;top=0;left=0;bottom=0;right=0;align=left;spacingLeft=6;overflow=hidden;" parent="7hGFzMUL3lOppofJG11i-7" vertex="1">
          <mxGeometry x="50" width="140" height="30" as="geometry">
            <mxRectangle width="140" height="30" as="alternateBounds" />
          </mxGeometry>
        </mxCell>
        <mxCell id="7hGFzMUL3lOppofJG11i-10" style="shape=tableRow;horizontal=0;startSize=0;swimlaneHead=0;swimlaneBody=0;fillColor=none;collapsible=0;dropTarget=0;points=[[0,0.5],[1,0.5]];portConstraint=eastwest;top=0;left=0;right=0;bottom=0;" parent="7hGFzMUL3lOppofJG11i-0" vertex="1">
          <mxGeometry y="120" width="190" height="30" as="geometry" />
        </mxCell>
        <mxCell id="7hGFzMUL3lOppofJG11i-11" style="shape=partialRectangle;connectable=0;fillColor=#FFF2CC;top=0;left=0;bottom=0;right=0;editable=1;overflow=hidden;" parent="7hGFzMUL3lOppofJG11i-10" vertex="1">
          <mxGeometry width="50" height="30" as="geometry">
            <mxRectangle width="50" height="30" as="alternateBounds" />
          </mxGeometry>
        </mxCell>
        <mxCell id="7hGFzMUL3lOppofJG11i-12" value="REC_SRC" style="shape=partialRectangle;connectable=0;fillColor=#FFF2CC;top=0;left=0;bottom=0;right=0;align=left;spacingLeft=6;overflow=hidden;" parent="7hGFzMUL3lOppofJG11i-10" vertex="1">
          <mxGeometry x="50" width="140" height="30" as="geometry">
            <mxRectangle width="140" height="30" as="alternateBounds" />
          </mxGeometry>
        </mxCell>
        <mxCell id="7hGFzMUL3lOppofJG11i-13" value="SAT_Postal" style="shape=table;startSize=30;container=1;collapsible=1;childLayout=tableLayout;fixedRows=1;rowLines=0;fontStyle=1;align=center;resizeLast=1;fillColor=#FFD966;" parent="NiVuujKOUFBKynLG8kcs-1" vertex="1">
          <mxGeometry x="200" y="1090" width="190" height="180" as="geometry" />
        </mxCell>
        <mxCell id="7hGFzMUL3lOppofJG11i-14" value="" style="shape=tableRow;horizontal=0;startSize=0;swimlaneHead=0;swimlaneBody=0;fillColor=none;collapsible=0;dropTarget=0;points=[[0,0.5],[1,0.5]];portConstraint=eastwest;top=0;left=0;right=0;bottom=1;" parent="7hGFzMUL3lOppofJG11i-13" vertex="1">
          <mxGeometry y="30" width="190" height="30" as="geometry" />
        </mxCell>
        <mxCell id="7hGFzMUL3lOppofJG11i-15" value="PK, FK" style="shape=partialRectangle;connectable=0;fillColor=#FFF2CC;top=0;left=0;bottom=0;right=0;fontStyle=1;overflow=hidden;" parent="7hGFzMUL3lOppofJG11i-14" vertex="1">
          <mxGeometry width="50" height="30" as="geometry">
            <mxRectangle width="50" height="30" as="alternateBounds" />
          </mxGeometry>
        </mxCell>
        <mxCell id="7hGFzMUL3lOppofJG11i-16" value="HK_Store_ID" style="shape=partialRectangle;connectable=0;fillColor=#FFF2CC;top=0;left=0;bottom=0;right=0;align=left;spacingLeft=6;fontStyle=5;overflow=hidden;" parent="7hGFzMUL3lOppofJG11i-14" vertex="1">
          <mxGeometry x="50" width="140" height="30" as="geometry">
            <mxRectangle width="140" height="30" as="alternateBounds" />
          </mxGeometry>
        </mxCell>
        <mxCell id="7hGFzMUL3lOppofJG11i-17" style="shape=tableRow;horizontal=0;startSize=0;swimlaneHead=0;swimlaneBody=0;fillColor=none;collapsible=0;dropTarget=0;points=[[0,0.5],[1,0.5]];portConstraint=eastwest;top=0;left=0;right=0;bottom=1;" parent="7hGFzMUL3lOppofJG11i-13" vertex="1">
          <mxGeometry y="60" width="190" height="30" as="geometry" />
        </mxCell>
        <mxCell id="7hGFzMUL3lOppofJG11i-18" value="PK" style="shape=partialRectangle;connectable=0;fillColor=#FFF2CC;top=0;left=0;bottom=0;right=0;fontStyle=1;overflow=hidden;" parent="7hGFzMUL3lOppofJG11i-17" vertex="1">
          <mxGeometry width="50" height="30" as="geometry">
            <mxRectangle width="50" height="30" as="alternateBounds" />
          </mxGeometry>
        </mxCell>
        <mxCell id="7hGFzMUL3lOppofJG11i-19" value="LOAD_DTS" style="shape=partialRectangle;connectable=0;fillColor=#FFF2CC;top=0;left=0;bottom=0;right=0;align=left;spacingLeft=6;fontStyle=5;overflow=hidden;" parent="7hGFzMUL3lOppofJG11i-17" vertex="1">
          <mxGeometry x="50" width="140" height="30" as="geometry">
            <mxRectangle width="140" height="30" as="alternateBounds" />
          </mxGeometry>
        </mxCell>
        <mxCell id="7hGFzMUL3lOppofJG11i-20" style="shape=tableRow;horizontal=0;startSize=0;swimlaneHead=0;swimlaneBody=0;fillColor=none;collapsible=0;dropTarget=0;points=[[0,0.5],[1,0.5]];portConstraint=eastwest;top=0;left=0;right=0;bottom=0;" parent="7hGFzMUL3lOppofJG11i-13" vertex="1">
          <mxGeometry y="90" width="190" height="30" as="geometry" />
        </mxCell>
        <mxCell id="7hGFzMUL3lOppofJG11i-21" value="" style="shape=partialRectangle;connectable=0;fillColor=#FFF2CC;top=0;left=0;bottom=0;right=0;editable=1;overflow=hidden;" parent="7hGFzMUL3lOppofJG11i-20" vertex="1">
          <mxGeometry width="50" height="30" as="geometry">
            <mxRectangle width="50" height="30" as="alternateBounds" />
          </mxGeometry>
        </mxCell>
        <mxCell id="7hGFzMUL3lOppofJG11i-22" value="Postal_Code" style="shape=partialRectangle;connectable=0;fillColor=#FFF2CC;top=0;left=0;bottom=0;right=0;align=left;spacingLeft=6;overflow=hidden;" parent="7hGFzMUL3lOppofJG11i-20" vertex="1">
          <mxGeometry x="50" width="140" height="30" as="geometry">
            <mxRectangle width="140" height="30" as="alternateBounds" />
          </mxGeometry>
        </mxCell>
        <mxCell id="neGlzc6ovSlsOxr_AF0g-0" style="shape=tableRow;horizontal=0;startSize=0;swimlaneHead=0;swimlaneBody=0;fillColor=none;collapsible=0;dropTarget=0;points=[[0,0.5],[1,0.5]];portConstraint=eastwest;top=0;left=0;right=0;bottom=0;" parent="7hGFzMUL3lOppofJG11i-13" vertex="1">
          <mxGeometry y="120" width="190" height="30" as="geometry" />
        </mxCell>
        <mxCell id="neGlzc6ovSlsOxr_AF0g-1" style="shape=partialRectangle;connectable=0;fillColor=#FFF2CC;top=0;left=0;bottom=0;right=0;editable=1;overflow=hidden;" parent="neGlzc6ovSlsOxr_AF0g-0" vertex="1">
          <mxGeometry width="50" height="30" as="geometry">
            <mxRectangle width="50" height="30" as="alternateBounds" />
          </mxGeometry>
        </mxCell>
        <mxCell id="neGlzc6ovSlsOxr_AF0g-2" value="City" style="shape=partialRectangle;connectable=0;fillColor=#FFF2CC;top=0;left=0;bottom=0;right=0;align=left;spacingLeft=6;overflow=hidden;" parent="neGlzc6ovSlsOxr_AF0g-0" vertex="1">
          <mxGeometry x="50" width="140" height="30" as="geometry">
            <mxRectangle width="140" height="30" as="alternateBounds" />
          </mxGeometry>
        </mxCell>
        <mxCell id="7hGFzMUL3lOppofJG11i-23" style="shape=tableRow;horizontal=0;startSize=0;swimlaneHead=0;swimlaneBody=0;fillColor=none;collapsible=0;dropTarget=0;points=[[0,0.5],[1,0.5]];portConstraint=eastwest;top=0;left=0;right=0;bottom=0;" parent="7hGFzMUL3lOppofJG11i-13" vertex="1">
          <mxGeometry y="150" width="190" height="30" as="geometry" />
        </mxCell>
        <mxCell id="7hGFzMUL3lOppofJG11i-24" style="shape=partialRectangle;connectable=0;fillColor=#FFF2CC;top=0;left=0;bottom=0;right=0;editable=1;overflow=hidden;" parent="7hGFzMUL3lOppofJG11i-23" vertex="1">
          <mxGeometry width="50" height="30" as="geometry">
            <mxRectangle width="50" height="30" as="alternateBounds" />
          </mxGeometry>
        </mxCell>
        <mxCell id="7hGFzMUL3lOppofJG11i-25" value="REC_SRC" style="shape=partialRectangle;connectable=0;fillColor=#FFF2CC;top=0;left=0;bottom=0;right=0;align=left;spacingLeft=6;overflow=hidden;" parent="7hGFzMUL3lOppofJG11i-23" vertex="1">
          <mxGeometry x="50" width="140" height="30" as="geometry">
            <mxRectangle width="140" height="30" as="alternateBounds" />
          </mxGeometry>
        </mxCell>
        <mxCell id="OENfzQpzQTQl7mAMeO_V-0" value="SAT_Order_Det" style="shape=table;startSize=30;container=1;collapsible=1;childLayout=tableLayout;fixedRows=1;rowLines=0;fontStyle=1;align=center;resizeLast=1;fillColor=#FFD966;" parent="NiVuujKOUFBKynLG8kcs-1" vertex="1">
          <mxGeometry x="-208" y="510" width="190" height="150" as="geometry" />
        </mxCell>
        <mxCell id="OENfzQpzQTQl7mAMeO_V-1" value="" style="shape=tableRow;horizontal=0;startSize=0;swimlaneHead=0;swimlaneBody=0;fillColor=none;collapsible=0;dropTarget=0;points=[[0,0.5],[1,0.5]];portConstraint=eastwest;top=0;left=0;right=0;bottom=1;" parent="OENfzQpzQTQl7mAMeO_V-0" vertex="1">
          <mxGeometry y="30" width="190" height="30" as="geometry" />
        </mxCell>
        <mxCell id="OENfzQpzQTQl7mAMeO_V-2" value="PK, FK" style="shape=partialRectangle;connectable=0;fillColor=#FFF2CC;top=0;left=0;bottom=0;right=0;fontStyle=1;overflow=hidden;" parent="OENfzQpzQTQl7mAMeO_V-1" vertex="1">
          <mxGeometry width="50" height="30" as="geometry">
            <mxRectangle width="50" height="30" as="alternateBounds" />
          </mxGeometry>
        </mxCell>
        <mxCell id="OENfzQpzQTQl7mAMeO_V-3" value="HK_L_Cust_Order" style="shape=partialRectangle;connectable=0;fillColor=#FFF2CC;top=0;left=0;bottom=0;right=0;align=left;spacingLeft=6;fontStyle=5;overflow=hidden;" parent="OENfzQpzQTQl7mAMeO_V-1" vertex="1">
          <mxGeometry x="50" width="140" height="30" as="geometry">
            <mxRectangle width="140" height="30" as="alternateBounds" />
          </mxGeometry>
        </mxCell>
        <mxCell id="OENfzQpzQTQl7mAMeO_V-4" style="shape=tableRow;horizontal=0;startSize=0;swimlaneHead=0;swimlaneBody=0;fillColor=none;collapsible=0;dropTarget=0;points=[[0,0.5],[1,0.5]];portConstraint=eastwest;top=0;left=0;right=0;bottom=1;" parent="OENfzQpzQTQl7mAMeO_V-0" vertex="1">
          <mxGeometry y="60" width="190" height="30" as="geometry" />
        </mxCell>
        <mxCell id="OENfzQpzQTQl7mAMeO_V-5" value="PK" style="shape=partialRectangle;connectable=0;fillColor=#FFF2CC;top=0;left=0;bottom=0;right=0;fontStyle=1;overflow=hidden;" parent="OENfzQpzQTQl7mAMeO_V-4" vertex="1">
          <mxGeometry width="50" height="30" as="geometry">
            <mxRectangle width="50" height="30" as="alternateBounds" />
          </mxGeometry>
        </mxCell>
        <mxCell id="OENfzQpzQTQl7mAMeO_V-6" value="LOAD_DTS" style="shape=partialRectangle;connectable=0;fillColor=#FFF2CC;top=0;left=0;bottom=0;right=0;align=left;spacingLeft=6;fontStyle=5;overflow=hidden;" parent="OENfzQpzQTQl7mAMeO_V-4" vertex="1">
          <mxGeometry x="50" width="140" height="30" as="geometry">
            <mxRectangle width="140" height="30" as="alternateBounds" />
          </mxGeometry>
        </mxCell>
        <mxCell id="OENfzQpzQTQl7mAMeO_V-7" style="shape=tableRow;horizontal=0;startSize=0;swimlaneHead=0;swimlaneBody=0;fillColor=none;collapsible=0;dropTarget=0;points=[[0,0.5],[1,0.5]];portConstraint=eastwest;top=0;left=0;right=0;bottom=0;" parent="OENfzQpzQTQl7mAMeO_V-0" vertex="1">
          <mxGeometry y="90" width="190" height="30" as="geometry" />
        </mxCell>
        <mxCell id="OENfzQpzQTQl7mAMeO_V-8" value="" style="shape=partialRectangle;connectable=0;fillColor=#FFF2CC;top=0;left=0;bottom=0;right=0;editable=1;overflow=hidden;" parent="OENfzQpzQTQl7mAMeO_V-7" vertex="1">
          <mxGeometry width="50" height="30" as="geometry">
            <mxRectangle width="50" height="30" as="alternateBounds" />
          </mxGeometry>
        </mxCell>
        <mxCell id="OENfzQpzQTQl7mAMeO_V-9" value="Unit_Price" style="shape=partialRectangle;connectable=0;fillColor=#FFF2CC;top=0;left=0;bottom=0;right=0;align=left;spacingLeft=6;overflow=hidden;" parent="OENfzQpzQTQl7mAMeO_V-7" vertex="1">
          <mxGeometry x="50" width="140" height="30" as="geometry">
            <mxRectangle width="140" height="30" as="alternateBounds" />
          </mxGeometry>
        </mxCell>
        <mxCell id="OENfzQpzQTQl7mAMeO_V-10" style="shape=tableRow;horizontal=0;startSize=0;swimlaneHead=0;swimlaneBody=0;fillColor=none;collapsible=0;dropTarget=0;points=[[0,0.5],[1,0.5]];portConstraint=eastwest;top=0;left=0;right=0;bottom=0;" parent="OENfzQpzQTQl7mAMeO_V-0" vertex="1">
          <mxGeometry y="120" width="190" height="30" as="geometry" />
        </mxCell>
        <mxCell id="OENfzQpzQTQl7mAMeO_V-11" style="shape=partialRectangle;connectable=0;fillColor=#FFF2CC;top=0;left=0;bottom=0;right=0;editable=1;overflow=hidden;" parent="OENfzQpzQTQl7mAMeO_V-10" vertex="1">
          <mxGeometry width="50" height="30" as="geometry">
            <mxRectangle width="50" height="30" as="alternateBounds" />
          </mxGeometry>
        </mxCell>
        <mxCell id="OENfzQpzQTQl7mAMeO_V-12" value="Quantity" style="shape=partialRectangle;connectable=0;fillColor=#FFF2CC;top=0;left=0;bottom=0;right=0;align=left;spacingLeft=6;overflow=hidden;" parent="OENfzQpzQTQl7mAMeO_V-10" vertex="1">
          <mxGeometry x="50" width="140" height="30" as="geometry">
            <mxRectangle width="140" height="30" as="alternateBounds" />
          </mxGeometry>
        </mxCell>
        <mxCell id="yTiTGg_Ltd3iw1wu8Y0m-0" value="" style="endArrow=none;html=1;rounded=0;exitX=1;exitY=0.5;exitDx=0;exitDy=0;entryX=0;entryY=0.5;entryDx=0;entryDy=0;startArrow=none;startFill=0;endFill=0;" parent="NiVuujKOUFBKynLG8kcs-1" source="psH13lsi_rqc8E1vP_1m-23" target="xAKMeydSMWTqtz_utKmK-4" edge="1">
          <mxGeometry width="50" height="50" relative="1" as="geometry">
            <mxPoint x="170" y="180" as="sourcePoint" />
            <mxPoint x="220" y="130" as="targetPoint" />
          </mxGeometry>
        </mxCell>
        <mxCell id="yTiTGg_Ltd3iw1wu8Y0m-1" value="" style="endArrow=none;html=1;rounded=0;exitX=1;exitY=0.5;exitDx=0;exitDy=0;entryX=0;entryY=0.5;entryDx=0;entryDy=0;endFill=0;" parent="NiVuujKOUFBKynLG8kcs-1" target="xAKMeydSMWTqtz_utKmK-0" edge="1">
          <mxGeometry width="50" height="50" relative="1" as="geometry">
            <mxPoint x="-10.000000000000227" y="362.5" as="sourcePoint" />
            <mxPoint x="69.99999999999977" y="357.5" as="targetPoint" />
          </mxGeometry>
        </mxCell>
        <mxCell id="HUqnpOogoAp_eHOxZS8E-3" value="Customer" style="shape=table;startSize=30;container=1;collapsible=1;childLayout=tableLayout;fixedRows=1;rowLines=0;fontStyle=1;align=center;resizeLast=1;fillColor=#FFD966;" parent="NiVuujKOUFBKynLG8kcs-1" vertex="1">
          <mxGeometry x="-210" y="310" width="202" height="150" as="geometry" />
        </mxCell>
        <mxCell id="HUqnpOogoAp_eHOxZS8E-4" value="" style="shape=tableRow;horizontal=0;startSize=0;swimlaneHead=0;swimlaneBody=0;fillColor=none;collapsible=0;dropTarget=0;points=[[0,0.5],[1,0.5]];portConstraint=eastwest;top=0;left=0;right=0;bottom=1;" parent="HUqnpOogoAp_eHOxZS8E-3" vertex="1">
          <mxGeometry y="30" width="202" height="30" as="geometry" />
        </mxCell>
        <mxCell id="HUqnpOogoAp_eHOxZS8E-5" value="PK, FK" style="shape=partialRectangle;connectable=0;fillColor=#FFF2CC;top=0;left=0;bottom=0;right=0;fontStyle=1;overflow=hidden;" parent="HUqnpOogoAp_eHOxZS8E-4" vertex="1">
          <mxGeometry width="40.00000000000023" height="30" as="geometry">
            <mxRectangle width="40.00000000000023" height="30" as="alternateBounds" />
          </mxGeometry>
        </mxCell>
        <mxCell id="HUqnpOogoAp_eHOxZS8E-6" value="HK_Customer_ID" style="shape=partialRectangle;connectable=0;fillColor=#FFF2CC;top=0;left=0;bottom=0;right=0;align=left;spacingLeft=6;fontStyle=5;overflow=hidden;" parent="HUqnpOogoAp_eHOxZS8E-4" vertex="1">
          <mxGeometry x="40.00000000000023" width="161.99999999999977" height="30" as="geometry">
            <mxRectangle width="161.99999999999977" height="30" as="alternateBounds" />
          </mxGeometry>
        </mxCell>
        <mxCell id="HUqnpOogoAp_eHOxZS8E-7" style="shape=tableRow;horizontal=0;startSize=0;swimlaneHead=0;swimlaneBody=0;fillColor=none;collapsible=0;dropTarget=0;points=[[0,0.5],[1,0.5]];portConstraint=eastwest;top=0;left=0;right=0;bottom=1;" parent="HUqnpOogoAp_eHOxZS8E-3" vertex="1">
          <mxGeometry y="60" width="202" height="30" as="geometry" />
        </mxCell>
        <mxCell id="HUqnpOogoAp_eHOxZS8E-8" value="PK" style="shape=partialRectangle;connectable=0;fillColor=#FFF2CC;top=0;left=0;bottom=0;right=0;fontStyle=1;overflow=hidden;" parent="HUqnpOogoAp_eHOxZS8E-7" vertex="1">
          <mxGeometry width="40.00000000000023" height="30" as="geometry">
            <mxRectangle width="40.00000000000023" height="30" as="alternateBounds" />
          </mxGeometry>
        </mxCell>
        <mxCell id="HUqnpOogoAp_eHOxZS8E-9" value="LOAD_DTS" style="shape=partialRectangle;connectable=0;fillColor=#FFF2CC;top=0;left=0;bottom=0;right=0;align=left;spacingLeft=6;fontStyle=5;overflow=hidden;" parent="HUqnpOogoAp_eHOxZS8E-7" vertex="1">
          <mxGeometry x="40.00000000000023" width="161.99999999999977" height="30" as="geometry">
            <mxRectangle width="161.99999999999977" height="30" as="alternateBounds" />
          </mxGeometry>
        </mxCell>
        <mxCell id="HUqnpOogoAp_eHOxZS8E-19" style="shape=tableRow;horizontal=0;startSize=0;swimlaneHead=0;swimlaneBody=0;fillColor=none;collapsible=0;dropTarget=0;points=[[0,0.5],[1,0.5]];portConstraint=eastwest;top=0;left=0;right=0;bottom=0;" parent="HUqnpOogoAp_eHOxZS8E-3" vertex="1">
          <mxGeometry y="90" width="202" height="30" as="geometry" />
        </mxCell>
        <mxCell id="HUqnpOogoAp_eHOxZS8E-20" value="" style="shape=partialRectangle;connectable=0;fillColor=#FFF2CC;top=0;left=0;bottom=0;right=0;editable=1;overflow=hidden;" parent="HUqnpOogoAp_eHOxZS8E-19" vertex="1">
          <mxGeometry width="40.00000000000023" height="30" as="geometry">
            <mxRectangle width="40.00000000000023" height="30" as="alternateBounds" />
          </mxGeometry>
        </mxCell>
        <mxCell id="HUqnpOogoAp_eHOxZS8E-21" value="Postal_Code" style="shape=partialRectangle;connectable=0;fillColor=#FFF2CC;top=0;left=0;bottom=0;right=0;align=left;spacingLeft=6;overflow=hidden;" parent="HUqnpOogoAp_eHOxZS8E-19" vertex="1">
          <mxGeometry x="40.00000000000023" width="161.99999999999977" height="30" as="geometry">
            <mxRectangle width="161.99999999999977" height="30" as="alternateBounds" />
          </mxGeometry>
        </mxCell>
        <mxCell id="HUqnpOogoAp_eHOxZS8E-25" style="shape=tableRow;horizontal=0;startSize=0;swimlaneHead=0;swimlaneBody=0;fillColor=none;collapsible=0;dropTarget=0;points=[[0,0.5],[1,0.5]];portConstraint=eastwest;top=0;left=0;right=0;bottom=0;" parent="HUqnpOogoAp_eHOxZS8E-3" vertex="1">
          <mxGeometry y="120" width="202" height="30" as="geometry" />
        </mxCell>
        <mxCell id="HUqnpOogoAp_eHOxZS8E-26" style="shape=partialRectangle;connectable=0;fillColor=#FFF2CC;top=0;left=0;bottom=0;right=0;editable=1;overflow=hidden;" parent="HUqnpOogoAp_eHOxZS8E-25" vertex="1">
          <mxGeometry width="40.00000000000023" height="30" as="geometry">
            <mxRectangle width="40.00000000000023" height="30" as="alternateBounds" />
          </mxGeometry>
        </mxCell>
        <mxCell id="HUqnpOogoAp_eHOxZS8E-27" value="REC_SRC" style="shape=partialRectangle;connectable=0;fillColor=#FFF2CC;top=0;left=0;bottom=0;right=0;align=left;spacingLeft=6;overflow=hidden;" parent="HUqnpOogoAp_eHOxZS8E-25" vertex="1">
          <mxGeometry x="40.00000000000023" width="161.99999999999977" height="30" as="geometry">
            <mxRectangle width="161.99999999999977" height="30" as="alternateBounds" />
          </mxGeometry>
        </mxCell>
        <mxCell id="HUqnpOogoAp_eHOxZS8E-28" value="" style="endArrow=classic;html=1;rounded=0;exitX=0.5;exitY=1;exitDx=0;exitDy=0;entryX=0.5;entryY=0;entryDx=0;entryDy=0;" parent="NiVuujKOUFBKynLG8kcs-1" source="xAKMeydSMWTqtz_utKmK-0" target="fLdI8By5PQ46cvxwp044-14" edge="1">
          <mxGeometry width="50" height="50" relative="1" as="geometry">
            <mxPoint x="519.9999999999995" y="180" as="sourcePoint" />
            <mxPoint x="530" y="392.5" as="targetPoint" />
          </mxGeometry>
        </mxCell>
        <mxCell id="HUqnpOogoAp_eHOxZS8E-30" value="" style="endArrow=none;html=1;rounded=0;entryX=0.5;entryY=0;entryDx=0;entryDy=0;endFill=0;" parent="NiVuujKOUFBKynLG8kcs-1" edge="1">
          <mxGeometry width="50" height="50" relative="1" as="geometry">
            <mxPoint x="150" y="440" as="sourcePoint" />
            <mxPoint x="150" y="500" as="targetPoint" />
          </mxGeometry>
        </mxCell>
        <mxCell id="HUqnpOogoAp_eHOxZS8E-31" value="" style="endArrow=none;html=1;rounded=0;entryX=0.5;entryY=0;entryDx=0;entryDy=0;endFill=0;" parent="NiVuujKOUFBKynLG8kcs-1" target="psH13lsi_rqc8E1vP_1m-0" edge="1">
          <mxGeometry width="50" height="50" relative="1" as="geometry">
            <mxPoint x="150" y="650" as="sourcePoint" />
            <mxPoint x="160" y="510" as="targetPoint" />
          </mxGeometry>
        </mxCell>
        <mxCell id="WVYSjWZsi2gkmeEV2USM-0" value="" style="endArrow=none;html=1;rounded=0;entryX=0.5;entryY=0;entryDx=0;entryDy=0;endFill=0;" parent="NiVuujKOUFBKynLG8kcs-1" target="psH13lsi_rqc8E1vP_1m-64" edge="1">
          <mxGeometry width="50" height="50" relative="1" as="geometry">
            <mxPoint x="150" y="880" as="sourcePoint" />
            <mxPoint x="160" y="510" as="targetPoint" />
          </mxGeometry>
        </mxCell>
        <mxCell id="WVYSjWZsi2gkmeEV2USM-1" value="" style="endArrow=none;html=1;rounded=0;entryX=0.5;entryY=0;entryDx=0;entryDy=0;endFill=0;" parent="NiVuujKOUFBKynLG8kcs-1" target="7hGFzMUL3lOppofJG11i-0" edge="1">
          <mxGeometry width="50" height="50" relative="1" as="geometry">
            <mxPoint x="170" y="1040" as="sourcePoint" />
            <mxPoint x="160" y="930" as="targetPoint" />
          </mxGeometry>
        </mxCell>
        <mxCell id="WVYSjWZsi2gkmeEV2USM-2" value="" style="endArrow=none;html=1;rounded=0;entryX=0.5;entryY=0;entryDx=0;entryDy=0;endFill=0;" parent="NiVuujKOUFBKynLG8kcs-1" target="7hGFzMUL3lOppofJG11i-13" edge="1">
          <mxGeometry width="50" height="50" relative="1" as="geometry">
            <mxPoint x="160" y="1040" as="sourcePoint" />
            <mxPoint x="55" y="1100" as="targetPoint" />
          </mxGeometry>
        </mxCell>
        <mxCell id="WVYSjWZsi2gkmeEV2USM-3" value="" style="endArrow=none;html=1;rounded=0;exitX=1;exitY=0.5;exitDx=0;exitDy=0;endFill=0;" parent="NiVuujKOUFBKynLG8kcs-1" edge="1">
          <mxGeometry width="50" height="50" relative="1" as="geometry">
            <mxPoint x="-18" y="584.5" as="sourcePoint" />
            <mxPoint x="70" y="585" as="targetPoint" />
          </mxGeometry>
        </mxCell>
        <mxCell id="WVYSjWZsi2gkmeEV2USM-4" value="" style="endArrow=none;html=1;rounded=0;exitX=1;exitY=0.5;exitDx=0;exitDy=0;endFill=0;" parent="NiVuujKOUFBKynLG8kcs-1" edge="1">
          <mxGeometry width="50" height="50" relative="1" as="geometry">
            <mxPoint x="240" y="584.5" as="sourcePoint" />
            <mxPoint x="320" y="585" as="targetPoint" />
          </mxGeometry>
        </mxCell>
        <mxCell id="WVYSjWZsi2gkmeEV2USM-5" value="" style="endArrow=none;html=1;rounded=0;exitX=1;exitY=0.5;exitDx=0;exitDy=0;endFill=0;" parent="NiVuujKOUFBKynLG8kcs-1" edge="1">
          <mxGeometry width="50" height="50" relative="1" as="geometry">
            <mxPoint x="504" y="583" as="sourcePoint" />
            <mxPoint x="584" y="583.5" as="targetPoint" />
          </mxGeometry>
        </mxCell>
        <mxCell id="WVYSjWZsi2gkmeEV2USM-6" value="" style="endArrow=none;html=1;rounded=0;exitX=1;exitY=0.5;exitDx=0;exitDy=0;endFill=0;entryX=0;entryY=0.5;entryDx=0;entryDy=0;" parent="NiVuujKOUFBKynLG8kcs-1" target="psH13lsi_rqc8E1vP_1m-119" edge="1">
          <mxGeometry width="50" height="50" relative="1" as="geometry">
            <mxPoint x="760" y="574.17" as="sourcePoint" />
            <mxPoint x="840" y="574.67" as="targetPoint" />
          </mxGeometry>
        </mxCell>
        <mxCell id="WVYSjWZsi2gkmeEV2USM-7" value="" style="endArrow=none;html=1;rounded=0;exitX=1;exitY=0.5;exitDx=0;exitDy=0;endFill=0;entryX=0;entryY=0.5;entryDx=0;entryDy=0;" parent="NiVuujKOUFBKynLG8kcs-1" source="psH13lsi_rqc8E1vP_1m-97" target="BHszQP2_QIjnQDcjIjeB-7" edge="1">
          <mxGeometry width="50" height="50" relative="1" as="geometry">
            <mxPoint x="770" y="584.1700000000001" as="sourcePoint" />
            <mxPoint x="837" y="475" as="targetPoint" />
          </mxGeometry>
        </mxCell>
      </root>
    </mxGraphModel>
  </diagram>
</mxfile>
